<svg id="SvgjsSvg1204" width="550" height="550" xmlns="http://www.w3.org/2000/svg" version="1.1" xmlns:xlink="http://www.w3.org/1999/xlink" xmlns:svgjs="http://svgjs.com/svgjs"><defs id="SvgjsDefs1205"></defs><g id="SvgjsG1206"><svg xmlns="http://www.w3.org/2000/svg" enable-background="new 0 0 1000 800" viewBox="0 0 1000 800" width="550" height="550"><ellipse cx="866.926" cy="694.733" fill="#eaf2f4" rx="100.698" ry="13.602" class="coloreaf2f4 svgShape"></ellipse><ellipse cx="486.858" cy="681.131" fill="#eaf2f4" rx="251.194" ry="33.579" class="coloreaf2f4 svgShape"></ellipse><ellipse cx="176.121" cy="700.452" fill="#eaf2f4" rx="143.746" ry="13.602" class="coloreaf2f4 svgShape"></ellipse><circle cx="820.443" cy="681.131" r="12.262" fill="#24325b" transform="rotate(-70.288 820.482 681.132)" class="color24325b svgShape"></circle><circle cx="913.409" cy="681.131" r="12.262" fill="#24325b" transform="rotate(-10.199 913.287 681.003)" class="color24325b svgShape"></circle><path fill="#ffffff" d="M866.926,656.254c-3.321,0-6.014-2.693-6.014-6.014V151.749c0-3.321,2.693-6.014,6.014-6.014				c3.321,0,6.014,2.693,6.014,6.014V650.24C872.94,653.561,870.247,656.254,866.926,656.254z" class="colorfff svgShape"></path><path fill="#c8d4de" d="M869.933,656.254c-1.661,0-3.007-2.693-3.007-6.014V151.749c0-3.321,1.346-6.014,3.007-6.014
				c1.661,0,3.007,2.693,3.007,6.014V650.24C872.94,653.561,871.594,656.254,869.933,656.254z" class="colorc8d4de svgShape"></path><path fill="#262262" d="M866.926,658.299c-4.444,0-8.059-3.615-8.059-8.059V151.749c0-4.443,3.615-8.059,8.059-8.059
					c4.444,0,8.059,3.615,8.059,8.059v61.486c0,1.13-0.915,2.045-2.045,2.045c-1.129,0-2.045-0.915-2.045-2.045v-61.486
					c0-2.189-1.78-3.969-3.969-3.969c-2.189,0-3.969,1.78-3.969,3.969V650.24c0,2.189,1.78,3.969,3.969,3.969
					c2.189,0,3.969-1.78,3.969-3.969V543.864c0-1.13,0.915-2.045,2.045-2.045c1.129,0,2.045,0.915,2.045,2.045V650.24
					C874.985,654.683,871.37,658.299,866.926,658.299z" class="color262262 svgShape"></path><path fill="#262262" d="M872.94,410.415c-1.129,0-2.045-0.915-2.045-2.045V265.097c0-1.129,0.915-2.045,2.045-2.045
					c1.129,0,2.045,0.915,2.045,2.045V408.37C874.985,409.5,874.069,410.415,872.94,410.415z" class="color262262 svgShape"></path><path fill="#ffffff" d="M913.409,686.644c-3.045,0-5.513-2.468-5.513-5.513v-11.102c0-7.596-6.18-13.776-13.776-13.776
				h-54.389c-7.596,0-13.776,6.18-13.776,13.776v11.102c0,3.045-2.468,5.513-5.513,5.513s-5.513-2.468-5.513-5.513v-11.102
				c0-13.675,11.126-24.801,24.802-24.801h54.389c13.675,0,24.801,11.126,24.801,24.801v11.102
				C918.922,684.176,916.453,686.644,913.409,686.644z" class="colorfff svgShape"></path><path fill="#c8d4de" d="M913.409,686.644c-3.045,0-5.513-2.468-5.513-5.513v-11.102c0-7.596-6.18-13.776-13.776-13.776
				h-54.389c-7.596,0-13.776,6.18-13.776,13.776v11.102c0,3.045-2.468,5.513-5.513,5.513c0-1.336,0-5.14,0-8.185v-8.353
				c0-13.675,5.613-23.876,19.289-23.876h54.389c13.675,0,24.801,10.123,24.801,23.799v11.102
				C918.922,684.176,916.453,686.644,913.409,686.644z" class="colorc8d4de svgShape"></path><path fill="#262262" d="M820.443,688.689c-4.167,0-7.557-3.391-7.557-7.558v-11.101
					c0-14.803,12.043-26.846,26.846-26.846h40.347c1.13,0,2.045,0.915,2.045,2.045s-0.915,2.045-2.045,2.045h-40.347
					c-12.548,0-22.756,10.208-22.756,22.756v11.101c0,1.912,1.555,3.468,3.467,3.468s3.468-1.556,3.468-3.468v-11.101
					c0-8.724,7.098-15.821,15.821-15.821c1.13,0,2.045,0.916,2.045,2.045c0,1.13-0.915,2.045-2.045,2.045
					c-6.469,0-11.732,5.262-11.732,11.731v11.101C828,685.298,824.61,688.689,820.443,688.689z" class="color262262 svgShape"></path><path fill="#262262" d="M913.409 688.689c-4.167 0-7.557-3.391-7.557-7.558v-11.101c0-6.469-5.263-11.731-11.731-11.731h-33.209c-1.13 0-2.045-.915-2.045-2.045 0-1.129.915-2.045 2.045-2.045h33.209c8.724 0 15.821 7.097 15.821 15.821v11.101c0 1.912 1.555 3.468 3.467 3.468s3.468-1.556 3.468-3.468v-11.101c0-12.548-10.208-22.756-22.756-22.756-1.129 0-2.045-.915-2.045-2.045s.915-2.045 2.045-2.045c14.803 0 26.846 12.043 26.846 26.846v11.101C920.966 685.298 917.576 688.689 913.409 688.689zM818.434 197.862h-.668c-7.76 0-14.073-6.313-14.073-14.073 0-1.129.916-2.045 2.045-2.045 1.129 0 2.045.915 2.045 2.045 0 5.505 4.478 9.983 9.983 9.983h.668c5.505 0 9.983-4.478 9.983-9.983v-13.297c0-1.13.915-2.045 2.045-2.045 1.13 0 2.045.915 2.045 2.045v13.297C832.507 191.549 826.194 197.862 818.434 197.862zM916.086 197.862h-.668c-7.76 0-14.073-6.313-14.073-14.073v-13.297c0-1.13.915-2.045 2.045-2.045 1.13 0 2.045.915 2.045 2.045v13.297c0 5.505 4.478 9.983 9.983 9.983h.668c5.504 0 9.982-4.478 9.982-9.983 0-1.129.915-2.045 2.045-2.045 1.13 0 2.045.915 2.045 2.045C930.159 191.549 923.846 197.862 916.086 197.862z" class="color262262 svgShape"></path><path fill="#ffffff" d="M903.39,176.305h-72.929c-3.044,0-5.513-2.468-5.513-5.513s2.468-5.513,5.513-5.513h72.929
				c3.045,0,5.513,2.468,5.513,5.513S906.435,176.305,903.39,176.305z" class="colorfff svgShape"></path><path fill="#c8d4de" d="M904.115,176.305h-63.348c-2.645,0-4.788-2.468-4.788-5.513s2.144-5.513,4.788-5.513h63.348
				c2.645,0,4.788,2.468,4.788,5.513S906.759,176.305,904.115,176.305z" class="colorc8d4de svgShape"></path><path fill="#262262" d="M903.39,178.35h-72.928c-4.167,0-7.558-3.39-7.558-7.558c0-4.167,3.39-7.557,7.558-7.557h72.928
					c4.167,0,7.558,3.39,7.558,7.557C910.948,174.96,907.557,178.35,903.39,178.35z M830.462,167.325
					c-1.912,0-3.468,1.555-3.468,3.467c0,1.912,1.556,3.468,3.468,3.468h72.928c1.912,0,3.468-1.556,3.468-3.468
					c0-1.912-1.556-3.467-3.468-3.467H830.462z" class="color262262 svgShape"></path><g fill="#000000" class="color000 svgShape"><rect width="47.108" height="61.6" x="794.546" y="215.138" fill="#ffffff" class="colorfff svgShape"></rect><rect width="40.092" height="61.6" x="801.562" y="215.138" fill="#eaf2f4" class="coloreaf2f4 svgShape"></rect><path fill="#262262" d="M841.654,278.783h-47.108c-1.13,0-2.045-0.915-2.045-2.045v-61.6
					c0-1.129,0.915-2.045,2.045-2.045h47.108c1.13,0,2.045,0.915,2.045,2.045v61.6C843.699,277.868,842.783,278.783,841.654,278.783
					z M796.59,274.693h43.018v-57.511H796.59V274.693z" class="color262262 svgShape"></path><path fill="#ffffff" d="M841.654,276.738v10.19c0,0-17.666,15.793-23.554,15.793s-23.554-15.793-23.554-15.793v-10.19
				H841.654z" class="colorfff svgShape"></path><path fill="#ea5444" d="M841.654,276.738v10.19c0,0-17.666,15.793-23.554,15.793s-15.435-15.793-15.435-15.793v-10.19
				H841.654z" class="colorea5444 svgShape"></path><path fill="#262262" d="M818.1,304.766c-6.348,0-21.87-13.589-24.917-16.313c-0.434-0.388-0.682-0.943-0.682-1.525
					v-10.19c0-1.129,0.915-2.045,2.045-2.045h47.108c1.13,0,2.045,0.915,2.045,2.045v10.19c0,1.13-0.915,2.045-2.045,2.045
					c-1.129,0-2.045-0.915-2.045-2.045v-8.145H796.59v7.226c7.133,6.289,18.099,14.667,21.509,14.667
					c0.657,0,3.446-0.484,11.736-6.712c0.904-0.678,2.185-0.496,2.864,0.407c0.678,0.903,0.496,2.185-0.407,2.863
					C823.306,303.985,819.888,304.766,818.1,304.766z" class="color262262 svgShape"></path></g><rect width="33.076" height="23.118" x="801.562" y="236.002" fill="#ffffff" transform="rotate(-180 818.1 247.561)" class="colorfff svgShape"></rect><g fill="#000000" class="color000 svgShape"><path fill="#262262" d="M834.638,261.026h-33.076c-1.052,0-1.906-0.853-1.906-1.906v-23.118
				c0-1.052,0.853-1.906,1.906-1.906h33.076c1.052,0,1.906,0.854,1.906,1.906c0,1.052-0.853,1.906-1.906,1.906h-31.17v19.306h31.17
				c1.052,0,1.906,0.853,1.906,1.906S835.69,261.026,834.638,261.026z" class="color262262 svgShape"></path></g><path fill="#eaf2f4" d="M818.1,202.141c0,0-23.554,8.199-23.554,12.997h47.108C841.654,210.34,818.1,202.141,818.1,202.141
			z M818.1,210.968c-1.937,0-3.508-1.571-3.508-3.508c0-1.938,1.571-3.508,3.508-3.508c1.938,0,3.508,1.571,3.508,3.508
			C821.608,209.398,820.037,210.968,818.1,210.968z" class="coloreaf2f4 svgShape"></path><g fill="#000000" class="color000 svgShape"><path fill="#262262" d="M841.654,217.183h-47.108c-1.13,0-2.045-0.915-2.045-2.045c0-5.439,15.617-11.687,24.927-14.928
				c0.435-0.151,0.909-0.151,1.344,0c9.31,3.24,24.927,9.489,24.927,14.928C843.699,216.267,842.783,217.183,841.654,217.183z
				 M798.863,213.093h38.533c-2.796-1.854-7.934-4.367-13.852-6.734c0.072,0.356,0.109,0.724,0.109,1.101
				c0,3.062-2.491,5.553-5.553,5.553c-3.062,0-5.553-2.491-5.553-5.553c0-0.376,0.038-0.744,0.109-1.099
				C806.782,208.712,801.676,211.212,798.863,213.093z M818.1,205.997c-0.807,0-1.463,0.656-1.463,1.463
				c0,0.807,0.657,1.463,1.463,1.463s1.463-0.657,1.463-1.463C819.563,206.654,818.906,205.997,818.1,205.997z" class="color262262 svgShape"></path></g><g fill="#000000" class="color000 svgShape"><path fill="#262262" d="M818.1,207.542c-1.13,0-2.045-0.915-2.045-2.045v-13.531c0-1.129,0.915-2.045,2.045-2.045
				c1.129,0,2.045,0.916,2.045,2.045v13.531C820.145,206.627,819.229,207.542,818.1,207.542z" class="color262262 svgShape"></path></g><g fill="#000000" class="color000 svgShape"><ellipse cx="569.011" cy="680.73" fill="#ffffff" rx="104.73" ry="22.552" class="colorfff svgShape"></ellipse><ellipse cx="578.078" cy="680.73" fill="#c8d4de" rx="95.663" ry="22.552" class="colorc8d4de svgShape"></ellipse><path fill="#262262" d="M619.845 702.497c-1.021 0-1.903-.763-2.028-1.802-.134-1.121.666-2.139 1.787-2.274 16.148-1.934 29.621-4.758 38.963-8.166 8.344-3.045 13.13-6.516 13.13-9.526 0-3.425-6.264-7.445-16.755-10.754-3.162-.997-6.74-1.948-10.635-2.826-1.101-.248-1.793-1.343-1.545-2.445.248-1.103 1.345-1.793 2.445-1.545 4.005.903 7.695 1.884 10.966 2.915 13.016 4.104 19.615 9.034 19.615 14.654 0 5.041-5.322 9.538-15.818 13.368-9.633 3.514-23.423 6.414-39.878 8.385C620.008 702.492 619.926 702.497 619.845 702.497zM569.011 705.327c-51.762 0-106.775-8.621-106.775-24.597 0-15.976 55.013-24.597 106.775-24.597 14.723 0 28.97.643 42.347 1.911 2.657.252 5.276.529 7.782.822 1.122.131 1.925 1.147 1.793 2.268-.132 1.122-1.152 1.918-2.268 1.793-2.478-.289-5.066-.563-7.693-.813-13.249-1.255-27.367-1.892-41.961-1.892-66.118 0-102.685 12.125-102.685 20.507s36.567 20.507 102.685 20.507c1.13 0 2.045.915 2.045 2.045C571.056 704.411 570.141 705.327 569.011 705.327z" class="color262262 svgShape"></path><path fill="#ffffff" d="M609.03,564.029l-14.272,111.427c0,0-11.853,4.773-26.523,4.773s-26.523-4.773-26.523-4.773
					L527.44,564.029H609.03z" class="colorfff svgShape"></path><path fill="#c8d4de" d="M568.235,680.229c14.67,0,26.523-4.773,26.523-4.773l14.272-111.427l-72.49,0.352l14.497,114.669
					C555.855,680.239,561.026,680.229,568.235,680.229z" class="colorc8d4de svgShape"></path><path fill="#262262" d="M568.235,681.372c-14.825,0-26.661-3.81-27.157-3.972c-0.751-0.245-1.293-0.901-1.393-1.684
						l-14.272-111.427c-0.075-0.583,0.105-1.169,0.493-1.611c0.389-0.442,0.948-0.694,1.535-0.694h81.589
						c0.587,0,1.147,0.253,1.535,0.694c0.388,0.441,0.568,1.028,0.493,1.611l-4.063,31.724c-0.144,1.12-1.171,1.911-2.288,1.768
						c-1.12-0.143-1.912-1.168-1.768-2.288l3.768-29.419h-76.942l13.807,107.802c3.35,0.945,13.177,3.407,24.664,3.407
						c11.487,0,21.314-2.462,24.664-3.407l5.155-40.247c0.143-1.12,1.166-1.915,2.288-1.768c1.12,0.143,1.912,1.168,1.768,2.288
						l-5.324,41.568c-0.1,0.783-0.643,1.439-1.393,1.684C594.896,677.562,583.06,681.372,568.235,681.372z" class="color262262 svgShape"></path><polygon fill="#c0e1ed" points="678.022 540.703 462.514 580.066 383.074 552.002 400.447 507.661 678.022 527.74" class="colorc0e1ed svgShape"></polygon><path fill="#262262" d="M462.514,582.111c-0.226,0-0.456-0.037-0.681-0.117l-21.998-7.771
						c-1.065-0.376-1.623-1.544-1.247-2.609c0.376-1.064,1.543-1.623,2.609-1.247l21.998,7.771c1.065,0.376,1.623,1.544,1.247,2.609
						C464.145,581.587,463.356,582.111,462.514,582.111z" class="color262262 svgShape"></path><rect width="9.021" height="42.19" x="671.447" y="278.957" fill="#c8d4de" transform="scale(-1) rotate(9.887 3469.274 -7815.143)" class="colorc8d4de svgShape"></rect><path fill="#262262" d="M676.78,323.654c-0.117,0-0.235-0.01-0.354-0.031l-8.887-1.549
						c-0.534-0.093-1.01-0.395-1.322-0.838c-0.312-0.444-0.435-0.993-0.342-1.527l7.246-41.563c0.194-1.113,1.256-1.854,2.366-1.664
						l8.887,1.549c0.534,0.093,1.01,0.395,1.322,0.838c0.312,0.444,0.435,0.993,0.342,1.527l-7.246,41.563
						C678.619,322.953,677.755,323.654,676.78,323.654z M670.256,318.396l4.858,0.847l6.543-37.534l-4.858-0.847L670.256,318.396z" class="color262262 svgShape"></path><g fill="#000000" class="color000 svgShape"><path fill="#c0e1ed" d="M641.28,270.242l6.42-35.762c1.21-6.737,7.651-11.218,14.389-10.009l48.145,5.049l9.009,1.57
					c6.737,1.21,11.218,7.652,10.008,14.389l-6.42,35.763c-1.21,6.737-7.652,11.218-14.389,10.008l-57.155-6.619
					C644.551,283.421,640.07,276.979,641.28,270.242z" class="colorc0e1ed svgShape"></path><path fill="#c0e1ed" d="M717.71,289.225c-2.866,1.359-5.898,2.629-9.267,2.024l-7.947-1.427
					c-6.737-1.21-11.218-7.652-10.008-14.389l6.42-35.762c1.21-6.737,7.652-11.218,14.389-10.009l7.947,1.427
					c6.737,1.21,11.218,7.652,10.008,14.389l-6.42,35.763C722.831,281.241,721.598,287.382,717.71,289.225z" class="colorc0e1ed svgShape"></path><path fill="#262262" d="M708.445,293.295c-0.079,0-0.158-0.004-0.238-0.014l-57.154-6.619
						c-0.042-0.005-0.084-0.011-0.126-0.019c-7.836-1.407-13.067-8.926-11.66-16.763l6.421-35.762c0.682-3.796,2.8-7.1,5.966-9.302
						c3.145-2.187,6.949-3.03,10.72-2.371l48.074,5.041c1.123,0.118,1.938,1.124,1.82,2.247c-0.118,1.123-1.116,1.93-2.247,1.82
						l-48.145-5.049c-0.049-0.005-0.099-0.012-0.148-0.021c-2.723-0.488-5.469,0.113-7.738,1.69
						c-2.269,1.578-3.788,3.946-4.277,6.667l-6.421,35.762c-1.004,5.597,2.715,10.968,8.298,12.004l57.088,6.611
						c1.122,0.13,1.926,1.145,1.796,2.267C710.353,292.527,709.47,293.295,708.445,293.295z" class="color262262 svgShape"></path><path fill="#262262" d="M725.165 270.302c-.12 0-.242-.011-.364-.033-1.112-.199-1.851-1.262-1.651-2.374l4.09-22.778c.489-2.72-.112-5.469-1.691-7.738-1.578-2.269-3.946-3.788-6.667-4.276l-7.947-1.427c-2.72-.489-5.469.112-7.738 1.69-2.269 1.578-3.788 3.946-4.276 6.667-.2 1.112-1.265 1.851-2.374 1.651-1.111-.199-1.851-1.262-1.651-2.374.681-3.796 2.8-7.099 5.966-9.302 3.167-2.202 7.003-3.039 10.796-2.358l7.947 1.427c3.796.681 7.099 2.8 9.302 5.966 2.202 3.166 3.04 7 2.358 10.796l-4.09 22.778C726.997 269.607 726.136 270.302 725.165 270.302zM710.663 293.494c-.857 0-1.72-.077-2.582-.231l-7.947-1.427c-3.796-.682-7.1-2.801-9.302-5.966-2.202-3.166-3.039-7-2.358-10.796l2.929-16.315c.199-1.112 1.264-1.851 2.374-1.651 1.112.199 1.851 1.262 1.651 2.374l-2.929 16.315c-.488 2.721.112 5.469 1.69 7.738 1.578 2.269 3.946 3.788 6.667 4.277l7.947 1.427c2.72.488 5.469-.112 7.738-1.691.929-.644 2.202-.416 2.847.511.645.927.416 2.202-.511 2.847C716.431 292.606 713.583 293.494 710.663 293.494z" class="color262262 svgShape"></path></g><g fill="#000000" class="color000 svgShape"><path fill="#c0e1ed" d="M560.816,510.064l51.661-201.202c1.938-7.546,9.552-12.783,17.007-11.697l7.191,1.048
					c0.115,0.017,0.223,0.047,0.336,0.067c22.087,3.283,82.568,12.319,88.928,13.245l7.191,1.048
					c7.455,1.086,11.928,8.084,9.99,15.63L691.46,529.404c-1.938,7.546-9.552,12.783-17.007,11.697l-7.191-1.047
					c-7.455-1.086-81.544-11.722-96.456-14.36C563.352,524.608,558.879,517.61,560.816,510.064z" class="colorc0e1ed svgShape"></path><path fill="#262262" d="M667.265,542.099c-0.098,0-0.197-0.007-0.297-0.021l-5.306-0.768
						c-19.304-2.788-78.048-11.274-91.211-13.602c-4.041-0.588-7.522-2.753-9.742-6.087c-2.313-3.474-2.978-7.759-1.872-12.065
						l51.66-201.202c2.187-8.515,10.843-14.442,19.282-13.212l7.191,1.048c0.114,0.017,0.226,0.04,0.337,0.064
						c5.479,0.818,25.134,3.746,44.582,6.644c21.84,3.254,43.417,6.469,44.346,6.604c1.117,0.163,1.891,1.201,1.728,2.319
						c-0.163,1.117-1.198,1.894-2.319,1.728c-0.929-0.135-22.513-3.351-44.358-6.606c-19.447-2.897-39.102-5.826-44.576-6.64
						c-0.132-0.022-0.21-0.039-0.29-0.056l-7.232-1.058c-6.438-0.939-13.049,3.63-14.731,10.183l-51.66,201.202
						c-0.813,3.167-0.346,6.286,1.315,8.781c1.568,2.356,4.051,3.889,6.989,4.317c13.161,2.327,71.857,10.805,91.144,13.591
						l5.311,0.768c1.117,0.163,1.892,1.201,1.729,2.318C669.137,541.366,668.263,542.099,667.265,542.099z" class="color262262 svgShape"></path><path fill="#262262" d="M732.252 372.585c-.169 0-.34-.021-.51-.065-1.094-.281-1.753-1.396-1.472-2.49l10.871-42.338c.813-3.167.346-6.286-1.315-8.781-1.568-2.356-4.051-3.889-6.989-4.317l-7.191-1.047c-6.434-.935-13.049 3.629-14.731 10.182-.281 1.094-1.391 1.754-2.49 1.472-1.094-.281-1.753-1.395-1.472-2.49 2.186-8.515 10.834-14.44 19.282-13.212l7.191 1.047c4.102.598 7.584 2.763 9.804 6.098 2.313 3.474 2.978 7.759 1.872 12.065l-10.871 42.338C733.994 371.972 733.163 372.585 732.252 372.585zM676.399 543.286c-.746 0-1.493-.053-2.241-.161-5.977-.871-11.048-4.022-14.277-8.872-3.372-5.064-4.338-11.321-2.722-17.617l39.436-153.591c.282-1.094 1.398-1.751 2.49-1.472 1.094.281 1.753 1.396 1.472 2.49l-39.436 153.591c-1.324 5.157-.556 10.248 2.164 14.334 2.578 3.871 6.648 6.389 11.462 7.091 6.438.937 13.049-3.629 14.731-10.183l27.666-107.75c.282-1.094 1.4-1.75 2.49-1.472 1.094.281 1.753 1.396 1.472 2.49l-27.666 107.75C691.448 537.675 684.084 543.286 676.399 543.286z" class="color262262 svgShape"></path></g><g fill="#000000" class="color000 svgShape"><path fill="#c0e1ed" d="M676.967,540.707H499.421c-20.383,0-36.907,16.524-36.907,36.907v2.453h228.451v-25.362
					C690.964,546.974,684.698,540.707,676.967,540.707z" class="colorc0e1ed svgShape"></path><path fill="#262262" d="M690.964,582.111h-228.45c-1.129,0-2.045-0.915-2.045-2.045c0-4.842,0.828-9.585,2.463-14.098
						c0.384-1.062,1.561-1.61,2.619-1.226c1.062,0.384,1.611,1.557,1.226,2.619c-1.241,3.428-1.967,7.005-2.164,10.66h224.306
						v-22.387c0-7.103-5.779-12.882-12.882-12.882H501.873c-6.209,0-12.354,1.554-17.773,4.495
						c-0.991,0.539-2.234,0.171-2.772-0.822c-0.539-0.992-0.171-2.234,0.822-2.772c6.015-3.265,12.836-4.991,19.723-4.991h174.163
						c9.359,0,16.972,7.614,16.972,16.972v24.432C693.009,581.195,692.094,582.111,690.964,582.111z" class="color262262 svgShape"></path></g><g fill="#000000" class="color000 svgShape"><path fill="#ffffff" d="M409.012,413.728h119.531v22.051H409.012c-4.967,0-8.993-4.936-8.993-11.025
					C400.019,418.664,404.046,413.728,409.012,413.728z" class="colorfff svgShape"></path><path fill="#c0e1ed" d="M413.575,418.538h86.381v17.24h-86.381c-3.589,0-6.499-3.859-6.499-8.62
					C407.076,422.397,409.986,418.538,413.575,418.538z" class="colorc0e1ed svgShape"></path><path fill="#262262" d="M528.543,437.824h-78.869c-1.129,0-2.045-0.915-2.045-2.045c0-1.129,0.915-2.045,2.045-2.045
						h76.824v-17.961H409.013c-3.832,0-6.949,4.029-6.949,8.98s3.117,8.98,6.949,8.98h8.587c1.129,0,2.045,0.915,2.045,2.045
						c0,1.13-0.915,2.045-2.045,2.045h-8.587c-6.087,0-11.038-5.863-11.038-13.07c0-7.207,4.952-13.07,11.038-13.07h119.53
						c1.129,0,2.045,0.915,2.045,2.045v22.051C530.588,436.908,529.672,437.824,528.543,437.824z" class="color262262 svgShape"></path></g><g fill="#000000" class="color000 svgShape"><path fill="#ffffff" d="M477.824,421.516c-4.023,0.955-11.598,2.429-14.535,1.991
				c-11.639-1.738-22.304,0.495-24.414-2.745c-3.462-5.316,15.505-6.171,15.505-6.171s-33.192-1.588-34.271-3.456
				c-2.156-3.733,3.121-4.075,14.011-5.46c6.419-0.817,35.022-2.175,44.349-2.604L477.824,421.516z" class="colorfff svgShape"></path><path fill="#ea5444" d="M477.824,421.516c-4.023,0.955-11.598,2.429-14.535,1.991
				c-11.639-1.738-22.304,0.495-24.414-2.745c-3.462-5.316,15.505-6.171,15.505-6.171s-24.686-0.131-26.716-0.862
				c-4.726-1.704-3.456-2.083,7.434-3.469c6.419-0.817,34.044-2.244,43.37-2.673L477.824,421.516z" class="colorea5444 svgShape"></path><path fill="#262262" d="M464.568,425.627c-0.59,0-1.124-0.03-1.581-0.098c-4.714-0.704-9.236-0.737-13.224-0.766
					c-6.253-0.045-10.772-0.077-12.601-2.886c-1.179-1.811-0.716-3.326-0.335-4.069c0.411-0.801,1.149-1.482,2.104-2.06
					c-19.306-1.365-20.089-2.719-20.592-3.59c-0.853-1.477-0.982-2.835-0.384-4.038c1.317-2.649,5.424-3.162,13.605-4.185
					l2.303-0.29c6.536-0.831,35.723-2.214,44.513-2.618c0.565-0.027,1.126,0.188,1.531,0.589c0.406,0.401,0.626,0.954,0.606,1.525
					l-0.644,18.445c-0.032,0.92-0.676,1.705-1.572,1.918C477.285,423.745,469.206,425.627,464.568,425.627z M440.542,419.567
					c0.013,0.022,0.028,0.048,0.047,0.078c0.63,0.967,5.585,1.003,9.203,1.029c3.921,0.028,8.799,0.063,13.799,0.81
					c1.982,0.295,7.492-0.563,12.245-1.611l0.512-14.656c-10.643,0.497-36.051,1.734-41.97,2.487l-2.312,0.291
					c-4.23,0.529-8.589,1.073-10.082,1.765c3.731,0.956,18.855,2.137,32.495,2.79c1.091,0.052,1.948,0.952,1.947,2.045
					c-0.002,1.092-0.861,1.991-1.952,2.04C448.067,416.924,441.582,418.303,440.542,419.567z M477.825,421.516h0.01H477.825z" class="color262262 svgShape"></path></g><g fill="#000000" class="color000 svgShape"><path fill="#ffffff" d="M606.637,341.34c-8.353-4.907-19.102-2.11-24.007,6.243
				c-10.385,17.685-27.428,31.229-48.732,39.473c-15.359,5.943-37.104,9.506-55.993,9.506v35.153
				c23.891,0.9,45.842-3.853,64.042-10.255c30.749-10.816,55.707-30.182,70.934-56.113
				C617.786,356.993,614.991,346.245,606.637,341.34z" class="colorfff svgShape"></path><path fill="#ffcac0" d="M606.637,341.34c-8.353-4.907-19.588,7.277-24.492,15.631
				c-10.385,17.685-24.677,27.839-45.981,36.083c-15.359,5.943-39.56,10.017-58.449,10.017l0.189,28.644
				c23.891,0.9,45.842-3.853,64.042-10.255c30.749-10.816,55.707-30.182,70.934-56.113
				C617.786,356.993,614.991,346.245,606.637,341.34z" class="colorffcac0 svgShape"></path><path fill="#262262" d="M483.759,433.869c-1.983,0-3.959-0.037-5.932-0.111c-1.099-0.041-1.968-0.944-1.968-2.043
					v-35.153c0-1.129,0.915-2.045,2.045-2.045c19.151,0,40.323-3.589,55.255-9.367c21.198-8.203,37.695-21.551,47.707-38.602
					c2.648-4.511,6.896-7.721,11.958-9.038c5.061-1.317,10.335-0.584,14.847,2.067h0c9.313,5.468,12.44,17.493,6.971,26.805
					c-15.335,26.116-40.239,45.828-72.019,57.006C522.831,430.351,503.056,433.868,483.759,433.869z M479.949,429.732
					c20.036,0.496,40.654-2.933,61.319-10.202c30.856-10.854,55.009-29.948,69.849-55.219c4.326-7.368,1.852-16.881-5.516-21.208
					c-0.001,0-0.001,0-0.001,0c-3.569-2.096-7.739-2.678-11.746-1.635c-4.006,1.042-7.366,3.582-9.461,7.151
					c-10.485,17.854-27.691,31.805-49.759,40.344c-14.839,5.742-35.612,9.385-54.686,9.63V429.732z" class="color262262 svgShape"></path></g><g fill="#000000" class="color000 svgShape"><path fill="#ffffff" d="M580.519,520.618l-8.318-48.71c-0.113-0.663-0.711-1.131-1.382-1.082
				c0,0-173.144,12.724-173.191,12.733c-7.593,0.624-13.887,5.832-16.085,12.861l-0.001-0.001l-67.526,169.826l32.747,12.354
				l67.37-156.632l165.099,0.174C580.04,522.143,580.655,521.415,580.519,520.618z" class="colorfff svgShape"></path><path fill="#ea5444" d="M580.519,520.618l-8.318-48.71c-0.113-0.663-0.711-1.131-1.382-1.082
				c0,0-173.144,12.724-173.191,12.733c-7.593,0.624-9.057,15.802-9.057,15.802l-67.526,169.826l25.717,9.413l67.37-156.632
				l165.099,0.174C580.04,522.143,580.655,521.415,580.519,520.618z" class="colorea5444 svgShape"></path><path fill="#262262" d="M346.762,680.646c-0.24,0-0.484-0.043-0.721-0.132l-32.746-12.354
					c-0.513-0.194-0.927-0.585-1.149-1.087c-0.222-0.502-0.232-1.072-0.03-1.581l67.525-169.826l3.801,1.512l-66.757,167.891
					l30.799,11.62c1.056,0.398,1.59,1.578,1.191,2.635C348.367,680.141,347.588,680.646,346.762,680.646z" class="color262262 svgShape"></path><path fill="#262262" d="M352.978,665.907l-52.529-8.337c-8.028-2.694-16.72,1.63-19.414,9.658l-1.235,3.679l46.14,15.484
				c5.662-2.817,8.837-4.396,14.5-7.213l-3.643,10.856l15.897,5.335l6.019-17.936C360.312,672.667,357.745,667.506,352.978,665.907z
				" class="color262262 svgShape"></path></g><g fill="#000000" class="color000 svgShape"><path fill="#ffffff" d="M611.146,539.112l-8.318-48.709c-0.113-0.663-0.711-1.131-1.382-1.082
				c0,0-173.144,12.724-173.191,12.733c-7.593,0.624-13.887,5.832-16.085,12.861l-0.001-0.001L344.643,684.74l32.747,12.354
				l67.37-156.632l165.099,0.174C610.668,540.638,611.283,539.91,611.146,539.112z" class="colorfff svgShape"></path><path fill="#ea5444" d="M611.146,539.112l-8.318-48.709c-0.113-0.663-0.711-1.131-1.382-1.082
				c0,0-173.144,12.724-173.191,12.733c-7.593,0.624-8.112,12.718-8.112,12.718l-67.526,169.826l24.773,12.497l67.37-156.632
				l165.099,0.174C610.668,540.638,611.283,539.91,611.146,539.112z" class="colorea5444 svgShape"></path><path fill="#262262" d="M377.389,699.14c-0.24,0-0.484-0.043-0.721-0.132l-32.746-12.354
					c-0.513-0.194-0.927-0.585-1.149-1.087c-0.222-0.502-0.232-1.072-0.03-1.581l67.498-169.757
					c2.522-7.953,9.518-13.529,17.846-14.213l0.001,0.008c1.614-0.132,16.915-1.256,173.208-12.742
					c1.742-0.131,3.255,1.065,3.548,2.776l8.318,48.711c0.167,0.975-0.104,1.968-0.742,2.724c-0.638,0.756-1.571,1.189-2.56,1.189
					c-0.001,0-0.002,0-0.003,0l-163.751-0.172l-28.772,66.894c-0.446,1.037-1.648,1.517-2.686,1.07
					c-1.037-0.446-1.516-1.649-1.07-2.686l29.304-68.132c0.323-0.75,1.061-1.237,1.878-1.237c0.001,0,0.001,0,0.002,0l164.221,0.173
					l-8.057-47.182c-11.764,0.864-171.143,12.577-172.502,12.682c-0.001,0-0.001,0-0.001,0c-6.687,0.549-12.301,5.038-14.301,11.434
					c-0.016,0.049-0.032,0.097-0.051,0.145l-66.757,167.891l28.971,10.93l15.124-35.161c0.446-1.037,1.649-1.516,2.686-1.07
					c1.037,0.446,1.516,1.649,1.07,2.687l-15.895,36.956C378.936,698.674,378.184,699.14,377.389,699.14z" class="color262262 svgShape"></path><path fill="#262262" d="M383.606,684.401l-52.529-8.337c-8.028-2.694-16.72,1.63-19.414,9.658l-1.235,3.679l46.14,15.484
				c5.662-2.817,8.837-4.396,14.5-7.213l-3.643,10.856l15.897,5.335l6.019-17.936C390.94,691.161,388.372,686,383.606,684.401z" class="color262262 svgShape"></path></g><g fill="#000000" class="color000 svgShape"><path fill="#ffffff" d="M680.102,339.142c-3.318-2.345-26.118-11.752-38.937-14.28
				c-20.91-4.124-29.528-4.163-32.326-2.522c-16.614,9.74-31.024,24.62-35.713,33.802c-11.614,22.742,11.284,70.032,11.284,70.032
				l0,0c-12.954,25.026-37.971,41.531-66.075,43.595l-118.25,8.682c-12.786,0.939-24.721,6.76-33.332,16.257l-22.109,24.384
				c0,0,18.862,35.907,93.032,60.973c0,0,11.276-39.558,38.469-39.558l138.433,0.199l-0.004-0.137
				c7.809,0.203,15.705-2.474,21.95-8.133c4.49-4.069,7.523-9.14,9.088-14.563c0.274-0.206,0.549-0.413,0.826-0.62l13.114-91.079
				C659.553,426.175,687.091,344.083,680.102,339.142z" class="colorfff svgShape"></path><path fill="#ffcac0" d="M680.102,339.142c-3.318-2.345-26.118-11.752-38.937-14.28
				c-20.91-4.124-23.069-3.105-25.867-1.465c-16.614,9.74-30.845,25.518-35.534,34.701c-11.614,22.742,12.905,71.957,12.905,71.957
				c-12.954,25.026-40.01,43.415-68.114,45.478l-121.571,10.108c-12.786,0.939-21.399,5.334-30.011,14.832l-23.641,25.36
				c0,0,18.488,29.343,88.345,54.234c0,0,11.276-39.558,38.469-39.558l138.433,0.199l-0.004-0.137
				c7.809,0.203,15.705-2.474,21.95-8.133c4.49-4.069,7.523-9.14,9.088-14.563c0.274-0.206,0.549-0.413,0.826-0.62l16.122-90.096
				C662.561,427.158,687.091,344.083,680.102,339.142z" class="colorffcac0 svgShape"></path><path fill="#262262" d="M437.674,582.111c-0.22,0-0.441-0.036-0.654-0.108c-74.094-25.04-93.402-60.463-94.188-61.959
					c-0.399-0.76-0.282-1.688,0.295-2.324l22.109-24.384c9.004-9.931,21.327-15.942,34.697-16.923l118.25-8.682
					c26.86-1.973,51.266-17.881,63.94-41.603c-3.273-7.015-21.977-49.065-10.819-70.914c4.678-9.16,19.06-24.412,36.5-34.637
					c2.602-1.525,8.789-2.644,33.756,2.28c13.278,2.619,36.198,12.126,39.721,14.616l0,0c1.924,1.361,5.506,3.892-5.344,48.019
					c-5.015,20.396-10.897,40.48-11.384,42.137l-16.102,89.986c-0.092,0.512-0.375,0.971-0.794,1.281l-0.28,0.21
					c-1.775,5.704-5.043,10.825-9.48,14.845c-6.193,5.612-14.15,8.673-22.491,8.674c-0.04,0-0.079,0-0.119,0
					c-0.226,0.084-0.44,0.121-0.712,0.127l-138.434-0.199c-25.319,0-36.391,37.694-36.5,38.075
					c-0.154,0.537-0.521,0.989-1.016,1.249C438.33,582.032,438.003,582.111,437.674,582.111z M347.178,519.341
					c4.042,6.324,25.913,36.272,89.181,58.114c1.17-3.469,3.947-10.821,8.623-18.257c8.529-13.565,19.305-20.735,31.163-20.735
					l137.695,0.198c0.248-0.096,0.522-0.136,0.787-0.136c7.593,0.186,14.894-2.503,20.524-7.604
					c4.046-3.666,6.984-8.374,8.497-13.614c0.123-0.426,0.381-0.8,0.735-1.066l0.185-0.138l15.98-89.304
					c0.013-0.074,0.031-0.147,0.052-0.219c13.042-44.171,21.036-81.778,18.252-85.815c-3.031-2.04-25.311-11.376-38.082-13.895
					c-23.185-4.573-29.31-3.694-30.896-2.764c-16.162,9.475-30.45,24.203-34.926,32.968c-11.023,21.587,11.078,67.747,11.303,68.211
					c0.281,0.58,0.272,1.259-0.024,1.831c-13.183,25.468-39.14,42.594-67.742,44.694l-118.25,8.682
					c-12.318,0.905-23.671,6.442-31.967,15.592L347.178,519.341z M678.921,340.812h0.011H678.921z M678.919,340.81
					c0.001,0.001,0.002,0.001,0.003,0.002l0,0C678.92,340.811,678.92,340.811,678.919,340.81z M678.823,340.724L678.823,340.724
					L678.823,340.724z" class="color262262 svgShape"></path></g><g fill="#000000" class="color000 svgShape"><path fill="#24325b" d="M652.36,308.03c0,0,22.415-21.246,30.292-41.228c7.625-19.343-28.667-48.202-40.485-34.958
				C630.348,245.087,652.36,308.03,652.36,308.03z" class="color24325b svgShape"></path><path fill="#262262" d="M652.36,310.075c-0.16,0-0.322-0.019-0.482-0.058c-0.674-0.163-1.219-0.657-1.449-1.312
					c-0.055-0.158-5.586-16.041-9.59-33.341c-5.501-23.765-5.568-38.866-0.198-44.883c5.138-5.757,14.373-5.394,24.704,0.97
					c13.226,8.146,24.027,23.877,19.208,36.1c-7.952,20.172-29.859,41.082-30.787,41.962
					C653.383,309.879,652.877,310.075,652.36,310.075z M650.312,230.533c-2.598,0-4.926,0.774-6.62,2.673
					c-8.539,9.569,3.164,51.942,9.547,71.072c5.857-5.951,21.36-22.624,27.51-38.225c3.979-10.094-6.011-24.012-17.549-31.119
					C659.181,232.459,654.411,230.533,650.312,230.533z" class="color262262 svgShape"></path><path fill="#ffffff" d="M627.647,294.529l-3.344,29.129c-16.099,6.017-37.161,30.217-22.847,37.381
						c17.93,8.972,42.845-7.362,47.744-28.186l5.56-43.684L627.647,294.529z" class="colorfff svgShape"></path><path fill="#ea5444" d="M633.328,296.818l-3.344,29.129c-16.1,6.017-37.393,30.022-28.527,35.091
						c17.405,9.952,42.845-7.362,47.744-28.186l5.56-43.684L633.328,296.818z" class="colorea5444 svgShape"></path><path fill="#ffffff" d="M660.769,274.613c-0.852-0.329-1.745-0.441-2.641-0.382c0.175-3.004,0.189-5.851,0.025-8.516
						c0.002-2.337-0.211-4.754-0.669-7.208c-2.761-14.793-14.571-23.954-24.688-22.013c-4.858,0.932-8.45,5.951-10.369,9.443
						c-4.514,8.215-9.298,18.02-12.316,32.469c-3.017,14.449,0.61,21.444,6.694,25.484c3.823,2.538,10.161,3.074,16.925,2.431
						c8.564-0.814,15.896-5.696,20.023-12.768c3.935,1.307,8.624-1.633,10.591-6.72
						C666.359,281.627,664.758,276.156,660.769,274.613z" class="colorfff svgShape"></path><path fill="#ea5444" d="M660.769,274.613c-0.852-0.329-1.745-0.441-2.641-0.382c0.175-3.004,0.189-5.851,0.025-8.516
						c0.002-2.337-0.211-4.754-0.669-7.208c-2.761-14.793-8.259-22.566-18.376-20.626c-4.859,0.932-8.037,5.303-9.955,8.794
						c-4.514,8.215-11.166,20.333-14.184,34.782c-3.017,14.449-2.411,19.216,1.836,22.432c3.659,2.77,10.161,3.074,16.925,2.431
						c8.564-0.814,15.896-5.696,20.023-12.768c3.935,1.307,8.624-1.633,10.591-6.72
						C666.359,281.627,664.758,276.156,660.769,274.613z" class="colorea5444 svgShape"></path><path fill="#262262" d="M612.419,365.609c-4.202,0-8.22-0.912-11.877-2.743c-4.072-2.038-6.101-5.442-5.867-9.844
							c0.58-10.901,15.43-25.653,27.737-30.813l1.831-15.947c0.129-1.122,1.145-1.934,2.265-1.798
							c1.122,0.129,1.927,1.143,1.798,2.265l-1.971,17.163c-0.087,0.763-0.596,1.413-1.315,1.682
							c-12.055,4.505-25.798,18.985-26.26,27.667c-0.147,2.766,1.001,4.663,3.612,5.97c6.638,3.322,14.794,3.046,22.963-0.779
							c10.716-5.017,19.283-15.192,21.852-25.945l4.881-38.35c0.143-1.12,1.164-1.909,2.287-1.771
							c1.12,0.143,1.913,1.167,1.771,2.287l-4.895,38.458c-0.009,0.071-0.022,0.141-0.038,0.21
							c-2.815,11.962-12.283,23.272-24.123,28.815C622.126,364.448,617.156,365.609,612.419,365.609z" class="color262262 svgShape"></path><path fill="#262262" d="M628.789,308.611c-4.612,0-9.594-0.681-13.114-3.018c-7.986-5.303-10.39-14.074-7.565-27.605
							c3.032-14.517,7.812-24.457,12.526-33.036c1.883-3.426,5.917-9.342,11.776-10.466c4.772-0.915,9.956,0.321,14.593,3.484
							c6.354,4.332,10.907,11.682,12.49,20.163c0.465,2.493,0.702,5.023,0.703,7.521c0.162,2.673,0.153,5.599-0.029,8.698
							c-0.066,1.128-1.044,1.987-2.161,1.922c-1.127-0.066-1.988-1.033-1.922-2.16c0.173-2.96,0.181-5.743,0.025-8.271
							c-0.003-0.043-0.004-0.085-0.004-0.128c0.002-2.267-0.211-4.566-0.634-6.832c-1.385-7.419-5.311-13.809-10.773-17.533
							c-3.733-2.545-7.823-3.554-11.519-2.846c-4.217,0.809-7.425,5.622-8.962,8.419c-4.561,8.301-9.185,17.911-12.107,31.903
							c-1.665,7.971-2.507,17.83,5.823,23.362c3.044,2.02,8.583,2.766,15.601,2.099c2.543-0.242,7.68-1.658,10.708-3.688
							c0.94-0.63,2.209-0.378,2.837,0.56c0.629,0.938,0.378,2.208-0.56,2.837c-3.444,2.308-9.11,4.03-12.599,4.362
							C632.343,308.507,630.595,308.611,628.789,308.611z" class="color262262 svgShape"></path><path fill="#d9ab39" d="M652.448,316.509c-1.239,0-2.497-0.158-3.75-0.489c-7.833-2.07-12.521-10.126-10.452-17.958
							c1.895-7.174,8.867-11.818,16.199-10.805c1.119,0.155,1.901,1.187,1.746,2.305c-0.155,1.119-1.187,1.9-2.305,1.746
							c-5.296-0.735-10.318,2.621-11.685,7.798c-0.724,2.738-0.337,5.594,1.087,8.042c1.425,2.447,3.717,4.194,6.455,4.917
							c5.653,1.495,11.466-1.89,12.959-7.542c1.016-3.848-0.185-7.899-3.137-10.574c-0.837-0.758-0.9-2.052-0.142-2.888
							c0.758-0.837,2.051-0.901,2.888-0.142c4.088,3.704,5.753,9.318,4.345,14.649C664.917,312.148,658.953,316.509,652.448,316.509
							z" class="colord9ab39 svgShape"></path><path fill="#262262" d="M655.69,295.909c-0.869,0-1.735-0.134-2.58-0.415c-1.072-0.356-1.652-1.514-1.296-2.585
							c0.357-1.073,1.515-1.651,2.585-1.296c2.886,0.957,6.492-1.516,8.04-5.517c1.576-4.076,0.474-8.461-2.407-9.575
							c-0.537-0.208-1.13-0.292-1.765-0.248c-1.126,0.079-2.102-0.775-2.178-1.903c-0.076-1.127,0.776-2.102,1.903-2.178
							c1.233-0.084,2.416,0.09,3.514,0.514c5.035,1.948,7.164,8.615,4.748,14.865C664.29,292.647,659.969,295.909,655.69,295.909z" class="color262262 svgShape"></path><path fill="#ffffff" d="M613.179,281.458c0,0-2.738,7.637,3.292,11.368c7.799,4.825,15.179-3.029,15.179-3.029
						S616.716,290.201,613.179,281.458z" class="colorfff svgShape"></path><g fill="#000000" class="color000 svgShape"><path fill="#262262" d="M647.874 268.848c-.713 0-1.406-.374-1.782-1.039-3.986-7.052-10.338-9.723-10.401-9.749-1.042-.428-1.545-1.62-1.121-2.663.425-1.044 1.611-1.549 2.656-1.127.312.126 7.71 3.182 12.427 11.528.556.983.209 2.231-.774 2.786C648.561 268.762 648.215 268.848 647.874 268.848zM627.797 254.174c-.295 0-.593-.064-.877-.198-.031-.015-3.141-1.483-5.534-1.776-1.121-.137-1.918-1.157-1.781-2.278.137-1.121 1.156-1.919 2.278-1.781 3.061.375 6.645 2.071 6.796 2.143 1.019.486 1.451 1.705.966 2.724C629.294 253.743 628.561 254.174 627.797 254.174zM624.246 263.717c-1.178 2.211-3.504 3.272-5.195 2.371-1.691-.901-2.107-3.424-.929-5.635 1.178-2.211 3.504-3.272 5.195-2.371C625.009 258.983 625.424 261.506 624.246 263.717zM637.466 271.829c-1.237 2.32-3.678 3.434-5.453 2.488-1.775-.946-2.211-3.594-.975-5.914s3.678-3.434 5.453-2.488C638.266 266.862 638.703 269.509 637.466 271.829z" class="color262262 svgShape"></path></g><g fill="#000000" class="color000 svgShape"><path fill="#ffffff" d="M682.511,254.501c0,0,11.369-18.852-24.416-33.322c-19.416-7.851-35.656-0.107-47.452,0.251
					c0,0,3.985,8.912,17.155,17.62c23.315,15.416,35.174,19.659,45.331,18.969C683.288,257.33,682.511,254.501,682.511,254.501z" class="colorfff svgShape"></path><path fill="#24325b" d="M682.511,254.501c0,0,15.227-13.861-20.558-28.331c-19.416-7.851-30.175-1.611-41.971-1.253
					c0,0,4.371,7.494,17.541,16.202c23.315,15.416,25.449,17.589,35.607,16.899C683.288,257.33,682.511,254.501,682.511,254.501z" class="color24325b svgShape"></path><path fill="#262262" d="M671.155,260.131c-10.884,0-23.671-5.613-44.484-19.375
						c-13.511-8.934-17.721-18.106-17.894-18.492c-0.279-0.623-0.228-1.343,0.134-1.921c0.362-0.578,0.989-0.937,1.67-0.958
						c3.233-0.098,6.974-0.809,10.934-1.561c10.229-1.943,22.957-4.359,37.347,1.458c14.628,5.915,23.517,13.327,26.419,22.028
						c2.252,6.751,0.081,12.081-0.739,13.726c-0.058,0.445-0.228,0.98-0.624,1.539c-1.386,1.951-4.869,3.091-10.649,3.483
						C672.571,260.107,671.867,260.131,671.155,260.131z M614.065,223.214c2.12,3.148,6.632,8.689,14.862,14.13
						c24.616,16.277,35.422,19.223,44.065,18.635c5.458-0.37,7.09-1.351,7.484-1.67c0.029-0.299,0.123-0.592,0.28-0.856
						c0.133-0.229,2.712-4.78,0.614-10.942c-2.509-7.37-10.822-14.091-24.04-19.436c-13.273-5.367-24.842-3.171-35.051-1.232
						C619.418,222.386,616.668,222.909,614.065,223.214z M680.54,255.042h0.011H680.54z" class="color262262 svgShape"></path></g></g><g fill="#000000" class="color000 svgShape"><path fill="#ffffff" d="M632.095,390.598c-9.604,7.931-21.009,14.185-32.82,18.846
					c-14.63,5.774-51.856,8.583-71.147,10.987c-2.932-1.336-8.261-3.271-9.433-3.505c-3.199-0.639-13.049-0.361-17.351-0.66
					c-1.494-0.104-4.252-0.013-4.022,2.181c0.275,2.632,8.415,5.085,16.745,7.098l-14.43,4.74c0,0-10.623-0.563-18.057-0.732
					c-3.676-0.083-5.896,3.024-1.2,5.513c5.042,2.673,17.123,5.738,20.245,6.142c3.122,0.404,29.967,0.474,29.967,0.474l0.027-0.052
					c10.483,0.078,24.777,0.098,30.051-0.152c8.115-0.386,30.597-2.632,38.511-4.486c9.122-2.138,17.89-4.119,26.222-8.386
					c9.909-5.074,19.852-10.765,28.692-17.537L632.095,390.598z" class="colorfff svgShape"></path><path fill="#ea5444" d="M634.926,395.678c-9.604,7.931-22.292,15.047-34.104,19.708
					c-14.63,5.774-52.923,9.367-72.279,10.254c-2.932-1.336-9.123-4.288-10.295-4.522c-3.199-0.639-10.481-0.452-14.784-0.752
					c-1.494-0.104,3.491,3.667,11.821,5.68l-13.992,8.52c0,0-12.111-0.499-19.545-0.668c-3.676-0.083-6.063-1.32-1.367,1.169
					c5.042,2.673,17.123,5.738,20.245,6.142c3.122,0.404,29.967,0.474,29.967,0.474l0.027-0.052
					c10.483,0.078,24.777,0.098,30.051-0.152c8.115-0.386,30.597-2.632,38.511-4.486c9.122-2.138,17.89-4.119,26.222-8.386
					c9.909-5.074,19.852-10.765,28.692-17.537L634.926,395.678z" class="colorea5444 svgShape"></path><path fill="#262262" d="M544.053,443.727c-5.312,0-10.363-0.03-13.035-0.049c-0.141,0.032-0.268,0.059-0.431,0.049
						c-2.761-0.007-27.066-0.082-30.225-0.491c-3.428-0.444-15.769-3.622-20.94-6.363c-4.084-2.165-3.899-4.801-3.63-5.834
						c0.568-2.178,2.904-3.61,5.834-3.53c6.585,0.149,15.76,0.612,17.734,0.713l7.494-2.461c-8.025-2.344-11.287-4.424-11.568-7.101
						c-0.157-1.5,0.451-2.477,0.988-3.033c1.059-1.097,2.817-1.574,5.21-1.401c1.628,0.113,4.124,0.141,6.766,0.171
						c4.283,0.048,8.712,0.098,10.843,0.524c1.377,0.274,6.367,2.103,9.347,3.411c4.148-0.51,9.116-1.043,14.362-1.606
						c19.855-2.13,44.564-4.781,55.719-9.184c12.508-4.936,23.365-11.168,32.269-18.521c0.791-0.654,1.944-0.619,2.695,0.08
						l22,20.47c0.441,0.41,0.679,0.993,0.649,1.595c-0.029,0.601-0.321,1.159-0.799,1.525c-6.543,5.012-14.283,9.897-23.663,14.935
						c-0.994,0.533-2.234,0.161-2.769-0.834c-0.534-0.995-0.161-2.234,0.834-2.769c8.269-4.441,15.222-8.749,21.172-13.123
						l-18.91-17.595c-8.964,7.135-19.713,13.2-31.977,18.041c-11.67,4.606-36.685,7.29-56.785,9.447
						c-5.47,0.587-10.636,1.141-14.859,1.667c-0.377,0.047-0.757-0.012-1.101-0.169c-2.982-1.359-8.107-3.185-8.985-3.36
						c-1.759-0.351-6.184-0.401-10.089-0.445c-2.704-0.031-5.258-0.059-7.005-0.181c-0.772-0.054-1.303-0.002-1.629,0.066
						c0.824,0.761,3.857,2.5,14.975,5.186c0.888,0.215,1.526,0.992,1.563,1.905c0.036,0.913-0.537,1.74-1.405,2.025l-14.43,4.74
						c-0.24,0.079-0.489,0.114-0.746,0.099c-0.106-0.005-10.678-0.562-17.995-0.729c-0.97-0.02-1.545,0.278-1.739,0.449
						c0.121,0.211,0.534,0.677,1.542,1.212c4.71,2.497,16.425,5.517,19.55,5.921c2.169,0.281,18.549,0.425,29.3,0.456
						c0.146-0.034,0.298-0.056,0.448-0.051c11.207,0.083,24.953,0.088,29.939-0.15c8.147-0.387,30.461-2.635,38.142-4.434
						l0.872-0.205c2.711-0.635,5.272-1.235,7.849-1.9c1.091-0.282,2.208,0.375,2.491,1.469c0.283,1.094-0.375,2.209-1.469,2.491
						c-2.622,0.678-5.325,1.31-7.939,1.923l-0.872,0.204c-8.174,1.915-30.715,4.15-38.881,4.538
						C557.352,443.683,550.51,443.727,544.053,443.727z M499.311,418.061L499.311,418.061L499.311,418.061z" class="color262262 svgShape"></path><path fill="#ffffff" d="M673.739,336.41c-9.63-1.046-17.195,7.247-19.339,15.535c-2.068,7.993-5.639,17.939-15.963,28.911
				c-2.097,2.229-4.359,4.351-6.781,6.364l22.44,26.959c3.456-2.883,6.719-5.941,9.787-9.174
				c21.984-23.165,25.108-46.655,25.392-49.257C690.324,346.119,683.369,337.46,673.739,336.41z" class="colorfff svgShape"></path><path fill="#ffcac0" d="M675.957,337.676c-9.63-1.046-15.365,10.394-17.509,18.682
				c-2.068,7.993-5.639,17.939-15.963,28.911c-2.097,2.229-4.359,4.351-6.781,6.364l18.391,22.546
				c3.456-2.883,6.719-5.941,9.787-9.174c21.984-23.165,25.108-46.655,25.392-49.257
				C690.324,346.119,685.587,338.726,675.957,337.676z" class="colorffcac0 svgShape"></path><path fill="#262262" d="M654.096,416.224c-0.062,0-0.123-0.003-0.185-0.008c-0.54-0.049-1.039-0.311-1.386-0.729
					l-22.44-26.959c-0.347-0.417-0.515-0.955-0.465-1.495c0.05-0.54,0.312-1.039,0.729-1.386c2.354-1.957,4.575-4.04,6.599-6.193
					c9.995-10.623,13.431-20.127,15.473-28.022c2.366-9.145,10.724-18.231,21.539-17.055c10.736,1.171,18.518,10.858,17.347,21.593
					c-0.123,1.123-1.14,1.935-2.255,1.811c-1.123-0.122-1.934-1.132-1.811-2.255c0.926-8.494-5.23-16.158-13.724-17.084
					c-6.372-0.691-14.543,3.984-17.137,14.014c-2.173,8.398-5.826,18.505-16.455,29.801c-1.686,1.792-3.498,3.537-5.406,5.207
					l19.826,23.819c2.817-2.438,5.519-5.016,8.053-7.685c4.276-4.505,8.123-9.348,11.434-14.395c0.62-0.945,1.886-1.208,2.832-0.587
					c0.944,0.62,1.207,1.887,0.587,2.832c-3.445,5.249-7.444,10.284-11.887,14.965c-3.106,3.273-6.458,6.414-9.959,9.336
					C655.036,416.057,654.573,416.224,654.096,416.224z" class="color262262 svgShape"></path><path fill="#ffffff" d="M660.011 409.576l-22.756-27.733c-1.703-2.076-4.767-2.378-6.843-.675l-.452.371c-2.076 1.703-2.378 4.767-.675 6.843l22.756 27.733c1.703 2.076 4.767 2.378 6.843.675l.453-.371C661.413 414.716 661.715 411.652 660.011 409.576zM629.279 388.387c-1.703-2.076-4.767-2.378-6.843-.675l-.452.371c-2.076 1.703-2.378 4.767-.675 6.843l22.756 27.733c1.703 2.076 4.767 2.378 6.843.675l.452-.371c2.076-1.703 2.378-4.767.675-6.843L629.279 388.387z" class="colorfff svgShape"></path><path fill="#ffcac0" d="M658.429 417.164l1.364-1.119c1.824-1.497 2.09-4.189.593-6.013l-19.791-24.12c-1.497-1.824-4.189-2.089-6.013-.593l-1.364 1.119c-1.824 1.497-2.09 4.189-.593 6.013l19.791 24.12C653.912 418.396 656.604 418.661 658.429 417.164zM650.452 423.709l1.364-1.119c1.824-1.497 2.09-4.189.593-6.013l-19.791-24.12c-1.497-1.824-4.189-2.09-6.013-.593l-1.364 1.119c-1.824 1.497-2.09 4.189-.593 6.013l19.791 24.12C645.936 424.94 648.628 425.206 650.452 423.709z" class="colorffcac0 svgShape"></path><g fill="#000000" class="color000 svgShape"><path fill="#262262" d="M655.807,419.936c-1.999,0-3.982-0.861-5.346-2.523c-0.716-0.873-0.589-2.161,0.284-2.878
					c0.873-0.715,2.161-0.589,2.878,0.284c0.985,1.201,2.765,1.376,3.965,0.391l0.453-0.371c1.201-0.985,1.376-2.764,0.391-3.965
					l-8.692-10.594c-0.716-0.873-0.589-2.161,0.284-2.878c0.872-0.715,2.161-0.589,2.878,0.284l8.692,10.594
					c2.416,2.944,1.986,7.305-0.958,9.721l-0.453,0.371C658.9,419.423,657.349,419.936,655.807,419.936z" class="color262262 svgShape"></path></g><g fill="#000000" class="color000 svgShape"><path fill="#262262" d="M629.287,390.427c-0.591,0-1.177-0.255-1.582-0.748c-1.17-1.426-1.715-3.223-1.534-5.059
					c0.181-1.836,1.067-3.492,2.493-4.662l0.453-0.371c2.944-2.415,7.304-1.986,9.721,0.959l3.925,4.783
					c0.716,0.873,0.589,2.162-0.284,2.878c-0.872,0.716-2.161,0.59-2.878-0.284l-3.925-4.783c-0.985-1.201-2.764-1.377-3.965-0.391
					l-0.453,0.371c-0.582,0.477-0.943,1.152-1.017,1.902c-0.074,0.749,0.148,1.481,0.626,2.063c0.716,0.873,0.589,2.162-0.284,2.878
					C630.202,390.275,629.743,390.427,629.287,390.427z" class="color262262 svgShape"></path></g><g fill="#000000" class="color000 svgShape"><path fill="#262262" d="M647.837,426.484c-0.229,0-0.459-0.011-0.69-0.034c-1.836-0.181-3.492-1.066-4.662-2.493
					l-22.756-27.733c-2.416-2.944-1.985-7.305,0.959-9.721l0.452-0.371c1.426-1.171,3.224-1.712,5.059-1.535
					c1.836,0.181,3.492,1.066,4.662,2.493l12.639,15.403c0.716,0.873,0.589,2.162-0.284,2.878c-0.871,0.716-2.161,0.589-2.878-0.284
					l-12.639-15.403c-0.478-0.582-1.152-0.943-1.901-1.017c-0.749-0.069-1.482,0.148-2.064,0.626l-0.452,0.371
					c-1.201,0.985-1.376,2.764-0.391,3.965l22.756,27.733c0.477,0.582,1.153,0.943,1.902,1.017c0.745,0.074,1.481-0.148,2.064-0.626
					l0.451-0.37c0.583-0.479,0.944-1.153,1.018-1.903c0.074-0.749-0.148-1.481-0.626-2.063c-0.716-0.873-0.589-2.161,0.284-2.878
					c0.873-0.715,2.162-0.589,2.878,0.284c1.17,1.426,1.715,3.223,1.534,5.059c-0.181,1.836-1.066,3.492-2.493,4.662l-0.451,0.37
					C650.959,425.939,649.429,426.484,647.837,426.484z" class="color262262 svgShape"></path></g></g><g fill="#000000" class="color000 svgShape"><path fill="#c8d4de" d="M690.964,586.581c3.598,0,6.515-2.917,6.515-6.515c0-75.056-62.806-136.119-140.005-136.119
				c-3.598,0-6.515,2.917-6.515,6.515c0,3.598,2.917,6.515,6.515,6.515c70.014,0,126.975,55.218,126.975,123.089
				C684.449,583.664,687.366,586.581,690.964,586.581z" class="colorc8d4de svgShape"></path><path fill="#262262" d="M690.964,588.626c-4.72,0-8.56-3.84-8.56-8.56c0-66.744-56.043-121.044-124.93-121.044
					c-4.72,0-8.56-3.84-8.56-8.56c0-4.72,3.84-8.56,8.56-8.56c78.326,0,142.049,61.98,142.049,138.164
					C699.524,584.786,695.684,588.626,690.964,588.626z M557.475,445.992c-2.465,0-4.47,2.005-4.47,4.47
					c0,2.465,2.005,4.47,4.47,4.47c71.142,0,129.02,56.135,129.02,125.134c0,2.465,2.005,4.47,4.47,4.47s4.47-2.005,4.47-4.47
					C695.434,506.138,633.546,445.992,557.475,445.992z" class="color262262 svgShape"></path><path fill="#ffffff" d="M716.156,441.47H477.782c-5.157,0-9.337,4.18-9.337,9.337v3.377c0,5.157,4.18,9.337,9.337,9.337
				h238.374c5.157,0,9.337-4.18,9.337-9.337v-3.377C725.493,445.65,721.313,441.47,716.156,441.47z" class="colorfff svgShape"></path><path fill="#c0e1ed" d="M718.818,447.094H482.826c-3.686,0-6.675,2.988-6.675,6.675v3.077
				c0,3.686,2.988,6.675,6.675,6.675h235.992c3.686,0,6.675-2.988,6.675-6.675v-3.077
				C725.493,450.082,722.505,447.094,718.818,447.094z" class="colorc0e1ed svgShape"></path><path fill="#262262" d="M715.536,465.565H530.548c-1.129,0-2.045-0.915-2.045-2.045c0-1.13,0.916-2.045,2.045-2.045
					h184.988c4.363,0,7.912-3.55,7.912-7.913v-2.135c0-4.363-3.549-7.912-7.912-7.912H478.403c-4.363,0-7.913,3.549-7.913,7.912
					v2.135c0,4.363,3.549,7.913,7.913,7.913h19.047c1.129,0,2.045,0.915,2.045,2.045c0,1.129-0.915,2.045-2.045,2.045h-19.047
					c-6.618,0-12.002-5.384-12.002-12.003v-2.135c0-6.618,5.384-12.002,12.002-12.002h237.133c6.618,0,12.002,5.384,12.002,12.002
					v2.135C727.538,460.181,722.154,465.565,715.536,465.565z" class="color262262 svgShape"></path></g><g fill="#000000" class="color000 svgShape"><path fill="#262262" d="M706.311,530.545c-39.931,0.001-76.843-11.931-98.186-32.136
					c-11.659-11.037-17.822-23.686-17.822-36.578c0-3.307-0.06-6.363-0.119-9.318c-0.413-20.881-0.663-33.485,23.915-46.876
					c1.215-0.663,2.737-0.214,3.399,1.001c0.662,1.215,0.214,2.737-1.001,3.399c-21.904,11.936-21.703,22.109-21.302,42.377
					c0.059,2.98,0.12,6.06,0.12,9.417c0,11.482,5.621,22.872,16.256,32.939c22.329,21.138,62.755,32.815,105.494,30.468
					c37.791-2.073,65.32-15.49,81.821-39.88c14.697-21.723,16.777-46.59,16.708-59.479c-0.164-31.071-0.001-121.552,0-122.462
					c0.003-1.382,1.124-2.501,2.506-2.501c0.002,0,0.003,0,0.005,0c1.384,0.003,2.504,1.126,2.501,2.51
					c-0.002,0.91-0.165,91.372,0,122.426c0.123,23.154-6.96,99.107-103.267,104.39C713.645,530.445,709.963,530.545,706.311,530.545
					z" class="color262262 svgShape"></path><rect width="17.289" height="13.045" x="606.654" y="403.88" fill="#eaf2f4" transform="rotate(-120 615.298 410.413)" class="coloreaf2f4 svgShape"></rect><path fill="#262262" d="M613.972,423.195c-0.177,0-0.355-0.023-0.529-0.07c-0.524-0.14-0.971-0.483-1.242-0.952
					l-8.645-14.973c-0.565-0.978-0.23-2.229,0.748-2.794l11.297-6.523c0.47-0.272,1.028-0.346,1.552-0.204
					c0.524,0.14,0.971,0.483,1.242,0.952l8.645,14.973c0.565,0.978,0.23,2.229-0.748,2.794l-11.297,6.523
					C614.681,423.102,614.328,423.195,613.972,423.195z M608.121,406.926l6.6,11.431l7.756-4.478l-6.6-11.431L608.121,406.926z" class="color262262 svgShape"></path></g></g><g fill="#000000" class="color000 svgShape"><rect width="185.271" height="144.714" x="357.568" y="90.441" fill="#ffffff" class="colorfff svgShape"></rect><path fill="#262262" d="M542.839 215.28c-1.13 0-2.045-.915-2.045-2.045V131.06c0-1.13.915-2.045 2.045-2.045 1.129 0 2.045.915 2.045 2.045v82.175C544.884 214.365 543.969 215.28 542.839 215.28zM399.231 237.2h-41.663c-1.129 0-2.045-.915-2.045-2.045V90.441c0-1.13.915-2.045 2.045-2.045h185.271c1.129 0 2.045.915 2.045 2.045v19.168c0 1.13-.915 2.045-2.045 2.045-1.13 0-2.045-.915-2.045-2.045V92.486H359.613V233.11h39.618c1.129 0 2.045.915 2.045 2.045C401.276 236.285 400.36 237.2 399.231 237.2zM542.839 237.2H434.551c-1.129 0-2.045-.915-2.045-2.045 0-1.129.915-2.045 2.045-2.045h108.288c1.129 0 2.045.915 2.045 2.045C544.884 236.285 543.969 237.2 542.839 237.2z" class="color262262 svgShape"></path><path fill="#ea5444" d="M416.754,139.876c-6.033,0-11.203,3.685-13.389,8.926c-2.186-5.241-7.355-8.926-13.389-8.926
			c-8.01,0-14.503,6.493-14.503,14.503c0,17.121,27.892,35.187,27.892,35.187s27.892-18.066,27.892-35.187
			C431.257,146.369,424.764,139.876,416.754,139.876z" class="colorea5444 svgShape"></path><path fill="#262262" d="M403.365,191.611c-0.387,0-0.773-0.109-1.112-0.329c-1.177-0.762-28.825-18.878-28.825-36.903
				c0-9.125,7.423-16.548,16.548-16.548c5.388,0,10.322,2.586,13.388,6.816c3.067-4.23,8-6.816,13.389-6.816
				c9.125,0,16.548,7.424,16.548,16.548c0,18.025-27.648,36.141-28.825,36.903C404.139,191.501,403.752,191.611,403.365,191.611z
				 M389.977,141.92c-6.87,0-12.458,5.589-12.458,12.458c0,13.942,20.761,29.191,25.847,32.717
				c5.086-3.525,25.847-18.775,25.847-32.717c0-6.87-5.589-12.458-12.458-12.458c-5.044,0-9.559,3.01-11.502,7.669
				c-0.318,0.761-1.062,1.258-1.887,1.258l0,0c-0.825,0-1.57-0.496-1.887-1.258C399.535,144.93,395.021,141.92,389.977,141.92z" class="color262262 svgShape"></path><path fill="#262262" d="M406.812 180.928L406.812 180.928c-1.118 0-2.101-.74-2.409-1.816l-4.481-15.637-1.036 3.615c-.308 1.075-1.291 1.816-2.409 1.816h-27.556c-1.384 0-2.506-1.122-2.506-2.506 0-1.384 1.122-2.506 2.506-2.506h25.667l2.924-10.206c.308-1.075 1.291-1.816 2.409-1.816 1.118 0 2.101.74 2.409 1.815l4.481 15.638 1.036-3.616c.308-1.075 1.291-1.815 2.409-1.815h27.552c1.384 0 2.506 1.122 2.506 2.506 0 1.384-1.122 2.506-2.506 2.506h-25.663l-2.925 10.206C408.913 180.188 407.93 180.928 406.812 180.928zM421.272 112.616H377.19c-1.661 0-3.007-1.346-3.007-3.007s1.346-3.007 3.007-3.007h44.081c1.661 0 3.007 1.346 3.007 3.007S422.932 112.616 421.272 112.616zM450.589 112.616h-16.037c-1.661 0-3.007-1.346-3.007-3.007s1.346-3.007 3.007-3.007h16.037c1.661 0 3.007 1.346 3.007 3.007S452.249 112.616 450.589 112.616zM517.493 112.616h-53.874c-1.661 0-3.007-1.346-3.007-3.007s1.346-3.007 3.007-3.007h53.874c1.661 0 3.007 1.346 3.007 3.007S519.153 112.616 517.493 112.616zM522.504 211.284h-67.289c-1.129 0-2.045-.915-2.045-2.045 0-1.13.915-2.045 2.045-2.045h67.289c1.13 0 2.045.915 2.045 2.045C524.549 210.369 523.634 211.284 522.504 211.284zM522.504 198.254h-67.289c-1.129 0-2.045-.915-2.045-2.045 0-1.129.915-2.045 2.045-2.045h67.289c1.13 0 2.045.915 2.045 2.045C524.549 197.339 523.634 198.254 522.504 198.254zM522.504 185.225h-67.289c-1.129 0-2.045-.915-2.045-2.045 0-1.13.915-2.045 2.045-2.045h67.289c1.13 0 2.045.915 2.045 2.045C524.549 184.309 523.634 185.225 522.504 185.225zM522.504 172.194h-67.289c-1.129 0-2.045-.915-2.045-2.045 0-1.129.915-2.045 2.045-2.045h67.289c1.13 0 2.045.915 2.045 2.045C524.549 171.279 523.634 172.194 522.504 172.194zM522.504 159.165h-67.289c-1.129 0-2.045-.915-2.045-2.045 0-1.13.915-2.045 2.045-2.045h67.289c1.13 0 2.045.915 2.045 2.045C524.549 158.249 523.634 159.165 522.504 159.165zM522.504 146.135h-67.289c-1.129 0-2.045-.915-2.045-2.045 0-1.129.915-2.045 2.045-2.045h67.289c1.13 0 2.045.915 2.045 2.045C524.549 145.219 523.634 146.135 522.504 146.135zM522.504 133.105h-67.289c-1.129 0-2.045-.915-2.045-2.045 0-1.13.915-2.045 2.045-2.045h67.289c1.13 0 2.045.915 2.045 2.045C524.549 132.189 523.634 133.105 522.504 133.105z" class="color262262 svgShape"></path></g><g fill="#000000" class="color000 svgShape"><path fill="#ffffff" d="M280.565,371.123c3.616,0.542,9.502,4.247,10.033,4.584c0.028,0.018,0.051,0.036,0.076,0.058
				l6.916,5.02c4.204,3.264-0.886,6.199-3.273,5.149l-12.647-6.666l0.003,0.002l22.108,18.701c1.363,1.153,3.746,7.271-1.684,11.018
				c-4.621,3.189-10.795,6.93-17.604,3.149c-0.037-0.021-0.069-0.042-0.101-0.069c-1.204-1.016-26.614-22.457-33.55-28.009
				c-4.178-3.345,12.819-14.558,14.903-15.909c0.133-0.086,0.291-0.114,0.445-0.078
				C267.797,368.447,277.109,370.605,280.565,371.123z" class="colorfff svgShape"></path><path fill="#ffcac0" d="M280.565,371.123c3.616,0.542,9.502,4.247,10.033,4.584c0.028,0.018,0.051,0.036,0.076,0.058
				l6.916,5.02c4.204,3.264-0.886,6.199-3.273,5.149l-12.647-6.666l0.003,0.002l22.108,18.701c1.363,1.153,3.746,7.271-1.684,11.018
				c-4.621,3.189-12.523,0.108-15.218-2.289c-8.906-7.917-25.202-22.038-32.138-27.591c-4.178-3.345,8.921-9.608,11.004-10.959
				c0.133-0.086,0.291-0.114,0.445-0.078C267.797,368.447,277.109,370.605,280.565,371.123z" class="colorffcac0 svgShape"></path><path fill="#262262" d="M290.444,415.762c-2.215,0-4.567-0.531-6.997-1.895c-0.111-0.062-0.217-0.135-0.314-0.218
					c-0.265-0.223-26.55-22.407-33.554-28.014c-0.976-0.781-1.476-1.898-1.41-3.146c0.284-5.305,12.851-13.723,16.696-16.176
					c0.458-0.294,1.018-0.389,1.547-0.264c0.108,0.025,10.788,2.526,14.452,3.076c4.099,0.614,10.184,4.47,10.865,4.907
					c0.032,0.021,0.064,0.042,0.095,0.065l6.953,5.054c2.707,2.106,2.672,4.86,1.459,6.673c-0.976,1.46-2.846,2.461-4.907,2.352
					l9.756,8.252c1.281,1.083,2.564,3.861,2.416,6.877c-0.102,2.081-0.923,5.045-4.257,7.346
					C300.407,412.609,295.838,415.762,290.444,415.762z M285.586,410.434c5.608,3.039,10.665,0.136,15.364-3.107
					c1.524-1.052,2.367-2.405,2.504-4.022c0.156-1.841-0.646-3.468-0.991-3.805l-22.094-18.689
					c-0.043-0.036-0.084-0.074-0.123-0.114c-0.707-0.707-0.792-1.826-0.197-2.63c0.595-0.804,1.688-1.052,2.57-0.584l11.928,6.336
					c1.103,0.626,2.018,0.23,2.333-0.241c0.085-0.128,0.346-0.518-0.53-1.2l-6.852-4.979c-1.693-1.081-6.508-3.872-9.232-4.279l0,0
					c-3.247-0.487-11.302-2.332-13.939-2.943c-7.429,4.836-13.815,10.44-14.113,12.393
					C259.14,388.128,283.421,408.607,285.586,410.434z" class="color262262 svgShape"></path><path fill="#ffffff" d="M191.135,226.229c-7.064,13.599-11.236,23.298-13.528,38.967
				c-2.065,14.12-3.174,25.434,0.031,39.362c8.592,37.334,35.285,68.9,69.814,83.403c1.639,0.688,3.391,1.458,5.209,2.2
				c6.873-10.748,12.664-17.842,17.897-29.131c-8.335-3.499-16.265-6.536-23.732-11.905c-25.13-18.069-40.616-45.717-32.922-76.759
				c3.771-15.216,19.366-27.861,16.072-43.897C226.164,209.919,199.714,209.713,191.135,226.229z" class="colorfff svgShape"></path><path fill="#262262" d="M252.66 392.285c-.269 0-.541-.051-.802-.158-1.153-.471-2.28-.952-3.368-1.417-.634-.271-1.255-.537-1.861-.792-3.469-1.457-6.919-3.111-10.256-4.917-1.032-.558-1.416-1.848-.857-2.88.558-1.031 1.848-1.415 2.88-.857 3.214 1.74 6.538 3.333 9.879 4.736.614.258 1.243.527 1.886.802.548.234 1.107.473 1.673.712 1.54-2.391 2.931-4.509 4.242-6.506 3.749-5.71 6.772-10.315 10.773-17.44l-.361-.195c-7.221-3.904-14.042-7.592-20.903-12.524-28.339-20.377-40.954-49.908-33.744-78.996.282-1.139 1.436-1.833 2.573-1.551 1.139.282 1.833 1.434 1.551 2.573-6.878 27.747 4.822 54.91 32.1 74.523 6.64 4.774 13.345 8.399 20.443 12.236l2.255 1.221c.497.27.867.727 1.025 1.27.159.543.095 1.127-.178 1.623-4.614 8.366-7.866 13.32-11.983 19.591-1.57 2.392-3.256 4.959-5.178 7.964C254.05 391.931 253.367 392.285 252.66 392.285zM224.28 376.992c-.434 0-.871-.132-1.248-.407-24.007-17.461-40.864-42.872-47.464-71.552-.263-1.143.45-2.284 1.594-2.547 1.145-.262 2.284.451 2.547 1.594 6.371 27.681 22.644 52.21 45.823 69.069.949.69 1.159 2.019.468 2.968C225.584 376.688 224.936 376.992 224.28 376.992z" class="color262262 svgShape"></path><polygon fill="#ffffff" points="130.991 528.148 116.559 360.288 168.094 353.935 171.161 527.333 142.231 683.245 106.664 684.549" class="colorfff svgShape"></polygon><polygon fill="#ffcac0" points="138.508 528.148 124.076 360.288 168.094 353.935 171.161 527.333 142.231 683.245 114.181 684.549" class="colorffcac0 svgShape"></polygon><path fill="#262262" d="M106.664,686.594c-0.583,0-1.14-0.249-1.528-0.686c-0.406-0.456-0.586-1.07-0.492-1.673
					l24.289-156.158l-14.411-167.614c-0.094-1.096,0.696-2.07,1.788-2.204l51.536-6.353c0.574-0.071,1.153,0.105,1.591,0.485
					c0.438,0.38,0.694,0.928,0.704,1.508l3.066,173.398c0.003,0.137-0.009,0.274-0.034,0.409l-9.784,52.732
					c-0.206,1.111-1.277,1.843-2.383,1.638c-1.111-0.206-1.844-1.273-1.638-2.383l9.747-52.529l-3.022-170.922l-47.325,5.834
					l14.263,165.897c0.014,0.163,0.008,0.327-0.017,0.49l-23.946,153.952l31.454-1.153l7.173-38.655
					c0.206-1.11,1.271-1.846,2.383-1.638c1.111,0.206,1.844,1.273,1.638,2.383l-7.471,40.265c-0.174,0.941-0.979,1.636-1.936,1.67
					l-35.567,1.304C106.714,686.594,106.689,686.594,106.664,686.594z" class="color262262 svgShape"></path><path fill="#eaf2f4" d="M109.29,670.965l52.228,8.771c8.432,0,15.267,6.835,15.267,15.267v3.864h-48.46
				c-4.453-4.453-6.95-6.95-11.402-11.402v11.402h-16.696V680.03C100.226,675.023,104.284,670.965,109.29,670.965z" class="coloreaf2f4 svgShape"></path><path fill="#262262" d="M176.784,700.912h-48.46c-0.543,0-1.062-0.215-1.446-0.599l-7.911-7.911v6.465
					c0,1.129-0.915,2.045-2.045,2.045h-16.697c-1.13,0-2.045-0.915-2.045-2.045v-18.838c0-6.126,4.983-11.109,11.109-11.109
					c0.114,0,0.227,0.009,0.338,0.028l52.066,8.744c9.465,0.095,17.135,7.824,17.135,17.31v3.864
					C178.829,699.997,177.914,700.912,176.784,700.912z M129.172,696.823h45.568v-1.82c0-7.291-5.931-13.222-13.222-13.222
					c-0.114,0-0.227-0.009-0.339-0.028l-52.049-8.741c-3.797,0.085-6.859,3.201-6.859,7.018v16.793h12.607v-9.357
					c0-0.827,0.498-1.573,1.262-1.889c0.765-0.317,1.644-0.142,2.229,0.443L129.172,696.823z" class="color262262 svgShape"></path><polygon fill="#ffffff" points="188.667 528.294 155.233 366.478 206.769 360.125 228.837 527.48 221.074 683.392 185.507 684.696" class="colorfff svgShape"></polygon><polygon fill="#ffcac0" points="196.384 528.294 162.951 366.478 206.769 360.125 228.837 527.48 221.074 683.392 193.225 684.696" class="colorffcac0 svgShape"></polygon><path fill="#262262" d="M185.507,686.741c-0.536,0-1.051-0.21-1.434-0.587c-0.401-0.395-0.622-0.937-0.61-1.499
					l3.154-156.172l-33.386-161.59c-0.116-0.56,0.008-1.142,0.341-1.606c0.333-0.464,0.845-0.767,1.412-0.837l51.535-6.353
					c1.115-0.133,2.131,0.65,2.277,1.763l22.068,167.354c0.016,0.122,0.021,0.246,0.015,0.369l-1.622,32.58
					c-0.056,1.129-1.025,1.991-2.144,1.941c-1.128-0.056-1.997-1.016-1.941-2.144l1.613-32.396l-21.778-165.16l-47.322,5.833
					l32.984,159.644c0.031,0.15,0.045,0.302,0.042,0.455l-3.116,154.237l31.53-1.156l2.723-54.698
					c0.056-1.128,1.036-1.982,2.144-1.941c1.128,0.056,1.997,1.016,1.941,2.144l-2.816,56.571c-0.053,1.06-0.907,1.903-1.967,1.942
					l-35.567,1.304C185.557,686.74,185.532,686.741,185.507,686.741z" class="color262262 svgShape"></path><path fill="#eaf2f4" d="M188.133,671.112l52.228,8.771c8.432,0,15.267,6.835,15.267,15.267v3.864h-48.46
				c-4.453-4.453-6.949-6.949-11.402-11.402v11.402h-16.696v-18.838C179.069,675.17,183.127,671.112,188.133,671.112z" class="coloreaf2f4 svgShape"></path><path fill="#262262" d="M255.628,701.059h-48.46c-0.543,0-1.062-0.216-1.446-0.599l-7.911-7.912v6.466
					c0,1.129-0.915,2.045-2.045,2.045h-16.697c-1.13,0-2.045-0.915-2.045-2.045v-18.838c0-6.126,4.983-11.109,11.109-11.109
					c0.113,0,0.227,0.009,0.338,0.028l52.065,8.744c9.465,0.095,17.136,7.824,17.136,17.311v3.864
					C257.673,700.144,256.757,701.059,255.628,701.059z M208.015,696.969h45.568v-1.819c0-7.291-5.931-13.222-13.222-13.222
					c-0.114,0-0.227-0.009-0.339-0.028l-52.049-8.741c-3.797,0.085-6.859,3.201-6.859,7.018v16.793h12.607v-9.357
					c0-0.827,0.498-1.573,1.262-1.889c0.764-0.315,1.643-0.141,2.229,0.443L208.015,696.969z" class="color262262 svgShape"></path><g fill="#000000" class="color000 svgShape"><path fill="#ffffff" d="M198.847,308.732c5.604-3.966,38.284-28.191,37.77-53.467
				c-0.207-10.181-5.488-31.033-16.366-43.722c-14.513-16.93-44.003-21.205-64.837-19.034c-9.781,1.019-15.914,6.77-19.294,21.698
				c-4.974,21.965-64.142,280.265-64.142,280.265c10.3,10.313,42.207,20.384,90.508,20.665c42.195,0.246,71.114-5.566,82.915-18.824
				L198.847,308.732z" class="colorfff svgShape"></path><path fill="#262262" d="M165.101,517.178c-0.869,0-1.744-0.003-2.627-0.008c-52.489-0.305-82.329-11.644-91.935-21.261
					c-0.496-0.497-0.701-1.215-0.542-1.899c0.602-2.583,60.235-258.545,65.15-280.253c3.687-16.286,11.325-19.322,20.925-21.598
					c20.745-4.922,49.986-0.297,65.723,18.06c2.278,2.657,4.426,5.784,6.384,9.295c6.639,11.9,10.293,26.972,10.471,35.709
					c0.505,24.846-28.994,48.161-37.497,54.356l31.745,127.907c0.27,1.09-0.394,2.193-1.484,2.464
					c-1.092,0.268-2.193-0.395-2.464-1.484l-32.076-129.245c-0.202-0.813,0.116-1.666,0.799-2.15
					c3.83-2.711,37.411-27.194,36.911-51.765c-0.168-8.233-3.641-22.491-9.956-33.81c-1.827-3.275-3.818-6.178-5.92-8.63
					c-14.677-17.121-42.145-21.386-61.696-16.75c-9.007,2.135-14.706,4.449-17.897,18.539
					c-4.75,20.978-60.541,260.468-64.892,279.143c10.611,9.538,41.553,19.033,88.275,19.304c42.15,0.279,69.274-5.597,80.664-17.367
					l-7.049-28.403c-0.27-1.09,0.394-2.193,1.484-2.464c1.09-0.271,2.193,0.394,2.464,1.484l7.314,29.47
					c0.161,0.651-0.009,1.341-0.455,1.842C235.239,510.789,208.46,517.178,165.101,517.178z" class="color262262 svgShape"></path></g><g fill="#000000" class="color000 svgShape"><path fill="#ffffff" d="M247.422,163.845c0,0,20.109-16.075,17.431-33.781c-3.108-20.551-40.201-30.952-53.811-21.33
				c-13.61,9.622-21.048,11.693-24.306,35.331c-2.582,18.737,10.357,41.428,10.357,41.428L247.422,163.845z" class="colorfff svgShape"></path><path fill="#ea5444" d="M248.718,162.367c0,0,18.635-17.172,16.153-36.087c-2.881-21.953-37.254-33.064-49.867-22.785
				c-12.612,10.278-19.506,12.491-22.524,37.742c-2.393,20.016,9.598,44.256,9.598,44.256L248.718,162.367z" class="colorea5444 svgShape"></path><path fill="#262262" d="M197.094,187.539c-0.715,0-1.403-0.376-1.777-1.033c-0.543-0.951-13.253-23.516-10.606-42.721
					c2.986-21.669,9.576-26.13,20.495-33.521c1.464-0.991,3.015-2.04,4.656-3.201c7.781-5.501,22.645-5.328,36.147,0.423
					c11.886,5.062,19.491,13.18,20.866,22.27c2.822,18.658-17.317,34.998-18.176,35.684c-0.143,0.115-0.301,0.209-0.469,0.281
					l-50.329,21.649C197.639,187.484,197.365,187.539,197.094,187.539z M225.211,107.141c-5.282,0-9.901,1.08-12.989,3.263
					c-1.665,1.177-3.239,2.242-4.724,3.248c-10.652,7.211-15.999,10.83-18.736,30.692c-2.074,15.052,6.454,33.114,9.249,38.529
					l48.335-20.791c2.046-1.715,18.815-16.309,16.485-31.712c-1.158-7.657-7.873-14.625-18.424-19.119
					C238.002,108.522,231.183,107.141,225.211,107.141z M247.422,163.845h0.01H247.422z" class="color262262 svgShape"></path></g><g fill="#000000" class="color000 svgShape"><path fill="#ffffff" d="M219.767,177.771l-10.891,27.087c5.105,14.009,2.22,36.407,2.267,43.563
				c-1.923-2.856-26.406-46.646-26.29-52.83l13.722-35.376L219.767,177.771z" class="colorfff svgShape"></path><path fill="#ffcac0" d="M219.767,177.771l-10.891,27.087c5.105,14.009,2.22,36.407,2.267,43.563
				c-1.923-2.856-23.076-39.055-22.96-45.24l13.722-35.376L219.767,177.771z" class="colorffcac0 svgShape"></path><path fill="#262262" d="M211.143,250.466c-0.667,0-1.309-0.328-1.696-0.902c-1.192-1.769-26.775-46.784-26.639-54.011
					c0.004-0.24,0.051-0.477,0.138-0.701l13.722-35.376c0.237-0.613,0.756-1.074,1.391-1.239c0.638-0.166,1.314-0.015,1.819,0.404
					l21.193,17.556c0.685,0.567,0.925,1.512,0.592,2.338l-10.604,26.373c3.841,11.342,2.939,27.403,2.395,37.084
					c-0.148,2.646-0.277,4.932-0.267,6.416c0.006,0.902-0.579,1.701-1.441,1.967C211.547,250.436,211.344,250.466,211.143,250.466z
					 M186.914,195.931c0.571,5.004,15.311,32.817,22.476,45.501c0.54-9.617,1.377-25.411-2.436-35.873
					c-0.172-0.474-0.164-0.995,0.025-1.463l10.334-25.702l-17.858-14.794L186.914,195.931z" class="color262262 svgShape"></path></g><g fill="#000000" class="color000 svgShape"><path fill="#ffffff" d="M137.073,152.606c7.979,10.726,19.732,18.033,32.748,20.535c-0.11-0.347-0.226-0.691-0.327-1.043
				c-5.522-19.339,5.679-39.494,25.018-45.017c0.676-0.193,1.353-0.359,2.03-0.512l-2.277-7.973
				c-7.616-1.668-15.738-1.544-23.761,0.747C153.784,124.118,141.617,137.064,137.073,152.606z" class="colorfff svgShape"></path><path fill="#ea5444" d="M141.787,158.111c7.979,10.726,15.019,12.528,28.035,15.03c-0.11-0.347-0.226-0.691-0.327-1.043
				c-5.522-19.339,5.679-39.494,25.018-45.017c0.676-0.193,1.353-0.359,2.03-0.512l-1.546-5.414
				c-6.815-0.673-14.52-0.013-22.544,2.278C155.732,128.209,146.33,142.569,141.787,158.111z" class="colorea5444 svgShape"></path><path fill="#262262" d="M169.821,175.186c-0.128,0-0.257-0.012-0.386-0.037c-13.651-2.624-25.727-10.197-34.003-21.323
					c-0.383-0.514-0.502-1.179-0.322-1.794c4.935-16.881,17.957-29.836,34.833-34.654c8.039-2.296,16.601-2.566,24.76-0.778
					c1.103,0.242,1.802,1.331,1.56,2.435c-0.241,1.104-1.332,1.803-2.435,1.56c-7.501-1.643-15.371-1.395-22.763,0.715
					c-15.19,4.337-26.984,15.845-31.733,30.891c6.961,8.98,16.648,15.346,27.622,18.197c-2.043-9.188-0.673-18.686,3.938-26.984
					c4.991-8.98,13.18-15.479,23.058-18.3c1.086-0.311,2.217,0.319,2.528,1.405c0.31,1.086-0.319,2.218-1.405,2.528
					c-18.224,5.204-28.817,24.264-23.613,42.489c0.066,0.23,0.139,0.455,0.211,0.679l0.099,0.309
					c0.217,0.687,0.057,1.438-0.422,1.976C170.957,174.941,170.399,175.186,169.821,175.186z" class="color262262 svgShape"></path><path fill="#c0e1ed" d="M198.93,122.86l-8.511,11.592c-0.973,1.325-2.836,1.611-4.161,0.638l-0.857-0.629
				c-1.325-0.973-1.611-2.836-0.638-4.161l8.511-11.592c0.973-1.325,2.836-1.611,4.161-0.638l0.857,0.629
				C199.618,119.672,199.903,121.535,198.93,122.86z" class="colorc0e1ed svgShape"></path><path fill="#262262" d="M187.967,137.635c-1.103,0-2.173-0.349-3.078-1.014l-0.537-0.394
					c-2.32-1.704-2.822-4.977-1.119-7.296l8.277-11.273c0.824-1.124,2.038-1.859,3.416-2.07c1.378-0.214,2.756,0.128,3.879,0.952
					l0.537,0.394c1.124,0.825,1.859,2.039,2.071,3.417c0.211,1.378-0.127,2.756-0.952,3.879l-8.277,11.273
					c-0.824,1.124-2.038,1.859-3.416,2.07C188.501,137.615,188.233,137.635,187.967,137.635z M195.719,119.616
					c-0.058,0-0.116,0.004-0.173,0.014c-0.298,0.045-0.561,0.205-0.739,0.448l-8.277,11.273c-0.369,0.502-0.26,1.211,0.242,1.579
					l0.537,0.394c0.244,0.179,0.543,0.254,0.84,0.206c0.298-0.045,0.561-0.205,0.739-0.448l8.277-11.273l0,0
					c0.369-0.502,0.26-1.211-0.242-1.579l-0.537-0.394C196.189,119.692,195.958,119.616,195.719,119.616z" class="color262262 svgShape"></path></g><g fill="#000000" class="color000 svgShape"><path fill="#ffffff" d="M207.369,144.91c0.828,0.377,1.53,0.933,2.111,1.612c2.014-2.218,2.314-7.469,12.098-13.817
				c12.57-8.155,26.725-3.012,32.394,5.536c2.723,4.105,1.656,10.157,0.51,13.955c-2.697,8.935-6.337,19.171-14.51,31.386
				c-8.174,12.215-15.676,14.51-22.79,12.998c-4.47-0.95-9.267-5.085-13.523-10.343c-5.389-6.658-7.027-15.275-4.873-23.139
				c-3.672-1.888-4.849-7.272-2.601-12.216C198.485,145.822,203.492,143.148,207.369,144.91z" class="colorfff svgShape"></path><path fill="#ffcac0" d="M210.609,144.773c0.773,0.349,4.322-7.553,13.488-13.517c11.775-7.662,25.754,0.159,31.026,8.13
				c2.532,3.828,1.515,9.488,0.432,13.04c-2.549,8.359-5.984,17.937-13.663,29.379c-7.679,11.442-14.099,14.601-20.743,13.211
				c-4.175-0.874-7.565-4.621-11.526-9.522c-5.016-6.205-7.686-15.339-5.648-22.695c-3.426-1.752-4.236-5.92-2.12-10.548
				C204.02,147.514,206.991,143.139,210.609,144.773z" class="colorffcac0 svgShape"></path><path fill="#262262" d="M220.98,199.015c-1.375,0-2.779-0.154-4.217-0.46c-5.721-1.216-11.137-6.679-14.674-11.048
					c-5.342-6.599-7.389-15.286-5.602-23.509c-3.57-2.878-4.55-8.653-2.141-13.952c1.295-2.849,3.386-5.154,5.888-6.49
					c2.678-1.43,5.509-1.603,7.97-0.484l0,0c0.273,0.124,0.538,0.264,0.796,0.419c0.049-0.094,0.098-0.192,0.149-0.291
					c1.48-2.886,3.717-7.249,11.329-12.188c13.441-8.719,28.724-3.615,35.177,6.114c3.28,4.946,1.884,11.931,0.76,15.655
					c-2.817,9.33-6.554,19.655-14.766,31.926C235.18,194.375,228.523,199.014,220.98,199.015z M204.824,146.388
					c-0.862,0-1.777,0.245-2.687,0.731c-1.723,0.92-3.183,2.553-4.113,4.598c-1.771,3.896-1.014,8.196,1.686,9.585
					c0.849,0.436,1.277,1.409,1.025,2.33c-2.023,7.383-0.343,15.359,4.494,21.334c4.418,5.459,8.812,8.882,12.373,9.638
					c9.75,2.074,16.178-5.402,20.692-12.145c7.916-11.83,11.529-21.817,14.255-30.847c0.919-3.045,2.107-8.686-0.259-12.254
					c-7.313-11.026-21.896-9.965-29.612-4.958c-6.708,4.352-8.573,7.988-9.934,10.642c-0.562,1.098-1.048,2.045-1.768,2.838
					c-0.389,0.429-0.945,0.668-1.524,0.662c-0.579-0.008-1.127-0.266-1.504-0.706c-0.415-0.484-0.89-0.849-1.414-1.087l0,0
					C206.003,146.508,205.426,146.388,204.824,146.388z" class="color262262 svgShape"></path><path fill="#ea5444" d="M235.664,183.528c0,0-3.523,7.269-10.38,5.58c-8.867-2.184-8.423-12.906-8.423-12.906
				S226.982,187.105,235.664,183.528z" class="colorea5444 svgShape"></path><path fill="#262262" d="M237.428 151.379c-.27 0-.545-.054-.809-.169l0 0c-.063-.027-6.389-2.684-14.182-.604-1.089.289-2.202-.356-2.492-1.442-.29-1.086.356-2.202 1.442-2.492 9.222-2.461 16.551.671 16.858.805 1.031.45 1.5 1.651 1.049 2.681C238.96 150.923 238.213 151.379 237.428 151.379zM252.024 157.747c-.446 0-.894-.145-1.27-.445-1.566-1.251-4.225-2.372-5.118-2.698-1.056-.386-1.599-1.555-1.213-2.611.386-1.055 1.557-1.597 2.611-1.213.157.057 3.86 1.424 6.26 3.34.878.702 1.022 1.983.321 2.862C253.214 157.485 252.622 157.747 252.024 157.747zM240.57 163.293c-.751 2.379.115 4.773 1.934 5.347 1.819.575 3.903-.888 4.655-3.266.751-2.378-.115-4.772-1.934-5.347C243.406 159.452 241.322 160.914 240.57 163.293zM225.588 159.544c-.788 2.496.12 5.009 2.03 5.612 1.91.603 4.097-.932 4.885-3.428.788-2.496-.12-5.009-2.03-5.612C228.564 155.513 226.377 157.048 225.588 159.544z" class="color262262 svgShape"></path></g><g fill="#000000" class="color000 svgShape"><path fill="#ffffff" d="M269.893,106.478l-5.039,23.585c0,0-23.993-14.874-35.091-11.497
				c-11.098,3.377-22.719,11.607-22.719,11.607l-18.661-23.865c0,0,23.004-14.501,32.719-18.387
				C230.815,84.035,271.879,99.172,269.893,106.478z" class="colorfff svgShape"></path><path fill="#262262" d="M207.045,132.219c-0.609,0-1.21-0.271-1.613-0.785l-18.661-23.865
					c-0.356-0.456-0.503-1.04-0.404-1.611c0.099-0.57,0.435-1.071,0.924-1.379c0.946-0.596,23.275-14.646,33.05-18.556
					c8.912-3.565,39.537,6.617,48.665,14.75c2.408,2.146,3.375,4.224,2.876,6.179l-5.03,23.539c-0.139,0.65-0.586,1.193-1.198,1.454
					c-0.611,0.261-1.312,0.207-1.879-0.143c-6.457-4.001-25.051-13.826-33.418-11.278c-10.641,3.238-22.019,11.239-22.132,11.319
					C207.867,132.096,207.454,132.219,207.045,132.219z M191.394,106.84l16.082,20.568c3.624-2.399,12.737-8.072,21.691-10.797
					c5.086-1.549,12.872-0.01,23.135,4.571c4.629,2.066,8.685,4.272,11.144,5.678l4.447-20.808c0.007-0.034,0.015-0.068,0.024-0.101
					c-0.004-0.06-0.137-1.13-3.044-3.253c-10.448-7.629-36.578-15.455-43.013-12.877C214.047,92.945,197.104,103.3,191.394,106.84z" class="color262262 svgShape"></path><path fill="#ea5444" d="M253.184,113.102l1.076,0.354c0.82,0.27,1.704-0.177,1.974-0.997l3.117-9.481
					c0.27-0.82-0.177-1.704-0.997-1.974l-1.076-0.354c-0.82-0.27-1.704,0.177-1.974,0.997l-3.117,9.481
					C251.917,111.948,252.364,112.832,253.184,113.102z" class="colorea5444 svgShape"></path><path fill="#ea5444" d="M261.818,109.637l0.354-1.076c0.27-0.82-0.177-1.704-0.997-1.974l-9.481-3.117
					c-0.82-0.27-1.704,0.177-1.974,0.997l-0.354,1.076c-0.27,0.82,0.177,1.704,0.997,1.974l9.481,3.117
					C260.665,110.904,261.548,110.458,261.818,109.637z" class="colorea5444 svgShape"></path></g><g fill="#000000" class="color000 svgShape"><circle cx="338.656" cy="348.743" r="15.536" fill="#ffffff" class="colorfff svgShape"></circle><ellipse cx="340.831" cy="350.918" fill="#ea5444" rx="13.361" ry="13.36" transform="rotate(-67.692 340.815 350.902)" class="colorea5444 svgShape"></ellipse><path fill="#262262" d="M338.656,366.312c-9.688,0-17.569-7.882-17.569-17.569c0-9.688,7.882-17.57,17.569-17.57
					c9.688,0,17.57,7.882,17.57,17.57C356.226,358.43,348.344,366.312,338.656,366.312z M338.656,335.241
					c-7.445,0-13.501,6.057-13.501,13.502c0,7.445,6.057,13.501,13.501,13.501c7.445,0,13.502-6.056,13.502-13.501
					C352.158,341.297,346.102,335.241,338.656,335.241z" class="color262262 svgShape"></path></g><g fill="#000000" class="color000 svgShape"><path fill="#ffcac0" d="M360.693,359.803c-3.654-2.499-17.617,1.772-17.617,1.772l-13.261-7.406
				c8.561-0.387,17.019-1.242,17.792-3.773c0.644-2.11-2.046-2.726-3.532-2.909c-4.281-0.527-13.896-2.679-17.159-2.662
				c-1.196,0.006-16.572,1.706-20.187,0.588l-3.876,19.944c2.643,0.504,5.246,0.995,7.644,1.443l0.017,0.056
				c0,0,26.365,5.053,29.508,5.252c3.142,0.199,12.221-4.914,16.855-7.135C361.512,362.753,362.02,360.71,360.693,359.803z" class="colorffcac0 svgShape"></path><path fill="#262262" d="M340.196,374.133c-0.103,0-0.204-0.003-0.302-0.009c-3.177-0.202-27.049-4.765-29.76-5.284
					c-0.15-0.029-0.294-0.074-0.43-0.133c-2.282-0.427-4.738-0.891-7.229-1.366c-0.528-0.101-0.993-0.407-1.294-0.852
					c-0.301-0.444-0.412-0.99-0.31-1.517l3.876-19.944c0.109-0.563,0.453-1.053,0.945-1.348c0.493-0.294,1.088-0.365,1.634-0.196
					c2.491,0.771,13.478-0.178,17.088-0.49c1.539-0.133,2.176-0.187,2.492-0.188c2.182,0.04,6.526,0.784,10.739,1.554
					c2.6,0.475,5.056,0.924,6.677,1.123c2.378,0.293,4.003,1.087,4.829,2.359c0.418,0.644,0.825,1.712,0.387,3.143
					c-0.785,2.572-4.399,3.987-12.769,4.754l6.546,3.656c4.236-1.24,14.666-3.893,18.518-1.259c1.05,0.718,1.599,1.827,1.506,3.043
					c-0.155,2.024-2.036,3.914-5.59,5.617c-0.989,0.474-2.182,1.081-3.477,1.74C347.852,371.801,343.04,374.133,340.196,374.133z
					 M311.316,364.954c10.56,2.021,26.651,5.001,28.834,5.139c1.927,0.124,8.665-3.313,12.292-5.158
					c1.327-0.675,2.55-1.297,3.563-1.782c1.738-0.833,2.584-1.513,2.984-1.928c-2.469-0.701-9.563,0.52-15.322,2.282
					c-0.525,0.16-1.095,0.1-1.575-0.168l-13.261-7.406c-0.788-0.44-1.188-1.349-0.981-2.228c0.207-0.878,0.973-1.512,1.874-1.553
					c11.592-0.524,14.838-1.677,15.743-2.264c-0.304-0.133-0.83-0.297-1.639-0.397c-1.737-0.214-4.249-0.673-6.909-1.159
					c-3.842-0.702-8.195-1.462-9.992-1.488c-0.201,0.004-1.2,0.091-2.166,0.174c-6.425,0.553-12.718,0.997-16.421,0.691
					l-3.118,16.043c1.95,0.37,3.855,0.728,5.646,1.063C311.024,364.844,311.174,364.891,311.316,364.954z M359.553,361.469
					C359.553,361.469,359.553,361.469,359.553,361.469S359.553,361.469,359.553,361.469z M345.747,349.654L345.747,349.654
					L345.747,349.654z" class="color262262 svgShape"></path><path fill="#ffffff" d="M138.015,220.31c10.869,35.522,36.298,69.057,63.195,94.021
				c15.036,13.955,31.853,26.095,50.001,35.684c9.33,4.93,18.976,9.254,28.857,12.956c4.845,1.815,9.211,3.241,16.038,5.694
				c1.924,0.691,3.808,1.456,5.679,1.874c2.58-6.821,9.377-25.973,11.953-32.68c-2.535-1.056-5.671-2.363-8.465-3.338
				c-25.22-8.801-48.711-21.734-68.815-39.366c-12.133-10.641-23.038-22.703-32.413-35.839c-7.339-10.282-13.837-21.19-19.265-32.6
				c-2.707-5.691-4.972-12.699-7.598-18.507c-3.623-8.016-10.587-13.725-20.337-13.699
				C143.691,194.546,134.08,207.786,138.015,220.31z" class="colorfff svgShape"></path><path fill="#262262" d="M301.786,372.573c-0.147,0-0.296-0.016-0.445-0.049c-1.618-0.362-3.212-0.95-4.755-1.518
					l-1.168-0.427c-2.957-1.063-5.45-1.932-7.72-2.724c-2.994-1.044-5.58-1.945-8.344-2.981
					c-9.965-3.732-19.754-8.128-29.094-13.062c-17.957-9.488-34.926-21.597-50.434-35.991
					c-18.105-16.804-50.463-51.481-63.755-94.912c-2.074-6.611-0.859-13.689,3.335-19.419c4.178-5.709,10.533-8.994,17.433-9.013
					c9.795-0.053,17.906,5.402,22.197,14.894c1.242,2.748,2.413,5.783,3.547,8.717c1.286,3.331,2.616,6.775,4.034,9.755
					c5.255,11.047,11.676,21.912,19.084,32.292c9.291,13.019,20.091,24.96,32.099,35.491c19.094,16.746,42.02,29.859,68.144,38.975
					c2.858,0.997,6.03,2.319,8.577,3.381c1.016,0.423,1.511,1.579,1.116,2.606c-1.37,3.569-3.953,10.708-6.45,17.613
					c-2.208,6.104-4.294,11.871-5.499,15.058C303.383,372.063,302.616,372.573,301.786,372.573z M156.917,196.544
					c-0.022,0-0.043,0-0.066,0.001c-5.594,0.015-10.756,2.693-14.162,7.348c-3.424,4.679-4.42,10.441-2.734,15.808
					c0.002,0.005,0.003,0.01,0.005,0.015c13.012,42.525,44.827,76.599,62.634,93.125c15.247,14.152,31.924,26.054,49.568,35.376
					c9.187,4.854,18.816,9.177,28.62,12.85c2.721,1.019,5.286,1.913,8.256,2.949c2.281,0.795,4.786,1.668,7.757,2.736
					c0.401,0.144,0.801,0.291,1.2,0.439c0.872,0.321,1.716,0.632,2.538,0.895c1.225-3.301,2.985-8.166,4.83-13.268
					c2.128-5.883,4.318-11.937,5.777-15.836c-2.099-0.867-4.425-1.803-6.536-2.54c-26.62-9.29-49.998-22.666-69.486-39.758
					c-12.243-10.737-23.254-22.912-32.728-36.186c-7.546-10.575-14.089-21.647-19.446-32.908c-1.483-3.119-2.842-6.636-4.155-10.037

					c-1.113-2.882-2.264-5.862-3.459-8.507C173.217,204.373,168.018,196.544,156.917,196.544z" class="color262262 svgShape"></path></g></g></svg></g></svg>

