<svg id="SvgjsSvg1001" width="550" height="550" xmlns="http://www.w3.org/2000/svg" version="1.1" xmlns:xlink="http://www.w3.org/1999/xlink" xmlns:svgjs="http://svgjs.com/svgjs"><defs id="SvgjsDefs1002"></defs><g id="SvgjsG1008"><svg xmlns="http://www.w3.org/2000/svg" viewBox="0 0 1364 960" width="550" height="550"><defs><clipPath id="a"><path fill="none" d="M959.42 306.88c-35.3 2.72-109.94 51.88-144.36 43.62-32.21-7.72-57.52-32.5-77.58-58.84s-36.89-55.51-61-78.22C616.24 156.7 523.41 151.82 442 166.55c-49.27 8.91-98.69 24.39-138 55.46s-66.94 80-62.44 129.88c2.92 32.4 18.62 62 30 92.47s18.45 65.48 4.34 94.79c-15 31.25-49.75 47.58-72 74.21a110.6 110.6 0 0 0 26.44 164.71h901.42c70.71-93.33 77.34-490.45-172.34-471.19Z"></path></clipPath><clipPath id="b"><path fill="none" d="M1245.3 618.23c-6.66 33.33-16.88 65.62-31.9 94.8-12.3 23.92-27.82 45.76-47.24 64.41H1076l-8.63-56.88c11.35-28 34.8-51.37 61.47-66.49 35.51-20.07 76.38-28.07 116.46-35.84Z"></path></clipPath><clipPath id="c"><path fill="none" d="M335.88 777.44H189a147.35 147.35 0 0 1-26.16-25.14c-23.94-29.43-37.6-65.68-50.86-101.23 29.93.9 59.52 4.89 87.28 13.19 1.53.45 3.05.92 4.57 1.4 48.74 15.51 102 60.69 132.05 111.78Z"></path></clipPath><clipPath id="d"><path fill="none" d="M399.33 777.44h-130c-36.71-23.74-60.84-72.52-68.63-106.66-.5-2.17-1-4.35-1.41-6.52-10-50-4.92-101.78.23-152.59 39.19 20.82 75.75 45.71 106.64 75.44 50.98 49.08 86.55 111.35 93.17 190.33Z"></path></clipPath><clipPath id="e"><path fill="none" d="M1094.57 777.44h-315C840.21 623.86 889.11 478.25 899.16 359c74.62-16.56 145.92-14.79 218.62-4 44.63 6.61 70.69 53.82 52.89 95.28-46.53 108.29-71.44 212.72-76.1 327.16Z"></path></clipPath><clipPath id="f"><path fill="none" d="M1030.91 777.44h-315c56.55-143.14 102.86-279.36 117-393.8a34.69 34.69 0 0 1 28-29.88c78.78-14.66 157.8-15.23 236.67-3.3a40 40 0 0 1 30.48 56.54C1071 529.06 1036 651.72 1030.91 777.44Z"></path></clipPath><clipPath id="g"><path fill="none" d="M772.33 623.81c10.57 15.85 28.86 33.65 50.12 52.2 0 0 97.52-71.14 86.9-118.91s-41.2-49.63-57.22-39.21c-25.43 16.54-79.8 105.92-79.8 105.92Z"></path></clipPath><clipPath id="h"><path fill="none" d="M810.32 670c-.05-22 1.11-49.27 6.27-75.62 8.93-45.56 29.85-88.33 77.2-96.07l57.29 6.93s61.8 16.73 47.88 112c-10.27 70.36-36.69 160.24-36.69 160.24h-195.1S810.46 730 810.32 670Z"></path></clipPath><clipPath id="i"><path fill="none" d="M918.52 674.09c31.13 4.33 56.27 6.46 82.48 6.43 0 0 15.25-86.65-5.71-128.77-21.79-43.81-66.9-18.73-71.11 23.12-3.03 30.18-5.66 99.22-5.66 99.22Z"></path></clipPath><clipPath id="j"><rect width="361.04" height="34.67" x="566.84" y="708.09" fill="none" rx="17.34"></rect></clipPath><clipPath id="k"><rect width="361.04" height="36.36" x="705.81" y="704.71" fill="none" rx="17.34"></rect></clipPath></defs><g data-name="Layer 1" fill="#000000" class="color000 svgShape"><path fill="#ffffff" d="M1117.21 780.43a1 1 0 0 1-.53-.15 1 1 0 0 1-.32-1.38c19-30.49 32.47-88.58 35.1-151.61a535.78 535.78 0 0 0-6-105.92c-6-36.94-15.76-69.8-29.16-97.66-31.72-66-80.82-99.44-145.93-99.44-5.2 0-10.58.22-16 .65-12.47 1-34 10.62-54.91 19.92a1 1 0 0 1-.82-1.82c21-9.38 42.76-19.07 55.57-20.09 5.47-.44 10.91-.66 16.16-.66 65.95 0 115.65 33.84 147.74 100.57 13.47 28 23.34 61.08 29.33 98.21a538.36 538.36 0 0 1 6 106.33c-2.65 63.35-16.21 121.81-35.41 152.58a1 1 0 0 1-.82.47ZM275.67 423.86a1 1 0 0 1-.93-.63c-9.19-23-17.87-44.79-19.87-67.79-3.78-43.28 18.17-90 57.26-122 31.7-25.95 74.62-43.71 131.21-54.3a396 396 0 0 1 72.54-7.14c29.85 0 57.22 4 81.35 11.83a1 1 0 1 1-.62 1.9C572.68 178 545.52 174 515.88 174a393.82 393.82 0 0 0-72.17 7c-56.25 10.52-98.88 28.15-130.31 53.88-38.59 31.59-60.26 77.7-56.54 120.32 2 22.72 10.6 44.34 19.74 67.23a1 1 0 0 1-.56 1.3 1 1 0 0 1-.37.13ZM244.12 606.48a1 1 0 0 1-.65-1.76c16.79-14.39 34.16-29.27 44.26-51 13.19-28.35 11.93-63.31-3.86-106.88a1 1 0 1 1 1.88-.68c16 44.09 17.22 79.55 3.8 108.4-10.29 22.11-27.82 37.14-44.78 51.67a1 1 0 0 1-.65.25ZM250.16 763.11a1 1 0 0 1-.58-.19c-21.87-15.36-37.42-40.58-41.59-67.47-4.4-28.35 3.59-58.44 21.37-80.48a1 1 0 0 1 1.41-.15 1 1 0 0 1 .15 1.4c-17.43 21.62-25.27 51.12-20.95 78.92 4.09 26.36 19.32 51.09 40.76 66.15a1 1 0 0 1 .24 1.39 1 1 0 0 1-.81.43Z" class="colorfff svgShape"></path><path fill="#2e2373" d="M1135.55 646.51a1 1 0 0 1-.49-1.87c36-20.41 77-28.31 116.75-35.95a1 1 0 0 1 .38 2c-39.54 7.6-80.43 15.47-116.14 35.72a1 1 0 0 1-.5.1Z" class="color2e2373 svgShape"></path><path fill="#a7a9ac" d="M1085.33 782.5a1 1 0 0 1-.45-.1 1 1 0 0 1-.45-1.35 371.75 371.75 0 0 1 147.31-155.85 1 1 0 1 1 1 1.73 369.75 369.75 0 0 0-146.51 155 1 1 0 0 1-.9.57Z" class="colora7a9ac svgShape"></path><path fill="#a7a9ac" d="M1165.24 676.37a1 1 0 01-1-.74 1 1 0 01.7-1.23 146.39 146.39 0 0150.39-4.64 1 1 0 01.92 1.07 1 1 0 01-1.08.92 144.45 144.45 0 00-49.71 4.58.75.75 0 01-.22.04zM1110.57 739.42a1 1 0 01-.81-.41 1 1 0 01.22-1.4c8.69-6.33 19.78-10.65 33-12.85 11.68-2 23.67-2.08 35.27-2.21a1 1 0 011 1 1 1 0 01-1 1c-11.52.13-23.44.26-35 2.18-12.87 2.15-23.67 6.35-32.1 12.5a1.09 1.09 0 01-.58.19zM1136.93 705h-.08a1 1 0 01-.91-1.08 132.44 132.44 0 0118.6-57 1 1 0 011.37-.33 1 1 0 01.34 1.37 130.32 130.32 0 00-18.32 56.1 1 1 0 01-1 .94z" class="colora7a9ac svgShape"></path><path fill="#2e2373" d="M169.56 744.74a1 1 0 0 1-.78-.37c-24.29-29.87-37.88-66.29-51-101.51a1 1 0 0 1 1.87-.7c13.09 35.07 26.62 71.34 50.7 101a1 1 0 0 1-.77 1.63Z" class="color2e2373 svgShape"></path><path fill="#a7a9ac" d="M302 769.77a.92.92 0 0 1-.29 0A345.66 345.66 0 0 1 136 658.73a1 1 0 1 1 1.55-1.27A343.66 343.66 0 0 0 302.3 767.82a1 1 0 0 1 .66 1.24 1 1 0 0 1-.96.71Z" class="colora7a9ac svgShape"></path><path fill="#a7a9ac" d="M192.34 712.91a1 1 0 01-.91-.58 136.34 136.34 0 01-12.05-45.51 1 1 0 112-.18 134.38 134.38 0 0011.88 44.85 1 1 0 01-.49 1.33 1 1 0 01-.43.09zM258.6 753.29a1 1 0 01-.7-.29c-7.15-7-12.83-16.5-16.89-28.25-3.59-10.41-5.57-21.39-7.48-32a1 1 0 01.81-1.16 1 1 0 011.16.81c1.9 10.54 3.86 21.44 7.4 31.71 4 11.45 9.48 20.7 16.4 27.47a1 1 0 01-.7 1.72zM213.28 734.83a123.23 123.23 0 01-45.35-8.65 1 1 0 01.74-1.86 121.17 121.17 0 0054.24 8.12 1 1 0 01.16 2q-4.89.4-9.79.39zM358.69 777a1 1 0 01-.69-.27c-68.87-64.45-118.47-150.6-139.67-242.53a1 1 0 111.95-.45c21.11 91.55 70.51 177.33 139.09 241.55a1 1 0 01.05 1.42 1 1 0 01-.73.28z" class="colora7a9ac svgShape"></path><path fill="#a7a9ac" d="M255.87 637.27a1 1 0 01-1-1 191.19 191.19 0 0113.05-64.69 1 1 0 011.87.73 189 189 0 00-12.92 64 1 1 0 01-1 .96zM314.25 729.3a1 1 0 01-.94-.66c-4.64-13.2-5.89-28.64-3.71-45.9 1.93-15.32 6.26-30.36 10.45-44.91a1 1 0 011.92.56c-4.17 14.47-8.47 29.43-10.39 44.6-2.14 17-.92 32.08 3.61 45a1 1 0 01-.61 1.28 1 1 0 01-.33.03zM281.1 683.43a1 1 0 01-.37-.07 172.61 172.61 0 01-64.18-44.55 1 1 0 011.48-1.34 170.58 170.58 0 0063.44 44 1 1 0 01-.37 1.93z" class="colora7a9ac svgShape"></path><path fill="#2e2373" d="M312.72 579.44a1 1 0 0 1-.69-.28c-28.86-27.77-64.66-53.1-106.43-75.28a1 1 0 0 1-.41-1.36 1 1 0 0 1 1.35-.41c41.93 22.27 77.89 47.71 106.87 75.61a1 1 0 0 1 0 1.41 1 1 0 0 1-.69.31ZM287.77 778.44a1 1 0 0 1-.47-.12c-38.86-20.7-69.15-64.06-81-116-4.87-21.31-7.22-44.53-7.18-71a1 1 0 0 1 1-1 1 1 0 0 1 1 1c0 26.32 2.29 49.4 7.13 70.55 11.74 51.37 41.65 94.24 80 114.67a1 1 0 0 1 .42 1.36 1 1 0 0 1-.9.54Z" class="color2e2373 svgShape"></path><path fill="#ffd2d1" d="M706.27 388.57c-14.41-4.47-13.65 20.08-17 23.1-9.75 8.88-1.18-6.46-7.64-10.94s-7.57 9.09-7.57 15.55-5.59 13.91-5.59 13.91L695 448c2.41-5.72 8.88-12.4 19-24.6s6.68-30.35-7.73-34.83Z" class="colorffd2d1 svgShape"></path><path fill="#ffffff" d="M696.17 446.22s-45.09 132.17-92.37 149a34.36 34.36 0 0 1-9.75 1.62C566.18 598 510 580.5 476.52 569c-16.1-5.5-27-9.62-27-9.62L455 445.73c31.07 10 66.69 36.14 94.83 56.76 16.9 12.38 31.09 22.75 40 26.43l40.46-52.83 38-49.62Z" class="colorfff svgShape"></path><path fill="#cac8e3" d="M603.9 550.16a1 1 0 0 1-.94-.66 48.08 48.08 0 0 0-13.78-19.81 1 1 0 0 1 1.3-1.52 50.1 50.1 0 0 1 14.36 20.64 1 1 0 0 1-.59 1.28.91.91 0 0 1-.35.07ZM609 536a1 1 0 0 1-.72-.31 25.56 25.56 0 0 0-16.44-7.76 1 1 0 0 1 .15-2 27.57 27.57 0 0 1 17.74 8.37 1 1 0 0 1-.73 1.7Z" class="colorcac8e3 svgShape"></path><path fill="#2e2373" d="M589.88 529.92a1 1 0 0 1-.38-.07c-9.12-3.77-23.53-14.33-40.22-26.55a1 1 0 0 1-.21-1.4 1 1 0 0 1 1.39-.22c16.16 11.84 30.16 22.1 39.1 26l40-52.22a1 1 0 0 1 1.41-.18 1 1 0 0 1 .18 1.4l-40.46 52.83a1 1 0 0 1-.81.41Z" class="color2e2373 svgShape"></path><path fill="#cac8e3" d="M692 456.45a1 1 0 0 1-.63-.23A114.64 114.64 0 0 0 664.93 440a1 1 0 0 1 .8-1.83 117 117 0 0 1 26.87 16.46 1 1 0 0 1 .14 1.41 1 1 0 0 1-.74.41Z" class="colorcac8e3 svgShape"></path><path fill="#2e2373" d="M754.05 194.88h4.19v583.19h-4.19z" class="color2e2373 svgShape"></path><path fill="#2e2373" d="M614.54 194.93h283.22v5.11H614.54zM1030.91 778.44a1 1 0 01-1-1c4.89-119.91 36.69-241.22 97.25-370.84a1 1 0 011.32-.48 1 1 0 01.49 1.33c-60.44 129.38-92.19 250.43-97.06 370.07a1 1 0 01-1 .92zM816.08 582.22a1 1 0 01-.87-.51c-13.44-23.73-12.39-55 2.61-77.74 6.12-9.29 14.29-17.13 22.19-24.71 8.47-8.13 17.23-16.53 23.32-26.64a1 1 0 011.72 1C858.82 464 850 472.48 841.4 480.7c-7.83 7.51-15.91 15.27-21.91 24.37-14.6 22.16-15.62 52.56-2.54 75.66a1 1 0 01-.37 1.36 1 1 0 01-.5.13zM881.75 431.09a1 1 0 01-.71-.31c-8.5-8.74-18.95-20.65-24.41-35.31-5.57-14.93-4.69-30.69 2.36-42.18 8.77-14.29 25.48-20.57 37.94-23.31a1 1 0 11.43 1.95c-12.08 2.66-28.26 8.71-36.67 22.41-6.72 11-7.54 26.08-2.19 40.43s15.61 26 24 34.62a1 1 0 01-.72 1.7zM984.28 645.11a1 1 0 01-.42-1.91c22.93-10.59 44.36-21.74 54.7-41.61 7.28-14 8.34-32 2.93-49.47-4.44-14.32-13-28.57-26.17-43.57-1.31-1.49-2.65-3-4-4.47-9.23-10.27-18.77-20.88-21.13-34.47-1.54-8.9.3-17.89 2.08-26.59.65-3.14 1.31-6.4 1.8-9.58a96.28 96.28 0 00-28.7-83.58 1 1 0 011.37-1.45 98.34 98.34 0 0129.31 85.34c-.5 3.23-1.17 6.5-1.82 9.67-1.74 8.52-3.54 17.32-2.07 25.85 2.26 13 11.61 23.42 20.65 33.47 1.34 1.5 2.69 3 4 4.49 13.36 15.22 22.06 29.71 26.58 44.3 5.57 18 4.45 36.56-3.06 51-11.52 22.11-37 33.89-55.64 42.49a.92.92 0 01-.41.09z" class="color2e2373 svgShape"></path><path fill="#ffd2d1" d="M632.32 680.52s-35.36 0-46.3 4.75-26.82 23.52-22.83 32.34 13.32-8.32 29.49-8.32 28.06 4 45.65 0ZM836.93 541.92c-28.49 11.94-64.12 99.76-76.56 117.59 0 0-77.43 13-128 21l6 28.77 150.59 4.22 73.44-104.1Z" class="colorffd2d1 svgShape"></path><path fill="#2e2373" d="M866.75 415.55c-1.06-2.7-22.43-48 5.63-73.47s80.73-10.49 100.83 11.17c42.8 46.13-5.16 95.66 23.65 131.26 37.82 46.73 70.71 138-22.46 161.94-149.81 38.52-174.78-66-161-117.33s67.37-78.18 53.35-113.57Z" class="color2e2373 svgShape"></path><path fill="#ffa6c6" d="M820.4 649.49a1.13 1.13 0 0 1-.36-.06c-7.17-2.76-12.92-8.33-18-13.24l-17.11-16.57a1 1 0 0 1 0-1.41 1 1 0 0 1 1.41 0l17.11 16.56c4.94 4.78 10.53 10.2 17.32 12.81a1 1 0 0 1 .57 1.29 1 1 0 0 1-.94.62Z" class="colorffa6c6 svgShape"></path><path fill="#2e2373" d="M767.17 778.44a1 1 0 0 1-.74-1.68c.43-.47 43-47.86 42.89-106.77-.07-29.07 2-53.87 6.29-75.81a1 1 0 1 1 2 .38c-4.28 21.82-6.32 46.49-6.25 75.43.14 59.7-43 107.64-43.41 108.12a1 1 0 0 1-.78.33Z" class="color2e2373 svgShape"></path><path fill="#ffd2d1" d="M984.6 731.2c-4.1 12.18-17.88 32.37-28 46.24h-65.26l30.06-49.74c9.18-24.33 2.51-124.3 17.32-158.27 14.64-33.55 53.8-31.84 64.51 9.78 6.77 26.44-13.1 135.59-18.63 151.99Z" class="colorffd2d1 svgShape"></path><path fill="#ffa6c6" d="M983.68 664.17a432.62 432.62 0 0 1-64.82-4.89 1 1 0 1 1 .3-2 430.25 430.25 0 0 0 68.78 4.84 1 1 0 0 1 1 1 1 1 0 0 1-1 1Z" class="colorffa6c6 svgShape"></path><path fill="#2e2373" d="M1000.39 681.52c-25 0-49.59-1.93-82-6.44a1 1 0 0 1-.86-1c0-.69 2.66-69.41 5.66-99.28a1 1 0 0 1 1.1-.89 1 1 0 0 1 .89 1.09c-2.8 27.94-5.3 90-5.62 98.25 31.88 4.41 56.16 6.3 80.84 6.3h.61a1 1 0 0 1 1 1 1 1 0 0 1-1 1Z" class="color2e2373 svgShape"></path><path fill="#ffd2d1" d="M951.08 505.23a55.91 55.91 0 0 1-5.9 7.5c-13.43 14.39-32.32 19.42-43.84 14.61-8.91-3.73-13.41-13.34-7.55-29.05 3.83-3.43 5.87-8.38 6.78-14.17 1.3-8.25.32-18.25-1.08-28.16l42.81.95c.95 15 5.92 29.76 8.78 48.32Z" class="colorffd2d1 svgShape"></path><path fill="#f2b7b5" d="M945.18 512.73c3-8.08-2.64-34.46-22.48-29.1a46 46 0 0 1-22.13.5c1.3-8.25.32-18.25-1.08-28.16l42.81.95c1 15 5.92 29.75 8.78 48.31a55.91 55.91 0 0 1-5.9 7.5Z" class="colorf2b7b5 svgShape"></path><path fill="#2e2373" d="M911 530.11a26 26 0 0 1-10-1.84 1 1 0 1 1 .77-1.85c13 5.42 35.56-2 48.52-21.74a1 1 0 0 1 1.67 1.1c-10.64 16.14-27.56 24.33-40.96 24.33Z" class="color2e2373 svgShape"></path><path fill="#ffa6c6" d="M904 539.81c-7.07 0-14.38-4.17-18.72-10.87-3.94-6.07-5.72-14.14-5.16-23.33a1 1 0 0 1 1.06-.94 1 1 0 0 1 .94 1.06c-.54 8.77 1.13 16.41 4.83 22.12 4.39 6.77 12 10.71 19 9.84a1 1 0 0 1 .25 2 17.87 17.87 0 0 1-2.2.12ZM917.32 539.82a1 1 0 0 1-1-.8 1 1 0 0 1 .77-1.18 60.71 60.71 0 0 0 12.91-4.26 1 1 0 0 1 1.33.5 1 1 0 0 1-.49 1.32 63.54 63.54 0 0 1-13.31 4.4Z" class="colorffa6c6 svgShape"></path><path fill="#ffd2d1" d="M951.43 374.92c9.49 5.92-1.37 32.34 8.23 36.5 10.1-9.78 16.78-6.82 18.78 0 2.58 8.77-2.2 19.69-18.55 26.24-8.72 33.89-43.56 48.81-67.93 38.3-40.92-17.66-22.67-97.91-10-116.73-.02 0 45.15.53 69.47 15.69Z" class="colorffd2d1 svgShape"></path><path fill="#2e2373" d="M866.75 404.61s17.34-16.66 21.38-42.75c0 0 7.9 26.09 40.37 42.75 19.72 10.12 18.08 28.54 18.08 28.54s23.06-20.45 17.12-48-26.47-43.15-55.8-42.36c-20.9.59-44.77 18.21-41.15 61.82Z" class="color2e2373 svgShape"></path><ellipse cx="922.41" cy="423.48" fill="#4a3e9c" rx="4.3" ry="6.81" transform="rotate(-.68 927.708 425.965)" class="color4a3e9c svgShape"></ellipse><ellipse cx="922.41" cy="423.48" fill="#2e2373" rx="2.79" ry="4.42" transform="rotate(-.68 927.708 425.965)" class="color2e2373 svgShape"></ellipse><ellipse cx="924.18" cy="421.73" fill="#ffffff" rx="1.15" ry="1.33" transform="rotate(-5.96 924.643 421.904)" class="colorfff svgShape"></ellipse><ellipse cx="882.73" cy="420.21" fill="#4a3e9c" rx="6.81" ry="4.3" transform="rotate(-87.33 882.764 420.198)" class="color4a3e9c svgShape"></ellipse><ellipse cx="882.73" cy="420.21" fill="#2e2373" rx="4.42" ry="2.79" transform="rotate(-87.33 882.764 420.198)" class="color2e2373 svgShape"></ellipse><ellipse cx="884.59" cy="418.57" fill="#ffffff" rx="1.15" ry="1.33" transform="rotate(-2.61 885.326 418.962)" class="colorfff svgShape"></ellipse><path fill="#e0a3a2" d="M893.85 448.62c.89.43 1.59 1.22 2.45 1.73a13.7 13.7 0 0 0 2.6 1.22 12.72 12.72 0 0 0 5.61.63 14 14 0 0 0 4.8-1.46 42.61 42.61 0 0 0 4.51-3 .76.76 0 0 1 1.1.95c-1.65 3.79-6.26 5.94-10.19 6.37a15.65 15.65 0 0 1-6.65-.76 15.21 15.21 0 0 1-3-1.37 8.34 8.34 0 0 1-2.9-2.35 1.35 1.35 0 0 1 1.67-1.96Z" class="colore0a3a2 svgShape"></path><path fill="#2e2373" d="M916.84 410.32a10.54 10.54 0 0 1 9.69.43 11.77 11.77 0 0 1 2.45 2.17c.28.31-.09.81-.44.52a8.41 8.41 0 0 0-2.56-1.32 12.14 12.14 0 0 0-2.72-.66 10 10 0 0 0-2.68.07 16.67 16.67 0 0 0-2.69.81c-1.18.39-2.22-1.34-1.05-2.02ZM879 406.84a9 9 0 0 1 2.86-.87 10 10 0 0 1 2.94 0 5.87 5.87 0 0 1 2.94 1.05c.88.75 0 2.1-1 1.91a8.48 8.48 0 0 1-1.28-.47 9.57 9.57 0 0 0-1.13-.32A8.76 8.76 0 0 0 882 408a12.15 12.15 0 0 0-2.33.36 9.5 9.5 0 0 0-1.13.4 2 2 0 0 1-1.21.23.37.37 0 0 1-.28-.34c.1-.95 1.27-1.43 1.95-1.81Z" class="color2e2373 svgShape"></path><path fill="#e0a3a2" d="M899 431.39a16.9 16.9 0 0 0 3.4-11.8.42.42 0 0 1 .84-.12A15.74 15.74 0 0 1 902 429.9c-.76 1.48-2.18 2.84-2.63 4.45-.62 2.26 1.9 3.52 3.51 4.41a1.19 1.19 0 1 1-1.16 2.07c-1.67-1-3.41-2.39-4-4.36s.18-3.53 1.28-5.08Z" class="colore0a3a2 svgShape"></path><path fill="#ffa6c6" d="M880.72 642.21a1 1 0 0 1-.71-.29A112.62 112.62 0 0 1 847.15 562a1 1 0 0 1 1-1 1 1 0 0 1 1 1 110.64 110.64 0 0 0 32.27 78.46 1 1 0 0 1 0 1.41 1 1 0 0 1-.7.34ZM854.09 632.65a1 1 0 0 1-.77-.36 69.93 69.93 0 0 1-15.21-35 1 1 0 0 1 2-.26 68 68 0 0 0 14.77 34 1 1 0 0 1-.13 1.41 1 1 0 0 1-.66.21Z" class="colorffa6c6 svgShape"></path><path fill="#2e2373" d="M566.84 726.43a1 1 0 0 1-1-1 18.36 18.36 0 0 1 18.34-18.34h326.36a1 1 0 0 1 0 2H584.18a16.36 16.36 0 0 0-16.34 16.34 1 1 0 0 1-1 1ZM845.63 742.76h21.38v34.67h-21.38zM603.85 742.76h21.38v34.67h-21.38zM695.77 197.49h3.98v53.68h-3.98z" class="color2e2373 svgShape"></path><path fill="#ffffff" d="M691.12 690.72a4.23 4.23 0 0 1-1.92-8c31.95-16.27 18.27-91.46 10.92-131.85-5.88-32.33-5.25-56.27-4.74-75.51.28-10.44-2.69-46.78-3.42-55.59a4.23 4.23 0 0 1 8.44-.7c.78 9.27 3.72 46.27 3.45 56.52-.52 19.83-1.11 42.3 4.61 73.76 4.64 25.55 9.59 55 9.39 80.75-.24 32.11-8.36 51.79-24.81 60.17a4.14 4.14 0 0 1-1.92.45Z" class="colorfff svgShape"></path><path fill="#ff739d" d="M691.12 687.9a1.41 1.41 0 0 1-.64-2.67c33.82-17.23 19.9-93.76 12.42-134.87-5.83-32-5.2-55.82-4.7-74.93.28-10.53-2.68-46.94-3.43-55.91a1.42 1.42 0 0 1 1.29-1.52h.14a1.41 1.41 0 0 1 1.39 1.3c.76 9.12 3.71 46 3.44 56.21-.53 20-1.13 42.6 4.65 74.35 4.62 25.42 9.54 54.67 9.35 80.22-.23 30.95-7.85 49.82-23.27 57.68a1.43 1.43 0 0 1-.64.14Z" class="colorff739d svgShape"></path><path fill="#ffffff" d="M736.23 392.28h-.25a17.5 17.5 0 0 0-12.36 9.06 18.37 18.37 0 0 1-16.23 9.74h-1.7v6.59a8.78 8.78 0 0 1-17.55 0v-6.59a18.41 18.41 0 0 1-15.88-9.28 17.5 17.5 0 0 0-12.09-8.66c-1-.17-2-.36-3-.55a13.34 13.34 0 0 1-10.49-15.71q2.21-11.21 3.48-22.24a278.13 278.13 0 0 0 1.86-37.53 287.55 287.55 0 0 0-5.13-48.85 13.44 13.44 0 0 1 11.72-15.85 330.81 330.81 0 0 1 76.51-.17 13.43 13.43 0 0 1 11.62 15.89 271.46 271.46 0 0 0-5.06 49 288.41 288.41 0 0 0 2 37.53q1.28 10.95 3.38 21.91a13.46 13.46 0 0 1-10.83 15.71Z" class="colorfff svgShape"></path><path fill="#ff739d" d="M741.11 384a8.7 8.7 0 0 1-5.7 3.67h-.24a22.08 22.08 0 0 0-15.7 11.48 13.68 13.68 0 0 1-12.09 7.24h-1.69a4.71 4.71 0 0 0-4.71 4.71v6.59a4.07 4.07 0 1 1-8.13 0v-6.59a4.71 4.71 0 0 0-4.68-4.71 13.76 13.76 0 0 1-11.83-6.9 22.13 22.13 0 0 0-15.36-11l-2.88-.49a8.42 8.42 0 0 1-5.44-3.6 8.69 8.69 0 0 1-1.32-6.58 286.65 286.65 0 0 0 4.46-79.14c22.23-5.15 47 10.13 82.07 0a298 298 0 0 0 4.63 78.77 8.54 8.54 0 0 1-1.39 6.55Z" class="colorff739d svgShape"></path><path fill="#ffffff" d="M650.2 354.67a278.13 278.13 0 0 0 1.86-37.53h89.66a288.41 288.41 0 0 0 2 37.53ZM700.41 698.08c-2.34 1-4.76 3-7.22 5.88a2.24 2.24 0 0 1-3.67-.35 62.43 62.43 0 0 0-12-15.73 2.23 2.23 0 0 1 .5-3.66 17.52 17.52 0 0 0 6.9-6 2.23 2.23 0 0 1 3.22-.43A49.69 49.69 0 0 1 701.62 695a2.24 2.24 0 0 1-1.21 3.08Z" class="colorfff svgShape"></path><path fill="#2e2373" d="M646.72 377.91h-.19a1 1 0 0 1-.79-1.18 283.09 283.09 0 0 0 .26-108.25 14.21 14.21 0 0 1 2.55-11.23 14.54 14.54 0 0 1 10-5.81 333.45 333.45 0 0 1 76.75-.16 1 1 0 1 1-.24 2 331.64 331.64 0 0 0-76.28.17 12.44 12.44 0 0 0-10.85 14.67 285.29 285.29 0 0 1-.2 109 1 1 0 0 1-1.01.79Z" class="color2e2373 svgShape"></path><path fill="#ff739d" d="M707.81 332.54h-6.47v-6.47a3.37 3.37 0 0 0-6.73 0v6.47h-6.47a3.37 3.37 0 0 0 0 6.73h6.47v6.47a3.37 3.37 0 1 0 6.73 0v-6.47h6.47a3.37 3.37 0 1 0 0-6.73Z" class="colorff739d svgShape"></path><path fill="#ffd2d1" d="M630.35 624s14.4-8.11 16.84-12.13c4-6.66 12.66-20.75 20.63-18.73 5.23 1.33-5.06 20.5-.42 21 14 1.48 30.55-34.93 38.86-26.07 9.82 10.46 12.27 37-11.75 51.28s-56 16.76-56 16.76Z" class="colorffd2d1 svgShape"></path><path fill="#2e2373" d="M482.92 333.72a1 1 0 0 1-.08-2c5.45-.42 10.66-4.2 13.28-9.65a24.31 24.31 0 0 0 1-17.09c-1.41-5.06-4.19-10.14-8.48-15.55a75.71 75.71 0 0 0-13.48-13.17 1 1 0 1 1 1.21-1.59 77.31 77.31 0 0 1 13.83 13.52c4.47 5.62 7.36 10.93 8.85 16.25a26.27 26.27 0 0 1-1.16 18.5C495 329 489.14 333.25 483 333.72Z" class="color2e2373 svgShape"></path><path fill="#2e2373" d="M492.15 291.18c-16-34.57-83.23-37.57-100.37-.3 0 0-20.57 3.24-29.25 28.45-9.44 27.42 4.23 67.8 37.58 71.9l87.25-62.36s17.99-9.15 4.79-37.69Z" class="color2e2373 svgShape"></path><path fill="#ffffff" d="M515.37 632.74c3.54-37 4-71.11-1.65-100.46-7.37-38.35-25.1-68.68-59.86-87.19l-56.24-3.38s-89.17 18.19-90.24 115.92c-.82 75.39-2.15 219.45-2.15 219.45h218.31s-14.22-81.01-8.17-144.34Z" class="colorfff svgShape"></path><path fill="#d5d6ed" d="M348.88 584.48s9.4 57.8 38.28 89.61 13.23 64.22 13.23 64.22l37.45-21.66L449.55 645Z" class="colord5d6ed svgShape"></path><path fill="#cac8e3" d="M427.72 559a1 1 0 0 1-.93-.64 181.65 181.65 0 0 0-30.64-52.53 1 1 0 0 1 0-1.31 31.31 31.31 0 0 1 8.71-6.8 13.88 13.88 0 0 0-11.18-2.21 1 1 0 0 1-1.24-.93 222 222 0 0 1 4.05-53.28 1 1 0 1 1 2 .39 220.33 220.33 0 0 0-4.06 51.64 15.93 15.93 0 0 1 13 3.85 1 1 0 0 1 .31.9 1 1 0 0 1-.57.75 29.24 29.24 0 0 0-8.89 6.39 183.67 183.67 0 0 1 30.41 52.43 1 1 0 0 1-.58 1.29 1.13 1.13 0 0 1-.39.06Z" class="colorcac8e3 svgShape"></path><path fill="#2e2373" d="M523.54 778.08a1 1 0 0 1-1-.83c-.14-.81-14.17-81.86-8.17-144.61 4-41.74 3.46-73.57-1.64-100.18a1 1 0 1 1 2-.37c5.15 26.79 5.68 58.81 1.67 100.74-6 62.47 8 143.27 8.15 144.08a1 1 0 0 1-.81 1.16Z" class="color2e2373 svgShape"></path><path fill="#99baff" d="M488.59 777.08h-89.9c-2.85-47.84 26.38-183.79 21.88-230.15a460.47 460.47 0 0 0-15.9-84c-4-13.62-7.05-21.17-7.05-21.17l57.42 4c40.18 33.47 16.42 150.66 20.23 215.82a1007.81 1007.81 0 0 0 13.32 115.5Z" class="color99baff svgShape"></path><path fill="#7ea2eb" d="M460.46 777.08h-61.77c-2.85-47.84 26.38-183.79 21.88-230.15a460.47 460.47 0 0 0-15.9-84s33.48 51 27.11 111.45c-5.9 55.96 11.97 171.62 28.68 202.7Z" class="color7ea2eb svgShape"></path><path fill="#ffffff" d="m632.94 612.81-130.17 24.92-21.32 4.08s-12.57-24.24-27.61-52.43c-15.46-29-33.54-62.15-43.26-77.41-26.47-41.6-89.29 2.15-64 67.06 15.79 40.48 74.67 127.51 118.53 137 36.41 7.86 182-58.61 182-58.61Z" class="colorfff svgShape"></path><path fill="#cac8e3" d="M633 664.44a1 1 0 0 1-1-1 81.21 81.21 0 0 0-9.88-36.35 1 1 0 1 1 1.75-1A83.07 83.07 0 0 1 634 663.41a1 1 0 0 1-1 1ZM481.45 642.81a1 1 0 0 1-.89-.54c-.13-.24-12.74-24.56-27.6-52.42a1 1 0 1 1 1.76-.94c13.51 25.31 25.15 47.69 27.27 51.78l20.59-3.94a1 1 0 1 1 .38 2l-21.32 4.08a.65.65 0 0 1-.19-.02Z" class="colorcac8e3 svgShape"></path><path fill="#cac8e3" d="M464.55 665a1 1 0 0 1-.8-.41 1 1 0 0 1 .21-1.4 44.67 44.67 0 0 0 15.93-22 1 1 0 0 1 1.9.62 46.65 46.65 0 0 1-16.65 23 1 1 0 0 1-.59.19ZM481.59 655.22a1 1 0 0 1-.56-.17 1 1 0 0 1-.27-1.39 18.3 18.3 0 0 0 3.11-11.53 1 1 0 0 1 .93-1.07 1 1 0 0 1 1.07.93 20.35 20.35 0 0 1-3.45 12.8 1 1 0 0 1-.83.43Z" class="colorcac8e3 svgShape"></path><path fill="#2e2373" d="M472.23 717.65a34.55 34.55 0 0 1-7.29-.67c-43.72-9.43-102.89-95.65-119.25-137.58a1 1 0 0 1 .56-1.3 1 1 0 0 1 1.3.57c16.23 41.59 74.73 127.06 117.82 136.33 35.67 7.68 180-57.89 181.41-58.55a1 1 0 0 1 1.32.49 1 1 0 0 1-.49 1.33C642 660.86 517 717.65 472.23 717.65Z" class="color2e2373 svgShape"></path><path fill="#ffd2d1" d="M455 445.73c0 2.19-11.76 45.2-11.76 45.2s-38.23-41.56-45.66-49.22c.85-4.5 1.69-9 2.49-13.46a266.23 266.23 0 0 0 4.43-37c0-1.07.08-2.15.11-3.24l2.4.65L452.55 401c-1.67 13.5-1.14 20.52.29 30.13.6 4.17 1.37 8.78 2.16 14.6Z" class="colorffd2d1 svgShape"></path><path fill="#2e2373" d="M443.28 491.93a1 1 0 0 1-.74-.32c-.38-.42-38.3-41.64-45.64-49.2a1 1 0 1 1 1.44-1.39c7.35 7.58 45.29 48.82 45.68 49.23a1 1 0 0 1-.06 1.42 1 1 0 0 1-.68.26Z" class="color2e2373 svgShape"></path><path fill="#f2b7b5" d="M452.84 431.17c-6.83 1.33-18.55 2.18-30.37-3.49-12.06-5.8-19-2.41-22.36.57a266.23 266.23 0 0 0 4.43-37c.82-.87 1.67-1.75 2.51-2.59l45.5 12.34c-1.67 13.54-1.14 20.56.29 30.17Z" class="colorf2b7b5 svgShape"></path><path fill="#ffd2d1" d="M462.54 306.88c-1.07 11.05-8.39 18.68-22.35 24.61-12.38 5.26-32.92 7.3-36.4 22-9.85-11.18-20.43-9.42-22 0-1.69 10.34 3.15 19.44 15 25.62 1.07 27.82 26.8 56.86 60.88 44.8 34.7-12.28 40.13-74.78 29.63-95-4.07-12.05-16.55-8.48-24.76-22.03Z" class="colorffd2d1 svgShape"></path><ellipse cx="431.78" cy="363.87" fill="#4a3e9c" rx="7.54" ry="4.76" transform="rotate(-87.25 431.776 363.87)" class="color4a3e9c svgShape"></ellipse><ellipse cx="431.78" cy="363.87" fill="#2e2373" rx="4.89" ry="3.09" transform="rotate(-87.25 431.776 363.87)" class="color2e2373 svgShape"></ellipse><ellipse cx="429.89" cy="361.86" fill="#ffffff" rx="1.47" ry="1.27" transform="rotate(-81.97 429.9 361.865)" class="colorfff svgShape"></ellipse><ellipse cx="475.92" cy="362.76" fill="#4a3e9c" rx="4.76" ry="7.54" transform="rotate(-.6 476.525 363.465)" class="color4a3e9c svgShape"></ellipse><ellipse cx="475.92" cy="362.76" fill="#2e2373" rx="3.09" ry="4.89" transform="rotate(-.6 476.525 363.465)" class="color2e2373 svgShape"></ellipse><ellipse cx="473.92" cy="360.87" fill="#ffffff" rx="1.47" ry="1.27" transform="rotate(-85.32 473.93 360.864)" class="colorfff svgShape"></ellipse><path fill="#e0a3a2" d="M462.92 393.18c-.93.59-1.61 1.55-2.49 2.22a15.91 15.91 0 0 1-2.7 1.66 14.36 14.36 0 0 1-6.11 1.38 15.24 15.24 0 0 1-5.46-1 44.81 44.81 0 0 1-5.33-2.76.85.85 0 0 0-1.1 1.19c2.29 4 7.62 5.76 12 5.76A17.38 17.38 0 0 0 459 400a16.79 16.79 0 0 0 3.16-1.88 9.11 9.11 0 0 0 2.91-2.95 1.5 1.5 0 0 0-2.15-1.99Z" class="colore0a3a2 svgShape"></path><path fill="#2e2373" d="M437.3 350.42a11.58 11.58 0 0 0-10.73.09 12.68 12.68 0 0 0-2.8 2.31c-.33.33.07.89.46.59a9.37 9.37 0 0 1 2.89-1.37 13.66 13.66 0 0 1 3-.61 10.9 10.9 0 0 1 3 .18 19 19 0 0 1 2.95 1c1.29.49 2.5-1.39 1.23-2.19ZM479.3 348.08a10 10 0 0 0-3.14-1.08 10.73 10.73 0 0 0-3.25-.09 6.43 6.43 0 0 0-3.29 1c-1 .8-.09 2.33 1.06 2.15a9.22 9.22 0 0 0 1.43-.47c.27-.08.86-.23 1.26-.3a9.92 9.92 0 0 1 2.56-.11 13 13 0 0 1 2.56.49 8.88 8.88 0 0 1 1.24.49 2.18 2.18 0 0 0 1.33.3.39.39 0 0 0 .32-.36c-.04-.99-1.31-1.57-2.08-2.02Z" class="color2e2373 svgShape"></path><path fill="#e0a3a2" d="M456.19 374.46a18.74 18.74 0 0 1-3.29-13.2.47.47 0 0 0-.93-.18 17.46 17.46 0 0 0 1 11.61c.78 1.66 2.3 3.23 2.72 5 .6 2.53-2.23 3.83-4.05 4.75a1.32 1.32 0 1 0 1.19 2.34c1.9-1.08 3.88-2.52 4.6-4.67s-.06-3.9-1.24-5.65Z" class="colore0a3a2 svgShape"></path><path fill="#cac8e3" d="M322.25 739.31a1 1 0 0 1-1-1c0-2 .27-4.07.5-6.1a58.2 58.2 0 0 0 .49-5.89 1 1 0 0 1 .9-1 472.32 472.32 0 0 1 64.71-1.85 1 1 0 0 1 .72.34 1.05 1.05 0 0 1 .24.76c-.21 2-.5 4.17-.79 6.28s-.58 4.24-.77 6.19a1 1 0 0 1-1.08.9 333.4 333.4 0 0 0-63.8 1.35Zm2-12.08c-.08 1.71-.28 3.48-.48 5.2s-.37 3.21-.45 4.75a336.1 336.1 0 0 1 62.07-1.3c.19-1.71.44-3.52.68-5.29s.47-3.49.66-5.15a470.43 470.43 0 0 0-62.51 1.79ZM477.75 575.33a.68.68 0 0 1-.2 0 1 1 0 0 1-.79-1.17c3.54-17.9 8.05-36.36 17.05-50.42l-12.5-7.88a1 1 0 0 1-.47-.79 1 1 0 0 1 .38-.84c1.81-1.44 4.87-2.64 7.83-3.8a37.94 37.94 0 0 0 6.83-3.16c-6.15-28.7-30.33-51.64-40.5-60.21a1 1 0 1 1 1.29-1.53c10.4 8.77 35.24 32.36 41.29 62a1 1 0 0 1-.35 1c-1.82 1.45-4.88 2.65-7.83 3.81a47.48 47.48 0 0 0-6.11 2.7l12.06 7.6a1 1 0 0 1 .45.63 1 1 0 0 1-.15.77c-9.17 13.87-13.74 32.49-17.3 50.56a1 1 0 0 1-.98.73Z" class="colorcac8e3 svgShape"></path><path fill="#2e2373" d="M371.61 364.65a1 1 0 0 1-.75-.33 53.58 53.58 0 0 1-13.74-29.55 43.07 43.07 0 0 1 8.56-31.3c7.09-9 18.24-14.31 29.08-13.91a1 1 0 0 1 1 1 1 1 0 0 1-1 1c-10.26-.35-20.74 4.69-27.44 13.15a41 41 0 0 0-8.14 29.84A51.5 51.5 0 0 0 372.35 363a1 1 0 0 1-.74 1.67Z" class="color2e2373 svgShape"></path><path fill="#e0a3a2" d="M391 365.58a1 1 0 0 1-.44-.11c-2.6-1.28-4.15-4.38-4.38-8.7a7 7 0 0 1 1-4.58c1.51-2 4.32-2.21 6.28-1.49a14 14 0 0 1 4.87 3.53 1 1 0 0 1 0 1.42 1 1 0 0 1-1.41 0 12.63 12.63 0 0 0-4.15-3.08c-1.3-.48-3.14-.35-4 .8a5.23 5.23 0 0 0-.6 3.29c.11 2.06.67 5.73 3.27 7a1 1 0 0 1-.45 1.9Z" class="colore0a3a2 svgShape"></path><path fill="#2e2373" d="M1218.37 778.44h-1080a1 1 0 110-2h1080a1 1 0 010 2zM1049.51 742.07H723.15a1 1 0 010-2h326.36c9 0 16.34-7.7 16.34-17.18s-7.33-17.18-16.34-17.18a1 1 0 010-2c10.12 0 18.34 8.6 18.34 19.18s-8.22 19.18-18.34 19.18z" class="color2e2373 svgShape"></path><path fill="#2e2373" d="M984.6 741.07h21.38v36.36H984.6zM742.82 741.07h21.38v36.36h-21.38z" class="color2e2373 svgShape"></path><circle cx="542.92" cy="362.47" r="13.34" fill="#ffffff" class="colorfff svgShape"></circle><circle cx="307.26" cy="389.08" r="13.34" fill="#ffffff" class="colorfff svgShape"></circle><circle cx="605.84" cy="313.52" r="5.39" fill="#ffffff" class="colorfff svgShape"></circle><circle cx="600.45" cy="447.28" r="5.39" fill="#ffffff" class="colorfff svgShape"></circle><circle cx="332.22" cy="422.09" r="5.39" fill="#ffffff" class="colorfff svgShape"></circle><path fill="#2e2373" d="M1114.5 801.54H955.16a1 1 0 1 1 0-2h159.34a1 1 0 0 1 0 2Z" class="color2e2373 svgShape"></path><circle cx="1201.77" cy="586.65" r="9.47" fill="#ffbd69" class="colorffbd69 svgShape"></circle><circle cx="800.64" cy="304.1" r="9.47" fill="#ffbd69" class="colorffbd69 svgShape"></circle><circle cx="243.94" cy="462.88" r="9.47" fill="#ffbd69" class="colorffbd69 svgShape"></circle><circle cx="820.4" cy="323.27" r="4.37" fill="#80b5f5" class="color80b5f5 svgShape"></circle><circle cx="262.36" cy="511.67" r="4.37" fill="#80b5f5" class="color80b5f5 svgShape"></circle><circle cx="170.53" cy="595.55" r="4.96" fill="#ff73b7" class="colorff73b7 svgShape"></circle><circle cx="1195.22" cy="550.1" r="4.96" fill="#ff73b7" class="colorff73b7 svgShape"></circle></g></svg></g></svg>