<svg id="SvgjsSvg1001" width="550" height="550" xmlns="http://www.w3.org/2000/svg" version="1.1" xmlns:xlink="http://www.w3.org/1999/xlink" xmlns:svgjs="http://svgjs.com/svgjs"><defs id="SvgjsDefs1002"></defs><g id="SvgjsG1008"><svg xmlns="http://www.w3.org/2000/svg" viewBox="0 0 4680 3120" width="550" height="550"><defs><clipPath id="a"><path fill="none" d="M1332.55 2538.12S777.82 2187.05 848.4 1491.38s838.25-707.12 1180.91-616.92 1802.51-396 1900.45 909.07c0 0 15.75 664.81-632.55 746.22Z"></path></clipPath></defs><g data-name="6" fill="#000000" class="color000 svgShape"><ellipse cx="2325.44" cy="2655.53" fill="#ffe8ae" rx="1442.24" ry="104.47" class="colorffe8ae svgShape"></ellipse><path fill="#ffe8ae" d="M1328.57 2544s-556.71-352.29-485.88-1050.45 841.24-709.65 1185.13-619.13 1809-397.42 1907.24 912.33c0 0 15.8 667.18-634.81 748.88Z" class="colorffe8ae svgShape"></path><rect width="968.43" height="881.81" x="2094.23" y="1081.81" fill="#ffd892" rx="64.35" class="colorffd892 svgShape"></rect><rect width="848.47" height="772.58" x="2161.38" y="1132.61" fill="#fff3dc" rx="35.45" class="colorfff3dc svgShape"></rect><rect width="372.73" height="506.54" x="2229.5" y="1304" fill="#ffedc5" rx="22.94" class="colorffedc5 svgShape"></rect><rect width="281.97" height="18.66" x="2276.04" y="1381.57" fill="#fff8ee" rx="9.33" class="colorfff8ee svgShape"></rect><rect width="281.97" height="18.66" x="2276.04" y="1430.36" fill="#fff8ee" rx="9.33" class="colorfff8ee svgShape"></rect><rect width="281.97" height="18.66" x="2276.04" y="1479.15" fill="#fff8ee" rx="9.33" class="colorfff8ee svgShape"></rect><rect width="281.97" height="18.66" x="2276.04" y="1527.94" fill="#fff8ee" rx="9.33" class="colorfff8ee svgShape"></rect><rect width="281.97" height="18.66" x="2276.04" y="1576.73" fill="#fff8ee" rx="9.33" class="colorfff8ee svgShape"></rect><rect width="281.97" height="18.66" x="2276.04" y="1625.52" fill="#fff8ee" rx="9.33" class="colorfff8ee svgShape"></rect><rect width="281.97" height="18.66" x="2276.04" y="1674.32" fill="#fff8ee" rx="9.33" class="colorfff8ee svgShape"></rect><rect width="281.97" height="18.66" x="2276.04" y="1723.11" fill="#fff8ee" rx="9.33" class="colorfff8ee svgShape"></rect><path fill="#ffe4ae" d="M2636.94 1229.45h322.88v192.3h-322.88z" class="colorffe4ae svgShape"></path><path fill="#ffd78f" d="M2707.26 1363.24h275.53v161.83h-275.53z" class="colorffd78f svgShape"></path><rect width="253.52" height="253.52" x="2707.26" y="1565.58" fill="#ffd78f" rx="7.86" class="colorffd78f svgShape"></rect><rect width="210.02" height="210.02" x="2729.01" y="1587.34" fill="#ffedc5" rx="7.86" class="colorffedc5 svgShape"></rect><rect width="1328.8" height="868.19" x="993.99" y="693.72" fill="#6fd7e2" rx="71.32" class="color6fd7e2 svgShape"></rect><rect width="1328.8" height="868.19" x="1099.84" y="693.72" fill="#89e1ef" rx="71.32" class="color89e1ef svgShape"></rect><rect width="1254.23" height="793.62" x="1137.12" y="731" fill="#abefff" rx="34.04" class="colorabefff svgShape"></rect><path fill="#89e1ef" d="M1743.58 731h41.33v793.62h-41.33z" class="color89e1ef svgShape"></path><path fill="#d9fdff" d="M2265.62 1069.42h-84a57.17 57.17 0 0 1-57.17-57.17V817.77a17.06 17.06 0 0 1 17-17.06h164.27a17.06 17.06 0 0 1 17.05 17.06v194.48a57.17 57.17 0 0 1-57.15 57.17ZM2256.51 780.33h-65.82l-12.4 20.38h90.63Zm-32.9 15.67a5.24 5.24 0 1 1 5.23-5.23 5.24 5.24 0 0 1-5.23 5.23Z" class="colord9fdff svgShape"></path><path fill="#9cecff" d="M2184.31 1055.53a50.09 50.09 0 0 1-50-50V869.9a15.57 15.57 0 0 1 15.55-15.55h147.55a15.56 15.56 0 0 1 15.55 15.55v135.6a50.09 50.09 0 0 1-50 50Z" class="color9cecff svgShape"></path><path fill="#f76998" d="M2304.32 874.42v128.39a43.51 43.51 0 0 1-43.51 43.51h-74.41a43.5 43.5 0 0 1-43.5-43.51V874.42a10.85 10.85 0 0 1 10.85-10.86h139.71a10.86 10.86 0 0 1 10.86 10.86Z" class="colorf76998 svgShape"></path><path fill="#54d2ef" d="M2259.59 1084.09h-69.78a4.57 4.57 0 0 1-4.57-4.58v-10.09h78.92v10.09a4.58 4.58 0 0 1-4.57 4.58Z" class="color54d2ef svgShape"></path><path fill="#d9fdff" d="M1989.12 1069.42h-84a57.17 57.17 0 0 1-57.17-57.17V817.77a17.05 17.05 0 0 1 17-17.06h164.26a17.06 17.06 0 0 1 17.06 17.06v194.48a57.17 57.17 0 0 1-57.15 57.17ZM1980 780.33h-65.82l-12.4 20.38h90.63ZM1947.11 796a5.24 5.24 0 1 1 5.23-5.23 5.24 5.24 0 0 1-5.23 5.23Z" class="colord9fdff svgShape"></path><path fill="#9cecff" d="M1907.81 1055.53a50.09 50.09 0 0 1-50-50V869.9a15.57 15.57 0 0 1 15.55-15.55h147.55a15.56 15.56 0 0 1 15.55 15.55v135.6a50.09 50.09 0 0 1-50 50Z" class="color9cecff svgShape"></path><path fill="#f76998" d="M2027.82 874.42v128.39a43.51 43.51 0 0 1-43.51 43.51h-74.41a43.5 43.5 0 0 1-43.5-43.51V874.42a10.85 10.85 0 0 1 10.85-10.86H2017a10.86 10.86 0 0 1 10.82 10.86Z" class="colorf76998 svgShape"></path><path fill="#54d2ef" d="M1983.09 1084.09h-69.78a4.58 4.58 0 0 1-4.58-4.58v-10.09h78.93v10.09a4.58 4.58 0 0 1-4.57 4.58Z" class="color54d2ef svgShape"></path><path fill="#d9fdff" d="M2265.62 1412.88h-84a57.18 57.18 0 0 1-57.17-57.17v-194.49a17.06 17.06 0 0 1 17-17h164.27a17.06 17.06 0 0 1 17.05 17v194.49a57.18 57.18 0 0 1-57.15 57.17ZM2256.51 1123.79h-65.82l-12.4 20.38h90.63Zm-32.9 15.66a5.24 5.24 0 1 1 5.23-5.24 5.25 5.25 0 0 1-5.23 5.24Z" class="colord9fdff svgShape"></path><path fill="#9cecff" d="M2184.31 1399a50.09 50.09 0 0 1-50-50v-135.64a15.58 15.58 0 0 1 15.55-15.56h147.55a15.57 15.57 0 0 1 15.55 15.56V1349a50.09 50.09 0 0 1-50 50Z" class="color9cecff svgShape"></path><path fill="#f76998" d="M2304.32 1217.88v128.38a43.51 43.51 0 0 1-43.51 43.51h-74.41a43.5 43.5 0 0 1-43.5-43.51v-128.38a10.86 10.86 0 0 1 10.85-10.87h139.71a10.87 10.87 0 0 1 10.86 10.87Z" class="colorf76998 svgShape"></path><path fill="#54d2ef" d="M2259.59 1427.55h-69.78a4.57 4.57 0 0 1-4.57-4.58v-10.09h78.92V1423a4.58 4.58 0 0 1-4.57 4.55Z" class="color54d2ef svgShape"></path><path fill="#d9fdff" d="M1989.12 1412.88h-84a57.18 57.18 0 0 1-57.17-57.17v-194.49a17.05 17.05 0 0 1 17-17h164.26a17.06 17.06 0 0 1 17.06 17v194.49a57.18 57.18 0 0 1-57.15 57.17ZM1980 1123.79h-65.82l-12.4 20.38h90.63Zm-32.9 15.66a5.24 5.24 0 1 1 5.23-5.24 5.25 5.25 0 0 1-5.22 5.24Z" class="colord9fdff svgShape"></path><path fill="#9cecff" d="M1907.81 1399a50.09 50.09 0 0 1-50-50v-135.64a15.58 15.58 0 0 1 15.55-15.56h147.55a15.57 15.57 0 0 1 15.55 15.56V1349a50.09 50.09 0 0 1-50 50Z" class="color9cecff svgShape"></path><path fill="#f76998" d="M2027.82 1217.88v128.38a43.51 43.51 0 0 1-43.51 43.51h-74.41a43.5 43.5 0 0 1-43.5-43.51v-128.38a10.86 10.86 0 0 1 10.85-10.87H2017a10.87 10.87 0 0 1 10.82 10.87Z" class="colorf76998 svgShape"></path><path fill="#54d2ef" d="M1983.09 1427.55h-69.78a4.58 4.58 0 0 1-4.58-4.58v-10.09h78.93V1423a4.58 4.58 0 0 1-4.57 4.55Z" class="color54d2ef svgShape"></path><path fill="#d9fdff" d="M1621 1069.42h-84a57.16 57.16 0 0 1-57.17-57.17V817.77a17.05 17.05 0 0 1 17-17.06h164.26a17.05 17.05 0 0 1 17.05 17.06v194.48a57.16 57.16 0 0 1-57.14 57.17ZM1611.86 780.33H1546l-12.41 20.38h90.64ZM1579 796a5.24 5.24 0 1 1 5.23-5.23A5.23 5.23 0 0 1 1579 796Z" class="colord9fdff svgShape"></path><path fill="#9cecff" d="M1539.65 1055.53a50.09 50.09 0 0 1-50-50V869.9a15.56 15.56 0 0 1 15.55-15.55h147.55a15.57 15.57 0 0 1 15.55 15.55v135.6a50.1 50.1 0 0 1-50 50Z" class="color9cecff svgShape"></path><path fill="#f76998" d="M1659.66 874.42v128.39a43.51 43.51 0 0 1-43.5 43.51h-74.42a43.51 43.51 0 0 1-43.5-43.51V874.42a10.86 10.86 0 0 1 10.86-10.86h139.71a10.86 10.86 0 0 1 10.85 10.86Z" class="colorf76998 svgShape"></path><path fill="#54d2ef" d="M1614.93 1084.09h-69.77a4.58 4.58 0 0 1-4.58-4.58v-10.09h78.93v10.09a4.58 4.58 0 0 1-4.58 4.58Z" class="color54d2ef svgShape"></path><path fill="#d9fdff" d="M1344.46 1069.42h-84a57.16 57.16 0 0 1-57.17-57.17V817.77a17.05 17.05 0 0 1 17-17.06h164.26a17.05 17.05 0 0 1 17.05 17.06v194.48a57.16 57.16 0 0 1-57.14 57.17ZM1335.35 780.33h-65.81l-12.41 20.38h90.64Zm-32.9 15.67a5.24 5.24 0 1 1 5.23-5.23 5.23 5.23 0 0 1-5.23 5.23Z" class="colord9fdff svgShape"></path><path fill="#9cecff" d="M1263.15 1055.53a50.09 50.09 0 0 1-50-50V869.9a15.56 15.56 0 0 1 15.55-15.55h147.55a15.57 15.57 0 0 1 15.55 15.55v135.6a50.1 50.1 0 0 1-50 50Z" class="color9cecff svgShape"></path><path fill="#f76998" d="M1383.16 874.42v128.39a43.51 43.51 0 0 1-43.51 43.51h-74.41a43.5 43.5 0 0 1-43.5-43.51V874.42a10.86 10.86 0 0 1 10.86-10.86h139.71a10.86 10.86 0 0 1 10.85 10.86Z" class="colorf76998 svgShape"></path><path fill="#54d2ef" d="M1338.43 1084.09h-69.77a4.58 4.58 0 0 1-4.58-4.58v-10.09H1343v10.09a4.58 4.58 0 0 1-4.57 4.58Z" class="color54d2ef svgShape"></path><path fill="#d9fdff" d="M1621 1412.88h-84a57.17 57.17 0 0 1-57.17-57.17v-194.49a17.05 17.05 0 0 1 17-17h164.26a17.05 17.05 0 0 1 17.05 17v194.49a57.17 57.17 0 0 1-57.14 57.17ZM1611.86 1123.79H1546l-12.41 20.38h90.64Zm-32.86 15.66a5.24 5.24 0 1 1 5.23-5.24 5.24 5.24 0 0 1-5.23 5.24Z" class="colord9fdff svgShape"></path><path fill="#9cecff" d="M1539.65 1399a50.09 50.09 0 0 1-50-50v-135.64a15.57 15.57 0 0 1 15.55-15.56h147.55a15.58 15.58 0 0 1 15.55 15.56V1349a50.1 50.1 0 0 1-50 50Z" class="color9cecff svgShape"></path><path fill="#f76998" d="M1659.66 1217.88v128.38a43.51 43.51 0 0 1-43.5 43.51h-74.42a43.51 43.51 0 0 1-43.5-43.51v-128.38a10.87 10.87 0 0 1 10.86-10.88h139.71a10.86 10.86 0 0 1 10.85 10.88Z" class="colorf76998 svgShape"></path><path fill="#54d2ef" d="M1614.93 1427.55h-69.77a4.58 4.58 0 0 1-4.58-4.58v-10.09h78.93V1423a4.58 4.58 0 0 1-4.58 4.55Z" class="color54d2ef svgShape"></path><path fill="#d9fdff" d="M1344.46 1412.88h-84a57.17 57.17 0 0 1-57.17-57.17v-194.49a17.05 17.05 0 0 1 17-17h164.26a17.05 17.05 0 0 1 17.05 17v194.49a57.17 57.17 0 0 1-57.14 57.17ZM1335.35 1123.79h-65.81l-12.41 20.38h90.64Zm-32.9 15.66a5.24 5.24 0 1 1 5.23-5.24 5.24 5.24 0 0 1-5.23 5.24Z" class="colord9fdff svgShape"></path><path fill="#9cecff" d="M1263.15 1399a50.09 50.09 0 0 1-50-50v-135.64a15.57 15.57 0 0 1 15.55-15.56h147.55a15.58 15.58 0 0 1 15.55 15.56V1349a50.1 50.1 0 0 1-50 50Z" class="color9cecff svgShape"></path><path fill="#f76998" d="M1383.16 1217.88v128.38a43.51 43.51 0 0 1-43.51 43.51h-74.41a43.5 43.5 0 0 1-43.5-43.51v-128.38a10.87 10.87 0 0 1 10.86-10.88h139.71a10.86 10.86 0 0 1 10.85 10.88Z" class="colorf76998 svgShape"></path><path fill="#54d2ef" d="M1338.43 1427.55h-69.77a4.58 4.58 0 0 1-4.58-4.58v-10.09H1343V1423a4.58 4.58 0 0 1-4.57 4.55Z" class="color54d2ef svgShape"></path><path fill="#166dd6" d="M2537.1 1945.09a211.68 211.68 0 0 1-21.36 43.82 34.13 34.13 0 0 1-43.62 48.27c-21.25 16.49-45.49 27.53-70.78 31.4a145.29 145.29 0 0 1-22.17 1.66c-54 0-103.44-28.85-137-54.86-19.38-15-37.62-31.77-55.23-48-21.74-20-44.23-40.64-68.52-57.58-19.38-13.54-56.41-34.07-86.32-19.65a11.47 11.47 0 0 1-9.95-20.68c30-14.42 68.8-6.79 109.38 21.51 25.58 17.84 48.64 39 70.95 59.51 17.27 15.89 35.1 32.29 53.74 46.72 34.56 26.78 87.22 57 141.68 48.67 20.44-3.1 40.12-11.82 57.64-24.93a34.14 34.14 0 0 1 42.5-46.89 190.11 190.11 0 0 0 17.41-36.59c16.23-46.09 18.3-101 6.48-172.7-3.5-21.42-7.94-43.16-12.24-64.21-1-4.65-1.93-9.32-2.87-14a26 26 0 0 1-8.89-47.15 775.82 775.82 0 0 1-3.42-22A34.13 34.13 0 0 1 2489 1552c-1.15-44.45 2.81-98 21.13-144.65a11.46 11.46 0 0 1 21.34 8.37c-14.08 35.91-20.79 83.34-19.5 136a34.16 34.16 0 0 1 5.19 62.35c1 7.48 2.24 15 3.5 22.48a26 26 0 0 1 8.4 44.51c1 5 2 10 3.07 15 4.33 21.25 8.83 43.22 12.42 65.1 7.87 47.54 15.61 118.43-7.45 183.93Z" class="color166dd6 svgShape"></path><path fill="#e22b57" d="M2379.18 2061.64c-52.28 0-100.5-28.86-131.74-53.07-19.12-14.82-37.19-31.43-54.68-47.49-22-20.19-44.66-41-69.42-58.32-17.08-11.91-42.86-26.12-68.69-26.12a60 60 0 0 0-26.27 5.78 2.89 2.89 0 0 1-1.24.29 2.87 2.87 0 0 1-1.25-5.46 65.31 65.31 0 0 1 28.63-6.28c21.76 0 46.69 9.37 72.1 27.09 25.07 17.49 47.91 38.47 70 58.77 17.41 16 35.4 32.53 54.33 47.2 30.54 23.67 77.57 51.88 128.22 51.88a132.6 132.6 0 0 0 20-1.51c54.1-8.25 102.92-53 124.4-114.05 16.71-47.52 18.89-103.75 6.85-176.94-3.55-21.59-8-43.44-12.32-64.56-7.55-37-15.34-75.11-18.58-113.33-4.05-47.88-4.11-117.11 18.64-175a2.84 2.84 0 0 1 3.7-1.62 2.8 2.8 0 0 1 1.59 1.53 2.86 2.86 0 0 1 .05 2.19c-17.44 44.39-23.92 105.63-18.26 172.45 3.2 37.9 11 75.9 18.47 112.65 4.33 21.17 8.8 43 12.38 64.79 7.67 46.69 15.28 116.12-7.11 179.78-22.17 63-72.78 109.26-128.94 117.82a139 139 0 0 1-20.86 1.53Z" class="colore22b57 svgShape"></path><path fill="#166dd6" d="M2865.56 491.56v683.51A200.69 200.69 0 0 1 2664.64 1376h-295.31a200.68 200.68 0 0 1-200.91-200.91V491.56a59.93 59.93 0 0 1 59.93-59.92h577.28a59.9 59.9 0 0 1 59.93 59.92Z" class="color166dd6 svgShape"></path><path fill="#4097ff" d="M2601.8 360h-169.62a54.88 54.88 0 0 0-46.87 26.33l-27.59 45.31h318.54l-27.59-45.31A54.88 54.88 0 0 0 2601.8 360Zm-83 54.93a18.38 18.38 0 1 1 16.42-16.41 18.38 18.38 0 0 1-16.37 16.41Z" opacity=".79" class="color4097ff svgShape"></path><path fill="#1d7edd" d="m2376.19 431.64-207.77 493.73V605.08l72.99-173.44h134.78zM2587.29 431.64l-368.72 876.21a200.12 200.12 0 0 1-46-91.9l330.06-784.31ZM2865.56 491.56v334.7L2634.24 1376h-169.42l387.82-921.6a59.7 59.7 0 0 1 12.92 37.16ZM2865.56 1018v100.72l-95.76 227.56a199.13 199.13 0 0 1-51.87 22.55Z" class="color1d7edd svgShape"></path><path fill="#4097ff" d="M2378.88 1327.15c-96.94 0-175.8-78.87-175.8-175.83V674.78a54.72 54.72 0 0 1 54.64-54.67h518.56a54.72 54.72 0 0 1 54.64 54.67v476.54c0 97-78.88 175.83-175.83 175.83Z" class="color4097ff svgShape"></path><path fill="#d4edff" d="M2816.58 674.78v476.54a161.5 161.5 0 0 1-161.49 161.5h-276.21a161.48 161.48 0 0 1-161.46-161.5V674.78a40.31 40.31 0 0 1 40.3-40.33h518.56a40.33 40.33 0 0 1 40.3 40.33Z" opacity=".79" class="colord4edff svgShape"></path><path fill="#c91b4c" d="M2428.64 796s83.11 31.44 216.08 4.72 171.86-8.34 171.86 17.64-171.86 37.57-171.86 37.57Z" class="colorc91b4c svgShape"></path><path fill="#e22b57" d="M2816.58 818.35v333a161.5 161.5 0 0 1-161.49 161.5h-276.21a161.48 161.48 0 0 1-161.46-161.5V776.22s88.38-52.17 228.78 0 323.95 76.22 370.38 42.13Z" class="colore22b57 svgShape"></path><path fill="#ffffff" d="M2517 1227.8c-261.22-127.64-192.95-316.14-106.85-320.58S2517 977 2517 977s20.78-74.21 106.88-69.76 154.33 192.92-106.88 320.56Z" class="colorfff svgShape"></path><path fill="#e22b57" d="M2492.1 1115.75a2.39 2.39 0 0 1-2.35-1.93l-9.6-49.3H2443l-5.81 17.83a2.39 2.39 0 0 1-4.63-.34l-7.57-44-10.39 63.06a2.39 2.39 0 0 1-4.61.43l-13-35.63h-24.64a2.39 2.39 0 1 1 0-4.78h26.32a2.37 2.37 0 0 1 2.24 1.57l10.49 28.65 11.22-68.08a2.39 2.39 0 0 1 2.35-2 2.38 2.38 0 0 1 2.35 2l8.35 48.49 3.36-10.29a2.37 2.37 0 0 1 2.27-1.65h40.83a2.38 2.38 0 0 1 2.34 1.93l7.64 39.18 17.61-90.47a2.4 2.4 0 0 1 2.33-1.94 2.4 2.4 0 0 1 2.34 1.91l11.4 54.67h49.61l6.88-35.59a2.39 2.39 0 0 1 2.32-1.93 2.36 2.36 0 0 1 2.37 1.88l13.48 61.4 6.31-44.89a2.39 2.39 0 0 1 4.6-.53l7.64 19.6h45.54a2.39 2.39 0 1 1 0 4.78h-47.18a2.41 2.41 0 0 1-2.24-1.53l-4.85-12.59-6.88 48.94a2.39 2.39 0 0 1-4.7.18l-13.85-63.09-5.06 26.15a2.39 2.39 0 0 1-2.35 1.94h-53.53a2.39 2.39 0 0 1-2.34-1.9l-9.37-45-17.69 90.88a2.4 2.4 0 0 1-2.4 1.99Z" class="colore22b57 svgShape"></path><path fill="#4097ff" d="M2643.45 1427.53h-245.22a16.08 16.08 0 0 1-16.08-16.08V1376h277.38v35.47a16.08 16.08 0 0 1-16.08 16.06Z" class="color4097ff svgShape"></path><circle cx="2377.1" cy="1207.01" r="33.98" fill="#f2407b" class="colorf2407b svgShape"></circle><circle cx="2443.05" cy="1246.04" r="20.36" fill="#f2407b" class="colorf2407b svgShape"></circle><circle cx="2673.57" cy="1186.65" r="14.04" fill="#f2407b" class="colorf2407b svgShape"></circle><circle cx="2727.23" cy="1144.19" r="23.34" fill="#f2407b" class="colorf2407b svgShape"></circle><circle cx="2304.83" cy="888.7" r="25.33" fill="#f2407b" class="colorf2407b svgShape"></circle><circle cx="2678.55" cy="1220.88" r="11.67" fill="#f2407b" class="colorf2407b svgShape"></circle><circle cx="2337.11" cy="849.67" r="11.67" fill="#f2407b" class="colorf2407b svgShape"></circle><rect width="213.08" height="68.59" x="2246.78" y="659.42" fill="#ffffff" rx="28.96" class="colorfff svgShape"></rect><path fill="#2073c6" d="M2351.65 715.64a3.37 3.37 0 0 1-1.24 2.62 4.26 4.26 0 0 1-2.85 1.07 3.7 3.7 0 0 1-3.48-2.35l-4-9h-23.57l-4 9a3.82 3.82 0 0 1-1.47 1.78 3.94 3.94 0 0 1-2.08.57 4.26 4.26 0 0 1-2.81-1.07 3.32 3.32 0 0 1-1.28-2.62 4.1 4.1 0 0 1 .41-1.74l18.48-39.71a4.31 4.31 0 0 1 1.84-2 5.28 5.28 0 0 1 5.29 0 4.26 4.26 0 0 1 1.84 2l18.56 39.71a4.24 4.24 0 0 1 .36 1.74Zm-32.22-14.33h17.68l-8.84-19.89ZM2393.54 698.83a12 12 0 0 1 2.24 7.37 11.35 11.35 0 0 1-4.32 9.44q-4.32 3.42-11.89 3.42h-17.27a4.2 4.2 0 0 1-3.05-1.07 4 4 0 0 1-1.11-3v-39a4 4 0 0 1 1.11-3 4.16 4.16 0 0 1 3.05-1.08h16.6q7.36 0 11.56 3.25a11.84 11.84 0 0 1 2.21 15.57 11.34 11.34 0 0 1-5.46 4 11.45 11.45 0 0 1 6.33 4.1Zm-27-7.1h10.92q8.89 0 8.9-6.63a5.69 5.69 0 0 0-2.21-5q-2.21-1.6-6.69-1.61h-10.92Zm18.89 19q2.15-1.68 2.14-5.23a6.38 6.38 0 0 0-2.18-5.29q-2.17-1.74-6.79-1.74h-12.06v13.93h12.06q4.72-.04 6.87-1.71Z" class="color2073c6 svgShape"></path><circle cx="2501.25" cy="1583.74" r="19.07" fill="#e22b57" class="colore22b57 svgShape"></circle><circle cx="2512.56" cy="1661.01" r="15.27" fill="#e22b57" class="colore22b57 svgShape"></circle><circle cx="2487.12" cy="2006.13" r="22.72" fill="#e22b57" class="colore22b57 svgShape"></circle><rect width="593.63" height="26.52" x="2217.42" y="478.65" fill="#095eb2" rx="13.26" class="color095eb2 svgShape"></rect><path fill="#f9b443" d="m1277.89 2108.6-33.42 296.17-13.37 118.47a102.41 102.41 0 0 1-101.76 91H994.66a102.44 102.44 0 0 1-101.79-91l-28.59-253.38-18.2-161.26Z" class="colorf9b443 svgShape"></path><path fill="#e08605" d="M1277.9 2108.61c0 7.18-20.41 13.74-54.05 18.73-39.56 5.87-97.41 9.57-161.86 9.57-74.62 0-140.4-5-179.18-12.51-23.2-4.5-36.73-10-36.73-15.79 0-15.63 96.67-28.3 215.91-28.3s215.91 12.69 215.91 28.3Z" class="colore08605 svgShape"></path><path fill="#aa6100" d="M1223.85 2127.34c-39.56 5.87-97.41 9.57-161.86 9.57-74.62 0-140.4-5-179.18-12.51 28.61-4.71 111.09-17 190.07-17 60.48-.04 116.86 11.31 150.97 19.94Z" class="coloraa6100 svgShape"></path><path fill="#156842" d="M1001.21 1855.83s-26.2-51.24-92.59-52.41c-87.16-1.52-132.48-24.45-151.09-70.56s-8.09-128.64-8.09-128.64-140-176.37-6.47-233 200.95 85.47 209 111.65c23 74.62-14 129.45 28 166.66s47.73 71.2 42.07 118.12-24.73 63.91-20.83 88.18Z" class="color156842 svgShape"></path><path fill="#09492a" d="M1023.93 2149.15a2.38 2.38 0 0 1-2.32-3c.06-.22 5.69-23.05 5.69-70 0-43.32-4.92-116.63-28.43-219.83-28.52-125.24-64-168.88-90-200.75-15.29-18.79-27.37-33.63-31.81-58.57-11.39-64.11-59.56-148-60-148.8a2.39 2.39 0 0 1 4.14-2.39c.49.85 49.07 85.41 60.61 150.35 4.22 23.72 15.37 37.43 30.81 56.39 26.24 32.24 62.16 76.38 90.94 202.71 23.64 103.81 28.57 177.59 28.55 221.2 0 47.42-5.61 69.91-5.85 70.85a2.38 2.38 0 0 1-2.33 1.84Z" class="color09492a svgShape"></path><path fill="#55bf94" d="M1047.71 1916.41s-40.27-39.11-27.61-69 20.71-46 20.71-86.29c0 0-8.27-105.68 21.17-160.41s83.52-40.93 107.68-73.14 39.34-88.57 108.24-81.71 42.48 93.75 52.83 141.22 23 167.12-78.23 224.64-97.17 141.44-204.79 104.69Z" class="color55bf94 svgShape"></path><path fill="#09492a" d="M1027 2082.7a2.39 2.39 0 0 1-2.39-2.39c0-.77.31-78.15 26.68-183.34a916.72 916.72 0 0 1 63.35-175.86c33.2-68.66 74.73-130.84 123.43-184.81a2.39 2.39 0 0 1 3.55 3.21C1132 1660.93 1080.18 1801.47 1056 1898c-26.25 104.65-26.57 181.55-26.57 182.32a2.39 2.39 0 0 1-2.43 2.38Z" class="color09492a svgShape"></path><path fill="#288e67" d="M941 1973.71s-14.34-29.48-5.58-68.52 17.53-92.42-59.76-77.28S737 1684.49 615.1 1745c0 0-43.82 22.31-6.38 78.08 0 0 8.77 17.53-15.13 20.72s-71.71 15.94-64.54 73.3 66.93 54.18 121.9 51 70.92 17.53 56.57 30.28-35 84.9 31.08 81.89 156.17-129.66 202.4-106.56Z" class="color288e67 svgShape"></path><path fill="#09492a" d="M999.14 2071.72a2.39 2.39 0 0 1-2.28-1.69c-30.59-99.11-125.15-155.11-199.09-184.63-80.34-32.08-154.31-40.69-155-40.78a2.39 2.39 0 1 1 .53-4.75c.75.08 75.36 8.78 156.29 41.09 47.6 19 88.07 42.34 120.28 69.37 40.38 33.88 67.84 73.68 81.61 118.29a2.39 2.39 0 0 1-1.58 3 2.45 2.45 0 0 1-.76.1Z" class="color09492a svgShape"></path><path fill="#156842" d="M987.64 2061.78s-36.45-26.63-63.12-13.29c-39.87 19.93-31.35 88.42 25.47 147.29l21 32.11s8.86-38.76 28.8-49.83 81.12-54.27 62.15-105.21-74.3-11.07-74.3-11.07Z" class="color156842 svgShape"></path><path fill="#09492a" d="M964.77 2193a2.39 2.39 0 0 1-2.37-2.15c-10.25-104.64 22.43-130 23.83-131a2.39 2.39 0 0 1 2.84 3.84c-.12.09-8 6.26-14.67 24.75-6.17 17.22-12.44 48.87-7.24 101.94A2.39 2.39 0 0 1 965 2193Z" class="color09492a svgShape"></path><path fill="#156842" d="M1155.37 2013.34s14.34-29.48 5.58-68.53-17.53-92.42 59.75-77.28 138.64-143.42 260.55-82.87c0 0 43.82 22.31 6.37 78.09 0 0-8.76 17.52 15.14 20.71s71.71 15.94 64.54 73.31-66.93 54.18-121.91 51-70.91 17.53-56.57 30.28 35.06 84.9-31.07 81.89-156.17-129.71-202.38-106.6Z" class="color156842 svgShape"></path><path fill="#09492a" d="M1097.21 2111.34a2.15 2.15 0 0 1-.71-.11 2.39 2.39 0 0 1-1.58-3c13.77-44.61 41.22-84.4 81.61-118.29 32.21-27 72.68-50.36 120.28-69.37 80.93-32.31 155.54-41 156.28-41.09a2.39 2.39 0 1 1 .54 4.75c-.74.09-74.8 8.73-155.15 40.82-73.9 29.53-168.41 85.51-199 184.59a2.39 2.39 0 0 1-2.27 1.7Z" class="color09492a svgShape"></path><path fill="#efa437" d="m1244.47 2404.77-13.37 118.47a102.41 102.41 0 0 1-101.76 91H994.66a102.44 102.44 0 0 1-101.79-91l-28.59-253.38c64.18 62.76 184.29 141.27 380.19 134.91Z" class="colorefa437 svgShape"></path><path fill="#249fbc" d="M2202.79 2365.66v144.49a124.06 124.06 0 0 1-124.13 124.12h-816.6a124.12 124.12 0 0 1-124.12-124.12v-144.49a124.12 124.12 0 0 1 124.12-124.12h816.6a124.12 124.12 0 0 1 124.13 124.12Z" class="color249fbc svgShape"></path><path fill="#1597ad" d="M2202.79 2365.66v144.49a123.92 123.92 0 0 1-.63 12.55h-804.62a124.12 124.12 0 0 1-124.12-124.12v-144.49a123.92 123.92 0 0 1 .63-12.55h804.61a124.12 124.12 0 0 1 124.13 124.12Z" class="color1597ad svgShape"></path><path fill="#4dbfd9" d="M1764.6 1750.94s-118.75-341.83-432.37-293.08-417.14 587.68 0 837.36c0 0 197.91 88.3 432.37 73.08s310.58-24.36 328.85 88.3 145.2 50.16 179.64-60.9-23.31-334.93-23.31-334.93l-494.71-57.85Z" class="color4dbfd9 svgShape"></path><path fill="#249fbc" d="M1373.3 1876.38s-58.3-209.82 9.7-281.54 129.63 95 129.63 95Z" class="color249fbc svgShape"></path><path fill="#fbbd9d" d="m1831.36 1812.54 88.29 63.84 181.12 10.89s33.46-37.33 82.68-37.37l62 16.7s2 18.7-16.74 20.67a191.65 191.65 0 0 1-36.42 0l30.52 22.64s48.23-8.35 65 8.62-29.86 62.08-56.76 69.06-339.93-7.79-339.93-7.79l-130.94-73.8 15.75-50.2Z" class="colorfbbd9d svgShape"></path><path fill="#f7ab8b" d="M1792.39 1869.32s30.19 16 46 36.89 54.63 56.12 113 53.71-181.39 46.21-181.39 46.21l-36.88-81.46Z" class="colorf7ab8b svgShape"></path><path fill="#364254" d="M1867.43 1964.18s259-67.1 363.6 23.41 56.18 351.11 56.18 351.11L1755.07 2129Z" class="color364254 svgShape"></path><path fill="#fbbd9d" d="M2648.79 2495.11s-46.1 56.87-74.53 91.21-42.17 60.8-68.67 67.67c-23.08 6-38.7-5.19-56-37.39-2.57-4.73-5.13-9.91-7.78-15.58l-31.37-35.3-66-51.63s7.12-72 43.42-85.68l71.58 90.23H2487s0-10.79 21.6-12.76 60.81-6.87 60.81-6.87 44.13-32.37 61.77-25.5 17.61 21.6 17.61 21.6Z" class="colorfbbd9d svgShape"></path><path fill="#fbbd9d" d="M2402.83 2640.59s-73.2-1.53-117.76-2.93-73.89 4-95.56-12.74c-18.88-14.55-19.64-33.74-4.8-67.12 2.17-4.93 4.69-10.14 7.54-15.71l8.64-46.43.31-83.78s61.19-38.5 94.3-18.25l-27.37 111.87 16.85 21.7s8.53-6.63 23.33 9.23 42.71 43.81 42.71 43.81 52.64 15 58 33.15-6.19 27.2-6.19 27.2Z" class="colorfbbd9d svgShape"></path><path fill="#3a2614" d="M2402.83 2640.59s-73.2-1.53-117.76-2.93-89.81 10.34-110.67-7.38c-12.73-10.81-4.53-39.1 10.31-72.48 1.62.36 53.26 12 62.73 10.81 9.63-1.2 9.79-19.87 9.79-19.87l27.77-21.54s8.53-6.63 23.33 9.23 42.71 43.81 42.71 43.81 52.64 15 58 33.15-6.21 27.2-6.21 27.2Z" class="color3a2614 svgShape"></path><path fill="#2f3a49" d="M1947.1 2061.64s163-23.7 207.46 15 69 124.69 69 124.69Z" class="color2f3a49 svgShape"></path><path fill="#3e4a60" d="M2410.48 2433.89s-38.07 36.85-65.18 79c-3.45 5.35-6.73 10.79-9.72 16.25l-341.75-253.64s-31.21.78-43.7-14.83c0 0-177.89 12.49-235.63-21.84-24.36-14.48-8.73-55.35 17.49-97.76 35.93-58.13 91.74-119.15 91.74-119.15s240.33 15.61 354.24 117 232.51 294.97 232.51 294.97Z" class="color3e4a60 svgShape"></path><path fill="#3a2614" d="M2648.79 2495.11s-46.1 56.87-74.53 91.21-42.17 60.8-68.67 67.67c-23.08 6-38.7-5.19-56-37.39 1.28-1 42.14-34.7 47-42.91s-9.69-19.91-9.69-19.91v-35.14s0-10.79 21.6-12.76 60.81-6.87 60.81-6.87 44.13-32.37 61.77-25.5 17.71 21.6 17.71 21.6Z" class="color3a2614 svgShape"></path><path fill="#364254" d="M2345.3 2512.84c-3.45 5.35-6.73 10.79-9.72 16.25l-341.75-253.59s-31.21.78-43.7-14.83c0 0-177.89 12.49-235.63-21.84-24.36-14.48-8.73-55.35 17.49-97.76 12 4.93 45.21 22.72 55.55 71.49 0 0 162.57 12.71 179.83 12.71s20.3-17.67 79.34 18.65c51.89 31.93 251.12 223.08 298.59 268.92Z" class="color364254 svgShape"></path><path fill="#f2406a" d="M1883.11 1958.54s-36.58 42.07-76.1 97.89c-13.11 18.49-26.52 38.5-39 59-26.88 44-49.62 90.25-56.09 128.51a1276.24 1276.24 0 0 1-110.36-88.07l-2.61-2.34c-.44-.38-.87-.77-1.3-1.16l-1.3-1.17-1.56.07c-12.93.57-103.07 2.17-145.41-60-22.56-33.14-42.9-98-57.69-155.12v-.06c-6.43-24.83-11.81-48.21-15.88-66.88a206.26 206.26 0 0 1 2.92-99.6c13.06-46.68 40.14-110.41 94.72-146.76a166.18 166.18 0 0 1 58.72-24.52 199.1 199.1 0 0 1 54.68-3.79c117.46 8.17 196.44 118.29 196.44 118.29s5.37 4.85 13.67 12.2l2 1.77c9.1 8 21.15 18.56 33.4 28.89 4.15 9.64 7.46 19.34 13.69 22.18 9.72 4.41 15.91 7.94 13.26 23-2 11.56-20.69 53.81-49.49 78.86-8.64 7.52-18.18 13.48-28.47 16.61l.24.87v.06c1 2.84 2 5.7 3 8.58l35.07 9.66a2.49 2.49 0 0 1 1.7 1.61s.4 1.19 1.13 3l4.62 8.87a30.72 30.72 0 0 0 3.9 4.91 2.35 2.35 0 0 1 .6 1l-1-.1-.46-.06c-1.58-.19-2.46-.33-2.58-.34a35.07 35.07 0 0 0 3.27 3.14c6.35 5.46 22.64 16.76 52.27 21Z" class="colorf2406a svgShape"></path><path fill="#ffffff" d="M1607.25 1695.28c-50.16 27.8-133.87-72.46-133.87-72.46a166.34 166.34 0 0 1 58.72-24.52 198.76 198.76 0 0 1 54.68-3.79s70.62 72.97 20.47 100.77Z" class="colorfff svgShape"></path><path fill="#fbbd9d" d="M1894.14 2197a5.65 5.65 0 0 1-7 4.76c-.53-.13-1.08-.29-1.66-.47a38.16 38.16 0 0 1-6.45-2.7 45.58 45.58 0 0 1-5.72-3.64 49 49 0 0 1-4.47-3.79h-.06c-.16-.17-.34-.33-.51-.5v-.05c-7.88-7.71-16.07-20.39-22-41.17 0 0-49.72-7-75-34l-54 .75s-6.71-26.69-3.61-70.53l70.66 6.11 54.07 11.28 18.63 3.89a23.52 23.52 0 0 1 12.26 6.81c6.66 7 16.54 19.7 13.59 30.35-.04-.1 15.75 55.23 11.27 92.9Z" class="colorfbbd9d svgShape"></path><path fill="#f7ab8b" d="M1882.83 2104s-15-25.57-18.77-28.42-25-12.33-25.71-12.63l18.63 3.89a23.52 23.52 0 0 1 12.26 6.81c6.66 7.07 16.54 19.73 13.59 30.35ZM1868.19 2190.55a3.19 3.19 0 0 0 5.2 0c2.82-3.09-11.42-48.47-11.42-48.47l-11.2-10.26 14.76 9.5s12.77 39.88 11.44 49.56-8.78-.33-8.78-.33Z" class="colorf7ab8b svgShape"></path><path fill="#f7ab8b" d="M1888.56 2196.77c-.77 2.75-1.89 4.06-3.1 4.53a38.16 38.16 0 0 1-6.45-2.7c.36.09 7.08 2.08 7.27-4 .19-6.22-7.28-54.26-7.28-54.26l-14.56-17.66 17.47 17.28s9.31 47.31 6.65 56.81Z" class="colorf7ab8b svgShape"></path><path fill="#dd285c" d="M1717.2 2134c-54 18.61-118.23 19.31-118.23 19.31l-.06.22c-.87-.77-1.73-1.55-2.6-2.34 0 0-.53 0-1.55.08-12.93.57-103.09 2.17-145.41-60-22.58-33.14-42.91-98-57.7-155.12.88 2.28 29.67 76.06 96.17 144.41C1555.37 2150 1717.2 2134 1717.2 2134Z" class="colordd285c svgShape"></path><path fill="#d12053" d="M1722.35 2137.22a2.49 2.49 0 0 1-1.62 1.11c-3.28.66-77.12 17.53-118.06 17.53h-1.15q-2.6-2.31-5.21-4.68s-.53 0-1.55.08a2.41 2.41 0 0 1 1.58-.48c34.62 1.63 106.43-14 120.86-16.79-9-37-6.62-80.26-5.84-90.82-65.94-8.17-142.2-38.46-143-38.78a2.46 2.46 0 0 1-1.45-1.57l-6-19.38-17.93-12a2.5 2.5 0 0 1-1-1.43c-30.91-117.29-62.09-169.43-82.8-192.52-22.13-24.66-37.07-22-37.22-22a2.48 2.48 0 0 1-2.92-1.91 2.45 2.45 0 0 1 1.86-2.93c2.63-.59 65.11-11.85 125.63 217.17l17.89 11.92a2.43 2.43 0 0 1 1 1.34l5.87 19.09c9.7 3.77 81.46 31.15 143 38.31a2.46 2.46 0 0 1 2.18 2.69c0 .52-4.77 52.14 6.16 94.06a2.5 2.5 0 0 1-.28 1.99Z" class="colord12053 svgShape"></path><path fill="#dd285c" d="m1831.51 1934.8-1-.1-.46-.06-10.44-16.31-35.71-11.11-17.16-51.4c0-.13-.09-.24-.13-.36s16.3 13.06 43.13 24.22c-8.64 7.52-18.18 13.48-28.47 16.61l.24.87v.06c1 2.84 2 5.7 3 8.58l35.07 9.66a2.49 2.49 0 0 1 1.7 1.61s.4 1.19 1.13 3l4.62 8.87a30.72 30.72 0 0 0 3.9 4.91 2.35 2.35 0 0 1 .58.95Z" class="colordd285c svgShape"></path><path fill="#d12053" d="M1831.63 1935.58a2.49 2.49 0 0 1-.72 1.73l-.16.13a2.4 2.4 0 0 1-1.6.59 2.43 2.43 0 0 1-1.75-.72c-5.6-5.6-9.18-14.19-10.39-17.41l-35.1-9.67a2.45 2.45 0 0 1-1.69-1.59c-42.32-124-85.18-214.29-85.6-215.18a2.48 2.48 0 0 1 4.48-2.14c.36.78 31.87 67.19 67.52 164.14 0 .12.09.23.13.36 4.87 13.24 9.81 27.06 14.77 41.34v.06c1 2.84 2 5.7 3 8.58l35.07 9.66a2.49 2.49 0 0 1 1.7 1.61s.4 1.19 1.13 3a56.37 56.37 0 0 0 4.62 8.87 30.72 30.72 0 0 0 3.9 4.91 2.35 2.35 0 0 1 .6 1 2.31 2.31 0 0 1 .09.73Z" class="colord12053 svgShape"></path><path fill="#f4a589" d="M1483.71 1526.92v82.86s68.12 88.9 113.32 72.32-23.73-93.79-23.73-93.79V1542s-52.25-70.83-89.59-15.08Z" class="colorf4a589 svgShape"></path><path fill="#27303f" d="M1568.08 1349.11s18.45 5.39 14.84 34.74-31.08-5.19-31.08-5.19Z" class="color27303f svgShape"></path><path fill="#fbbd9d" d="M1569.21 1372.51a66 66 0 0 1 22.43 23.09c9.24 15.83 15.83 29 15.83 29l35.63 23.75-13.2 16.5s25.73 48.16 4 72.56-79.16 29-124.68-18.47-40.25-119.4-40.25-119.4Z" class="colorfbbd9d svgShape"></path><path fill="#293444" d="m1499.28 1414.73 9.9 104.23-20.5 26.42a10.44 10.44 0 0 1-9 4c-12.6-.93-43.94-4.7-70.09-19.77-18.9-10.9-35.1-27.68-39.6-53.55-12.54-71.91 38.92-100.94 38.92-100.94 15.66-61.79 51.63-71.11 76.44-69.38a81 81 0 0 1 25.81 6c29.69-13.19 40.24 18.47 40.24 18.47 24.28-6.15 24.18 18.41 24.18 18.41 3.29 54.83-76.3 66.11-76.3 66.11Z" class="color293444 svgShape"></path><ellipse cx="1580.27" cy="1434.38" rx="6.93" ry="9.71" transform="rotate(-26.11 1580.595 1434.57)" fill="#000000" class="color000 svgShape"></ellipse><path fill="#313d4f" d="M1571.93 1403.18a2 2 0 0 0-1.6-3.27c-6.73.47-16.76 3.35-15.45 16.43 1.65 16.48 9.32-4.55 17.05-13.16Z" class="color313d4f svgShape"></path><path fill="#ea8271" d="M1627.24 1479.85c0-1.09-11.59 9.73-23 16a1.75 1.75 0 0 0 .29 3.2 46.61 46.61 0 0 0 26.37 1s-3.66-12.16-3.66-20.2Z" class="colorea8271 svgShape"></path><path fill="#fbbd9d" d="M1504.67 1479.79c-12.08-1.74-24.86 5.9-29.05 17.35-4.4 12 .63 26.12 10 34.82 6.15 5.69 14.24 9.5 22.62 9.64s16.94-3.7 21.67-10.62c11.76-17.16-6.18-48.45-25.24-51.19Z" class="colorfbbd9d svgShape"></path><path fill="#f4a589" d="M1502.53 1528a3.25 3.25 0 0 0 2.85-1.66l9.42-16.57a3.28 3.28 0 0 0 .09-3.06 3.24 3.24 0 0 0-2.46-1.8l-20.25-3a3.28 3.28 0 1 0-1 6.48l15.52 2.29-7.06 12.42a3.28 3.28 0 0 0 2.85 4.89Z" class="colorf4a589 svgShape"></path><path fill="#313d4f" d="M1474 1398.18s12.1 94.65-64.43 131.45c-18.9-10.9-35.1-27.68-39.6-53.55-12.54-71.91 38.92-100.94 38.92-100.94 15.66-61.79 51.63-71.11 76.44-69.38 11.79 16.58 30.3 54.64-11.33 92.42Z" class="color313d4f svgShape"></path><ellipse cx="1555.92" cy="1486.39" fill="#fc9e8b" rx="24" ry="27.75" transform="rotate(-47.59 1555.726 1486.32)" class="colorfc9e8b svgShape"></ellipse><path fill="#f7ab8b" d="M2144.53 1937.65a2.39 2.39 0 0 1-.83-4.63c36.92-13.63 46.22-46.06 46.31-46.39a2.39 2.39 0 0 1 4.61 1.27c-.4 1.43-10.07 35.14-49.27 49.6a2.16 2.16 0 0 1-.82.15Z" class="colorf7ab8b svgShape"></path><path fill="#8adcf9" d="m1991.69 1880.71 45.48 2.73s-17 18.15-19.45 41.23h-46.58s5.66-28.98 20.55-43.96Z" class="color8adcf9 svgShape"></path><g clip-path="url(#a)" fill="#000000" class="color000 svgShape"><rect width="1537.63" height="62.86" x="2618.58" y="1783.02" fill="#f7ab31" rx="31.43" class="colorf7ab31 svgShape"></rect><path fill="#ffc35a" d="M2718.18 1845.88h1368.27v806.58H2718.18z" class="colorffc35a svgShape"></path><path fill="#f9b443" d="M4086.45 1845.88v806.58H2718.18v-399.13c162.39 5.82 634.48-15.59 1066.84-407.45Z" class="colorf9b443 svgShape"></path><path fill="#d81645" d="M3235.56 1570.13h-422.74a83.24 83.24 0 0 1 83.22-81.41h256.3a83.24 83.24 0 0 1 83.22 81.41Z" class="colord81645 svgShape"></path><path fill="#f23358" d="M3235.58 1572v211.65H2812.8V1570.17h422.74c.04.57.04 1.18.04 1.83Z" class="colorf23358 svgShape"></path><path fill="#d81645" d="M3235.58 1572v1.8H2812.8v-3.63h422.74c.04.57.04 1.18.04 1.83Z" class="colord81645 svgShape"></path><path fill="#f23358" d="M3120.05 1488.72h-24.52c0-44.4-35.31-53.69-35.31-53.69h-80.42s-35.29 9.29-35.29 53.69H2920s5.38-54.9 53.24-66.25h93.6c47.83 11.35 53.21 66.25 53.21 66.25Z" class="colorf23358 svgShape"></path><path fill="#ffffff" d="M3074.36 1657.5v42.37a3.84 3.84 0 0 1-3.84 3.85h-36.74a3.85 3.85 0 0 0-3.85 3.85v36.7a3.84 3.84 0 0 1-3.84 3.84h-42.39a3.84 3.84 0 0 1-3.85-3.84v-36.7a3.85 3.85 0 0 0-3.85-3.85h-36.72a3.84 3.84 0 0 1-3.84-3.85v-42.37a3.84 3.84 0 0 1 3.84-3.84H2976a3.85 3.85 0 0 0 3.85-3.85v-36.72a3.85 3.85 0 0 1 3.85-3.85h42.39a3.84 3.84 0 0 1 3.84 3.85v36.72a3.85 3.85 0 0 0 3.85 3.85h36.74a3.84 3.84 0 0 1 3.84 3.84Z" class="colorfff svgShape"></path><path fill="#f4f3f2" d="M2909.35 1647.62h-197.18a22.46 22.46 0 0 1 8.39-17.75c6-4.75 16.25-8 33.77-5.81 0 0 9.3-22.94 39.69-12.4 0 0 23.19-23.75 53.36 3.29q2.13 1.9 4.3 4.15s40.32-11.77 57.67 28.52Z" class="colorf4f3f2 svgShape"></path><path fill="#0542bf" d="M2919.26 1653.49v129.24h-217v-129.24a5.87 5.87 0 0 1 5.87-5.87h205.26a5.87 5.87 0 0 1 5.87 5.87Z" class="color0542bf svgShape"></path><path fill="#78cdea" d="M2919.26 1653.49v27.59h-217v-27.59a5.87 5.87 0 0 1 5.87-5.88h205.27a5.87 5.87 0 0 1 5.86 5.88Z" class="color78cdea svgShape"></path><path fill="#023faa" d="M2919.26 1689.05v93.68h-217v-38.35c34.49 1.22 124.01-1.8 217-55.33Z" class="color023faa svgShape"></path><path fill="#ffffff" d="M2847.38 1615c-12.36 8.22-29.3 2-29.3 2a35.74 35.74 0 0 1-25.43 20.57 59.35 59.35 0 0 1-35.08-3c-18.68 6.93-30.87.53-37-4.65 6-4.75 16.25-8 33.77-5.81 0 0 9.3-22.94 39.69-12.4-.03-.05 23.18-23.8 53.35 3.29Z" class="colorfff svgShape"></path></g><path fill="#166dd6" d="M3976.8 1713.31h-610.26a13.46 13.46 0 0 1-13.3-15.59l140-877a13.48 13.48 0 0 1 13.31-11.34h631.65a13.47 13.47 0 0 1 13.25 15.91l-161.4 877a13.47 13.47 0 0 1-13.25 11.02Z" class="color166dd6 svgShape"></path><path fill="#4097ff" d="M3941 1670.56h-638.13a22.5 22.5 0 0 1-22-27.17l182.35-858.9a22.49 22.49 0 0 1 22-17.82h606.6a22.5 22.5 0 0 1 22.18 26.38L3963.2 1652a22.51 22.51 0 0 1-22.2 18.56Z" class="color4097ff svgShape"></path><path fill="#d4edff" d="M4002.57 998.9h-509.09a13 13 0 0 1-12.7-15.43 12.26 12.26 0 0 1 12.08-9.84h509.08a13 13 0 0 1 12.7 15.43 12.25 12.25 0 0 1-12.07 9.84ZM3983.53 1081.34h-509.09a13 13 0 0 1-12.7-15.43 12.26 12.26 0 0 1 12.08-9.83h509.09a13 13 0 0 1 12.69 15.42 12.24 12.24 0 0 1-12.07 9.84ZM3964.49 1163.78H3455.4a13 13 0 0 1-12.69-15.43 12.24 12.24 0 0 1 12.07-9.83h509.09a13 13 0 0 1 12.7 15.43 12.26 12.26 0 0 1-12.08 9.83ZM3945.45 1246.22h-509.08a13 13 0 0 1-12.7-15.43 12.24 12.24 0 0 1 12.07-9.83h509.09a13 13 0 0 1 12.7 15.43 12.26 12.26 0 0 1-12.08 9.83ZM3926.41 1328.66h-509.08a13 13 0 0 1-12.7-15.42 12.24 12.24 0 0 1 12.07-9.84h509.09a13 13 0 0 1 12.7 15.43 12.26 12.26 0 0 1-12.08 9.83ZM3907.37 1411.11h-509.08a13 13 0 0 1-12.7-15.43 12.25 12.25 0 0 1 12.07-9.84h509.09a13 13 0 0 1 12.7 15.43 12.26 12.26 0 0 1-12.08 9.84ZM3888.34 1493.55h-509.09a13 13 0 0 1-12.7-15.43 12.24 12.24 0 0 1 12.07-9.83h509.09a13 13 0 0 1 12.7 15.42 12.24 12.24 0 0 1-12.07 9.84ZM3869.3 1576h-509.09a13 13 0 0 1-12.7-15.43 12.26 12.26 0 0 1 12.08-9.83h509.08a13 13 0 0 1 12.7 15.43 12.24 12.24 0 0 1-12.07 9.83Z" opacity=".79" class="colord4edff svgShape"></path><path fill="#04ba9b" d="M3115.71 1468.19s-14.9 88.54-78.92 103.77-137.21-44.85-137.21-44.85a132.72 132.72 0 0 0 6.12-19.34c15.8-66.14-10.56-150.14-10.56-150.14l67.91 40.21s2.17-11.78-2.12-97.66 38.26-185.42 38.26-185.42c22.36-28.79 81.81 207.14 106 308.56 6.55 27.32 10.52 44.87 10.52 44.87Z" class="color04ba9b svgShape"></path><path fill="#044236" d="M3446.39 2623.2c1 14.26 26.24 14 26.24 14l93.44-1.12a11.91 11.91 0 0 0 11.78-12c0-8.29-2.79-18.58-8.18-27.5-8.59-14.19-10.16-76.36-10.16-76.36l-.47-39.52c-.33-27.72-87.11-43.8-87.11-43.8l.93 78.46-9.26 69s-18.21 24.56-17.21 38.84Z" class="color044236 svgShape"></path><path fill="#f4a589" d="m3471.93 2436.82.87 73.2c60 13.34 86.57-1 86.57-1l-.79-67c-.33-27.74-86.65-5.2-86.65-5.2Z" class="colorf4a589 svgShape"></path><path fill="#044236" d="M3109.71 2624.81h173.94a8.13 8.13 0 0 0 7.95-6.37 153.45 153.45 0 0 0 2.72-48.07c-1.53-14.83-3.6-37.15-5.31-56.35-1.89-20.72-3.37-37.76-3.37-37.76l-78.88-8.45-8.71 46.21-.8 4.27-38.63 50.49s-58.37 18.15-59.18 30.78 10.27 25.25 10.27 25.25Z" class="color044236 svgShape"></path><path fill="#f4a589" d="M3198.05 2514c50.84 15.4 91 0 91 0-1.89-20.72-3.37-54.58-3.37-54.58l-78.88-9.7Z" class="colorf4a589 svgShape"></path><path fill="#11937a" d="M3098.32 1019.47s48.6-25.55 110.45-23.86l13.68 45.5-134.19 18.62Z" class="color11937a svgShape"></path><path fill="#087a64" d="m3358.63 1594.71-8.51 342.29-35.35 468.62-5.84 77.48c-88 26.35-153.37 0-153.37 0l-1-128.9-6.1-753.2Z" class="color087a64 svgShape"></path><path fill="#036b57" d="m3249.34 1671.73 71.81 654.61 40.37-569.18-112.18-85.43z" class="color036b57 svgShape"></path><path fill="#087a64" d="M3597.86 2451.89c-80.66 39.1-156 25.35-156 25.35s-6.32-29.73-16.42-76.9c-37.21-173.83-125.63-584.43-137.35-615.56-14.9-39.57-37.87-58.31-37.87-58.31-2.58-25.11-14.32-77.22-12.61-95.13 11.58-121.13 119.61-60 119.61-60l152.26 153.57 70.52 580.4Z" class="color087a64 svgShape"></path><path fill="#036b57" d="m3338 1780.38 5.3 60.08s137.27-15 174.7-45.69l-4.64-52.55ZM3597.86 2451.89c-80.66 39.1-156 25.35-156 25.35s-6.32-29.73-16.42-76.9c31-8 105-32.84 154.61-95ZM3314.77 2405.57l-5.84 77.48c-88 26.35-153.37 0-153.37 0l-1-128.9c56.02 36.47 131.64 48.16 160.21 51.42Z" class="color036b57 svgShape"></path><path fill="#11937a" d="M3356.75 1630.94s-90.21 62.16-191.69 26.6c-37.06-13-56.32-99.4-65.82-203.88-16.54-181.64-3.63-417.88-3.63-417.88l124.75-27.67 98.89 214.32L3324 1274Z" class="color11937a svgShape"></path><path fill="#108972" d="M3356.75 1630.94s-90.21 62.16-191.69 26.6c-37.06-13-56.32-99.4-65.82-203.88 25.67-4 180.35-34 224.75-179.63Z" class="color108972 svgShape"></path><path fill="#f4a589" d="m3107.08 979.19 6.12 44.11-17.59 12.47s18.55 46.48 51.51 43.76 63-46.26 68.78-68.62l-17.73-7.2-19.55-79.34-54 27.49Z" class="colorf4a589 svgShape"></path><path fill="#00ad8c" d="M3115.71 1468.19s-14.9 88.54-78.92 103.77-137.21-44.85-137.21-44.85a132.72 132.72 0 0 0 6.12-19.34s115.88 69.09 172.12-53.59c10.79-23.53 19.83-32.21 27.39-30.86 6.53 27.32 10.5 44.87 10.5 44.87Z" class="color00ad8c svgShape"></path><path fill="#00c8ab" d="M3098.32 1019.47s6.1 144.32 43.55 321.08 59.27 498.86 59.27 498.86-50.79 13.7-84.48-21.25c0 0-34.81-272.42-46.4-334.44s-70.16-283.58-71.07-369c0 .04 33.09-55.26 99.13-95.25ZM3208.77 995.61s8.2 197.81 34.52 356.7 85.16 469.86 85.16 469.86 129-13 219.87-74.82c0 0-119.3-428.29-126.87-482.85s-26.67-184.5-26.67-184.5-47.24-63-186.01-84.39Z" class="color00c8ab svgShape"></path><path fill="#31ddbc" d="M3351.31 1565.82s72.49-14.7 135-44.79l52.51 157.59s3 12.3-3.78 20.69-87.3 41.42-121.47 43.86c0 0-19 3.79-22.56-17.57s-39.7-159.78-39.7-159.78ZM3082.89 1596.81l24.32 2.87 16.89 163s3.32 20.58-10.72 22.27c0 0-13.3 6.91-15.32-25s-15.17-163.14-15.17-163.14Z" class="color31ddbc svgShape"></path><path fill="#3c91f7" d="m3369.72 1470.62-169.58 23.53-87.4-254.69 169.58-23.53 87.4 254.69z" class="color3c91f7 svgShape"></path><path fill="#2475ea" d="m3364.36 1475.56-169.58 23.53-87.4-254.69 169.58-23.52 87.4 254.68z" class="color2475ea svgShape"></path><path fill="#175edd" d="m3357.27 1482.6-169.58 23.52-87.4-254.68 169.58-23.53 87.4 254.69z" class="color175edd svgShape"></path><path fill="#04ba9b" d="M3366.68 1349.9s-50.88-181.45-24.12-226.78 53-41.62 53-41.62 88.75 98.16 99.74 312.35a89 89 0 0 1-25.18 66.69c-24.21 24.86-66.39 59.32-131.39 84.79 0 0-10.51-93.4-45.29-185.27Z" class="color04ba9b svgShape"></path><path fill="#08846c" d="M3331.56 1447.74c14 51.38 16 98.06 7.75 100.31s-23.55-40.78-37.59-92.15-19.5-93.35-11.26-95.6 27.06 36.07 41.1 87.44Z" class="color08846c svgShape"></path><path fill="#f4a589" d="m3293.42 1360.06-27.47 2.22s-27.39-50.07-45.69-51.81c-13.54-1.29-36.27-5-47.16-6.76a4.72 4.72 0 0 0-5.41 5.62c1.31 6.15 4.79 14.77 14 17.89 15 5 24 11.88 24 11.88l7.73 14.61s-70.19 21.62-77.45 24-9.38 14.61-5.89 22.68 12.2 12.57 15 29.29 20.88 37.5 20.88 37.5-1.41 20.63 26.89 19.08 99-53.38 99-53.38l35.63.74s-10.86-49.48-34.06-73.56Z" class="colorf4a589 svgShape"></path><path fill="#08846c" d="M2915.59 1444.49c-1.46 45.89-4.71 83-16 82.62s-31.44-42.35-30-88.25 11.77-82.82 23-82.46 24.46 42.19 23 88.09Z" class="color08846c svgShape"></path><path fill="#3a2622" d="M3180.16 772.71s-33.21-16.55-18-36.83 89.11 2.15 100.47 45.73-46.3 27.21-46.3 27.21Z" class="color3a2622 svgShape"></path><path fill="#fbbd9d" d="M3190.19 886c.28 3.37.43 6.76.45 10.15 0 2.52-.07 5-.26 7.48a107.65 107.65 0 0 1-12.31 42.26c-21.39 40.93-65.79 68.4-98.43 64-21.14-2.89-31.64-32.83-35.53-67.89a323 323 0 0 1-1.8-38.24c0-5.65.23-11.23.52-16.68v-.13c1.11-20.76 3.88-39.35 7.43-51 5.81-19.1 14.86-27.75 22.91-31.53a27.82 27.82 0 0 1 16.76-2.34h.2l.29.07s.13-.1.38-.26C3136 769.41 3185 824 3190.19 886Z" class="colorfbbd9d svgShape"></path><path fill="#49322c" d="M3236.5 900.56s-14.4 11-54.86 1.13-57.44-68.84-63.93-91.79-27.28-7.79-27.28-7.79c-40.95-10.86-47.6 84.93-47.6 84.93-9.95-26.27-13.16-61.35 4.76-92.67S3089 773.5 3089 773.5s19.57-40.06 88.81-22.7S3238.4 864 3238.4 864a12.11 12.11 0 0 1 6.73 6.93c4.24 11.5-8.63 29.63-8.63 29.63Z" class="color49322c svgShape"></path><path fill="#dd8266" d="M3074.37 939.34a1.5 1.5 0 0 1-1.26-.42l-9.1-9a1.5 1.5 0 0 1-.32-1.67l16.57-38.52a1.51 1.51 0 1 1 2.77 1.19l-16.16 37.58 8.36 8.25a1.5 1.5 0 0 1 0 2.13 1.46 1.46 0 0 1-.86.46Z" class="colordd8266 svgShape"></path><ellipse cx="3115.42" cy="894.03" rx="9.75" ry="7.31" transform="rotate(-88.6 3115.346 894.078)" fill="#000000" class="color000 svgShape"></ellipse><ellipse cx="3058.5" cy="891.25" rx="9.46" ry="6.8" transform="rotate(-88.6 3058.429 891.29)" fill="#000000" class="color000 svgShape"></ellipse><path fill="#3a2622" d="M3104.82 862.62s10.45-6.08 18.37-4.39 13.84 8.86 13.3 13-9.44-4.82-18.58-5.36-13.05 1.13-13.09-3.25ZM3077.52 860.39s-4.88-8.94-11.51-10.4-14.31 2.45-15.87 6.19 9.21-.63 16.2 2.24 9.11 5.67 11.18 1.97Z" class="color3a2622 svgShape"></path><path fill="#dd8266" d="M3087.06 966.55c-9.06 1.22-15.15-.44-15.56-.56a2 2 0 0 1 1.08-3.83c.21.06 15.65 4.16 33.79-6.65a2 2 0 1 1 2 3.42 56.21 56.21 0 0 1-21.31 7.62Z" class="colordd8266 svgShape"></path><path fill="#3a2622" d="M3236.5 900.56s-14.4 11-54.86 1.13-57.44-68.84-63.93-91.79-27.28-7.79-27.28-7.79c-40.95-10.86-47.6 84.93-47.6 84.93s-10.56-103.4 44.7-94.86c0 0 12.11-24.2 46.62-14.43s69.51 96.55 103.11 97.5c0 0 6.76.85 7.87-4.3 4.24 11.48-8.63 29.61-8.63 29.61Z" class="color3a2622 svgShape"></path><path fill="#fbbd9d" d="M3177 895.07c9.25-8 24.18-8.54 33.95-1.15 10.25 7.75 13.68 22.38 10.48 34.82-2.09 8.15-6.84 15.77-13.84 20.44s-16.31 6.1-24.07 2.83c-19.21-8.1-21.1-44.25-6.52-56.94Z" class="colorfbbd9d svgShape"></path><path fill="#f4a589" d="M3205 934.55a3.29 3.29 0 0 1-3.31.15l-17-8.86a3.31 3.31 0 0 1-1.74-2.53 3.26 3.26 0 0 1 1.1-2.86l15.46-13.54a3.29 3.29 0 1 1 4.33 5l-11.85 10.37 12.71 6.64a3.29 3.29 0 0 1 .26 5.68Z" class="colorf4a589 svgShape"></path><ellipse cx="3140.21" cy="928.51" fill="#fc9e8b" rx="28.83" ry="24.93" transform="rotate(-83.72 3140.194 928.518)" class="colorfc9e8b svgShape"></ellipse><path fill="#fc9e8b" d="M3049.35 927.54a32.09 32.09 0 0 1-5.3 14.55 325 325 0 0 1-1.79-38.23 30.56 30.56 0 0 1 7.09 23.68Z" class="colorfc9e8b svgShape"></path><path fill="#fbbd9d" d="m2915.73 1467.53-25.73-25.67-62-61.76s-66.93-31.37-77.48-59.56-14.48-83.5 5.44-94.1 25.71 16.59 31.67 27.76 37.34 18.85 37.34 18.85-.84-7.13-6.45-24c-5.44-16.43 6.53-21.73 7.19-22l.09.19.08.17c0 .13.13.29.22.48 1.08 2.33 4.29 9.17 8.54 17.93l.12.24c5.7 11.73 13.21 26.85 20 39.22 13.15 24 17.95 56 17.95 56l27 18.91c27.11 54.15 16.02 107.34 16.02 107.34Z" class="colorfbbd9d svgShape"></path><path fill="#f4a589" d="M2824.94 1273.05s4.2 11.86 2.56 21.76-4.68 34.25 6.87 47.72c0 0-10.33-21.16-2.93-38.48s-6.5-31-6.5-31ZM2825.71 1227s-1.31.76.66 5.58 7.06 13.09 8.41 13.46ZM2800.54 1276.62s-19.3 27.56-25.62 46.77c0 0 1.58-31.11 25.62-46.77ZM2915.73 1467.53l-25.73-25.67c4.37-1.53 9.57-6.88 12.31-22.51 5.29-30.12-2.55-59.17-2.55-59.17 27.06 54.16 15.97 107.35 15.97 107.35Z" class="colorf4a589 svgShape"></path><path fill="#ffffff" d="M3535.93 897.56c-5.2 10.76-14.66 18.89-29 18.89-19.48 0-26.85-15.5-23.29-34.58 3.42-18.31 16.6-35 36.37-35 14.63 0 21.73 8.14 21.84 19.47h-5.23c-1.45-8.81-6.09-14.63-17.81-14.63-16.86 0-26.8 15.41-29.53 30s1.4 29.84 18.75 29.84c11 0 17.73-5.72 22.67-14.05ZM3593.21 882.35h-34.59l-5.31 28.48h37.88l-1.68 4.85h-42.34l12.66-67.82h41.56l-.9 4.84h-36.33l-4.63 24.81h34.59ZM3614.89 884l-5.89 31.68h-5.33l12.66-67.82h24.32c13.37 0 19.1 7.17 17.11 17.83a19.49 19.49 0 0 1-15.65 15.89c6.66 1.64 10.46 6.2 8.31 17.73l-.49 2.61c-.88 4.75-2.46 11.14-1.69 13.76h-5.33c-.72-2.91.59-8.33 1.67-14.15l.33-1.74c2.08-11.14-.35-15.79-13.33-15.79Zm.91-4.85h16.37c11.92 0 18.27-4.45 19.93-13.37 1.56-8.33-3-13.08-13.54-13.08h-17.83ZM3690.87 852.7h-22.77l.9-4.84h51l-.9 4.84h-22.9l-11.76 63h-5.33ZM3735.27 847.86l-12.66 67.82h-5.23l12.62-67.82ZM3755.22 847.86h41.08l-.9 4.84h-35.85l-4.77 25.58h33.61l-.9 4.84h-33.62l-6.07 32.56h-5.23ZM3813.54 847.86l-12.66 67.82h-5.23l12.66-67.82ZM3874.41 897.56c-5.21 10.76-14.67 18.89-29 18.89-19.48 0-26.85-15.5-23.29-34.58 3.42-18.31 16.6-35 36.37-35 14.63 0 21.73 8.14 21.84 19.47h-5.23c-1.45-8.81-6.08-14.63-17.81-14.63-16.85 0-26.8 15.41-29.53 30s1.4 29.84 18.75 29.84c11 0 17.73-5.72 22.67-14.05ZM3896.32 892.23l-13 23.45H3878l37.56-67.82h6.2l13.31 67.82h-5.72l-4.44-23.45Zm27.74-4.84c-3.8-20.15-5.87-29.84-6.37-34.4h-.1c-2.6 5.14-9.2 17.15-18.53 34.4ZM3964.14 852.7h-22.76l.9-4.84h51l-.9 4.84h-22.87l-11.75 63h-5.33ZM4036.69 882.35h-34.58l-5.32 28.48h37.88l-1.68 4.85h-42.34l12.66-67.82h41.57l-.91 4.84h-36.33l-4.64 24.81h34.59Z" class="colorfff svgShape"></path></g></svg></g></svg>