<svg id="SvgjsSvg1001" width="550" height="550" xmlns="http://www.w3.org/2000/svg" version="1.1" xmlns:xlink="http://www.w3.org/1999/xlink" xmlns:svgjs="http://svgjs.com/svgjs"><defs id="SvgjsDefs1002"></defs><g id="SvgjsG1008"><svg xmlns="http://www.w3.org/2000/svg" data-name="Layer 1" viewBox="0 0 650 512" width="550" height="550"><defs><clipPath id="a"><rect width="125.864" height="122.909" x="339.944" y="265.7" fill="none" transform="rotate(-74.43 402.876 327.154)"></rect></clipPath></defs><circle cx="328.792" cy="256" r="173.618" fill="#dbe8ec" class="colordbe8ec svgShape"></circle><path fill="#dbe8ec" d="M583.90415,219.69952V201.50835A13.07945,13.07945,0,0,0,570.8247,188.4289h-46.166a13.07945,13.07945,0,0,1-13.07946-13.07945V157.15829a13.07945,13.07945,0,0,1,13.07946-13.07945h1.45764a13.07945,13.07945,0,0,0,13.07945-13.07945V112.80822a13.07945,13.07945,0,0,0-13.07945-13.07945H154.20918a13.07945,13.07945,0,0,0-13.07945,13.07945v18.19117a13.07945,13.07945,0,0,0,13.07945,13.07945h0a13.07945,13.07945,0,0,1,13.07945,13.07945v18.19116a13.07945,13.07945,0,0,1-13.07945,13.07945H103.6298a13.07945,13.07945,0,0,0-13.07945,13.07945v18.19117A13.07945,13.07945,0,0,0,103.6298,232.779h19.84658a13.07945,13.07945,0,0,1,13.07945,13.07945v18.19125a13.07945,13.07945,0,0,1-13.07945,13.07945h-.048A13.07945,13.07945,0,0,0,110.349,290.20857v18.19108a13.07945,13.07945,0,0,0,13.07945,13.07945h2.87139a13.07945,13.07945,0,0,1,13.07945,13.07945V352.7498a13.07945,13.07945,0,0,1-13.07945,13.07945H79.1753A13.07945,13.07945,0,0,0,66.09585,378.9087v18.19117A13.07945,13.07945,0,0,0,79.1753,410.17932h453.963a13.07945,13.07945,0,0,0,13.07945-13.07945V378.9087a13.07945,13.07945,0,0,0-13.07945-13.07945H521.79779a13.07945,13.07945,0,0,1-13.07945-13.07945V334.55855a13.07945,13.07945,0,0,1,13.07945-13.07945h26.73986a13.07945,13.07945,0,0,0,13.07945-13.07945V290.20857a13.07945,13.07945,0,0,0-13.07945-13.07945H540.426a13.07945,13.07945,0,0,1-13.07945-13.07945V245.85842A13.07945,13.07945,0,0,1,540.426,232.779H570.8247A13.07945,13.07945,0,0,0,583.90415,219.69952Z" class="colordbe8ec svgShape"></path><circle cx="169.838" cy="267.885" r="13.807" fill="#b9d4db" class="colorb9d4db svgShape"></circle><circle cx="182.315" cy="295.366" r="7.159" fill="#b9d4db" class="colorb9d4db svgShape"></circle><circle cx="162.895" cy="316.811" r="7.159" fill="#b9d4db" class="colorb9d4db svgShape"></circle><circle cx="147.832" cy="289.924" r="10.228" fill="#b9d4db" class="colorb9d4db svgShape"></circle><circle cx="431.47" cy="171.627" r="13.807" fill="#b9d4db" class="colorb9d4db svgShape"></circle><circle cx="401.32" cy="173.011" r="7.159" fill="#b9d4db" class="colorb9d4db svgShape"></circle><circle cx="388.617" cy="147.018" r="7.159" fill="#b9d4db" class="colorb9d4db svgShape"></circle><circle cx="419.175" cy="143.012" r="10.228" fill="#b9d4db" class="colorb9d4db svgShape"></circle><path fill="#e06714" d="M413.07064,306.39425H209.6948c-4.92586,0-7.06526-87.54179-3.178-90.56721l101.68792-73.38946a5.17426,5.17426,0,0,1,6.356,0L416.24862,215.827C420.1359,218.85246,417.99651,306.39425,413.07064,306.39425Z" class="colore06714 svgShape"></path><path fill="#ee781d" d="M204.5104 365.469V221.22742a5.17425 5.17425 0 019.25755-3.178l88.173 72.12077a5.17425 5.17425 0 010 6.356l-88.173 72.12077A5.17425 5.17425 0 01204.5104 365.469zM418.255 365.469V221.22742a5.17425 5.17425 0 00-9.25755-3.178l-88.173 72.12077a5.17425 5.17425 0 000 6.356l88.173 72.12077A5.17425 5.17425 0 00418.255 365.469z" class="coloree781d svgShape"></path><path fill="#f98232" d="M413.07064,370.65337H209.6948a5.17425,5.17425,0,0,1-3.178-9.25755l101.68792-73.38946a5.17426,5.17426,0,0,1,6.356,0l101.68792,73.38946A5.17425,5.17425,0,0,1,413.07064,370.65337Z" class="colorf98232 svgShape"></path><circle cx="204.51" cy="201.764" r="35.702" fill="#f9ae2b" class="colorf9ae2b svgShape"></circle><rect width="3.719" height="33.024" x="202.651" y="178.363" fill="#409cb5" class="color409cb5 svgShape"></rect><path fill="#409cb5" d="M204.5104,225.16642c4.48683,0,4.49426-6.97307,0-6.97307-4.48684,0-4.49427,6.97307,0,6.97307Z" class="color409cb5 svgShape"></path><line x1="482.112" x2="514.414" y1="208.448" y2="208.448" fill="none" stroke="#b9d4db" stroke-linecap="round" stroke-miterlimit="10" stroke-width="3" class="colorStrokeb9d4db svgStroke"></line><line x1="482.112" x2="514.414" y1="217.759" y2="217.759" fill="none" stroke="#b9d4db" stroke-linecap="round" stroke-miterlimit="10" stroke-width="3" class="colorStrokeb9d4db svgStroke"></line><line x1="482.112" x2="514.414" y1="227.069" y2="227.069" fill="none" stroke="#b9d4db" stroke-linecap="round" stroke-miterlimit="10" stroke-width="3" class="colorStrokeb9d4db svgStroke"></line><line x1="147.388" x2="179.691" y1="368.22" y2="368.22" fill="none" stroke="#b9d4db" stroke-linecap="round" stroke-miterlimit="10" stroke-width="3" class="colorStrokeb9d4db svgStroke"></line><line x1="147.388" x2="179.691" y1="377.53" y2="377.53" fill="none" stroke="#b9d4db" stroke-linecap="round" stroke-miterlimit="10" stroke-width="3" class="colorStrokeb9d4db svgStroke"></line><line x1="147.388" x2="179.691" y1="386.841" y2="386.841" fill="none" stroke="#b9d4db" stroke-linecap="round" stroke-miterlimit="10" stroke-width="3" class="colorStrokeb9d4db svgStroke"></line><line x1="237.62" x2="269.923" y1="128.212" y2="128.212" fill="none" stroke="#b9d4db" stroke-linecap="round" stroke-miterlimit="10" stroke-width="3" class="colorStrokeb9d4db svgStroke"></line><line x1="237.62" x2="269.923" y1="137.523" y2="137.523" fill="none" stroke="#b9d4db" stroke-linecap="round" stroke-miterlimit="10" stroke-width="3" class="colorStrokeb9d4db svgStroke"></line><line x1="237.62" x2="269.923" y1="146.833" y2="146.833" fill="none" stroke="#b9d4db" stroke-linecap="round" stroke-miterlimit="10" stroke-width="3" class="colorStrokeb9d4db svgStroke"></line><circle cx="523.862" cy="342.229" r="13.807" fill="#b9d4db" class="colorb9d4db svgShape"></circle><circle cx="487.426" cy="352.194" r="7.159" fill="#b9d4db" class="colorb9d4db svgShape"></circle><circle cx="505.605" cy="308.444" r="10.228" fill="#b9d4db" class="colorb9d4db svgShape"></circle><path fill="#3086a3" d="M475.96045,285.46367,448.261,308.161l-54.7373,44.85086-15.21813,31.05833a1.84447,1.84447,0,0,1-2.06531.9886l-.088-.02452a1.84408,1.84408,0,0,1-1.35069-1.75965l.95873-29.4362.34156-10.54191,97.7612-60.8584a1.847,1.847,0,0,1,2.09745,3.02553Zm0,0" class="color3086a3 svgShape"></path><path fill="#409cb5" d="M476.577,284.50273l-.008.02871a1.84221,1.84221,0,0,1-.85429,1.10128l-19.71294,11.41214L376.099,343.30674l-33.64291-22.908a1.85018,1.85018,0,0,1,.566-3.31512l131.25118-34.823.05333-.01608.10118-.02269.10736-.01917.09782-.01059.12162-.007.10289.00055.01377.00383.10009.00692.10926.01254c.07062.01175.14025.02706.21.04549a1.87885,1.87885,0,0,1,.26667.09732,1.19441,1.19441,0,0,1,.1164.05851,1.0929,1.0929,0,0,1,.12148.06965l.122.08513a.44726.44726,0,0,1,.07061.05854.0688.0688,0,0,1,.02678.02231l.06956.06233.01661.00463.06006.06071a1.79164,1.79164,0,0,1,.13883.17165.7478.7478,0,0,1,.05836.085,1.76529,1.76529,0,0,1,.14981.29743,1.43043,1.43043,0,0,1,.05271.14765c.01415.04281.02492.08673.03541.1308.01076.04391.02432.11366.0341.17213a1.49751,1.49751,0,0,1,.01326.15251,1.41119,1.41119,0,0,1,.00174.18739,1.024,1.024,0,0,0-.00914.11533,2.01074,2.01074,0,0,1-.0589.2692Zm0,0" class="color409cb5 svgShape"></path><g clip-path="url(#a)" fill="#000000" class="color000 svgShape"><path fill="#409cb5" d="M449.09911,389.87853a1.84374,1.84374,0,0,1-2.28318,1.31169,1.88634,1.88634,0,0,1-.54173-.2499L389.073,352.01468l66.92873-54.96982,17.61739-14.43713a1.864,1.864,0,0,1,.67932-.35586c.03868-.00942.07755-.01955.1173-.02637l.10775-.01781.09838-.0117.12162-.007.10188.00051.01471.0041.09982.00787.10934.01231c.07062.01175.14025.02707.209.04546a1.89207,1.89207,0,0,1,.2677.09734,1.19547,1.19547,0,0,1,.11639.05852,1.05179,1.05179,0,0,1,.12142.06988l.1221.0849a.54942.54942,0,0,1,.07088.05759.08028.08028,0,0,1,.02645.02348l.06955.06234.01662.00464.06.0607a1.78762,1.78762,0,0,1,.13889.17141.72233.72233,0,0,1,.05831.08529,1.74955,1.74955,0,0,1,.14981.29742c.01949.04839.03785.09723.05277.14741.01434.0421.02489.08594.03567.12986s.02406.11461.03378.17332a1.45007,1.45007,0,0,1,.01324.1525,1.422,1.422,0,0,1,.00206.1862.935.935,0,0,0-.00912.11535,1.951,1.951,0,0,1-.04865.2682l-.00721.02587Zm0,0" class="color409cb5 svgShape"></path><path fill="#4469a0" d="M406.0945,363.59727l-28.34108,21.14219a1.84686,1.84686,0,0,1-1.5994.29842,1.80067,1.80067,0,0,1-.682-.35878,1.84067,1.84067,0,0,1-.4805-2.23338l14.08428-30.43025Zm0,0" class="color4469a0 svgShape"></path></g><path fill="#4469a0" d="M389.073,352.01468l17.0215,11.58259-4.12547,3.07735-14.44875-11.30629Zm0,0" class="color4469a0 svgShape"></path></svg></g></svg>